<mxfile modified="2021-10-19T08:20:43.620Z" host="app.diagrams.net" agent="5.0 (Windows NT 10.0; WOW64) AppleWebKit/537.36 (KHTML, like Gecko) Chrome/79.0.3945.79 Safari/537.36" etag="G4heShNImt1rBJlmEy_i" version="15.5.5" type="github">
  <diagram id="Ht1M8jgEwFfnCIfOTk4-" name="Page-1">
    <mxGraphModel dx="1378" dy="761" grid="0" gridSize="10" guides="1" tooltips="1" connect="1" arrows="1" fold="1" page="1" pageScale="1" pageWidth="1169" pageHeight="827" math="0" shadow="0">
      <root>
        <mxCell id="0" />
        <mxCell id="1" parent="0" />
        <mxCell id="Ln0wYWGK2Pg7mDHhLt9o-11" value="阿里云/腾讯云/华为云/可信云" style="points=[[0,0],[0.25,0],[0.5,0],[0.75,0],[1,0],[1,0.25],[1,0.5],[1,0.75],[1,1],[0.75,1],[0.5,1],[0.25,1],[0,1],[0,0.75],[0,0.5],[0,0.25]];outlineConnect=0;html=1;whiteSpace=wrap;fontSize=20;fontStyle=1;shape=mxgraph.aws4.group;grIcon=mxgraph.aws4.group_aws_cloud;verticalAlign=top;align=left;spacingLeft=30;dashed=1;shadow=1;sketch=0;" parent="1" vertex="1">
          <mxGeometry x="296.5" y="158" width="807.5" height="642" as="geometry" />
        </mxCell>
        <mxCell id="7YA4XFrxnDAU5ptN0OJv-4" value="鲲鹭云" style="verticalAlign=top;fontStyle=1;fillColor=#f9f7ed;fontSize=20;strokeColor=#36393d;align=right;gradientDirection=east;rounded=0;glass=1;shadow=1;sketch=0;" parent="1" vertex="1">
          <mxGeometry x="326" y="197" width="751" height="583" as="geometry" />
        </mxCell>
        <mxCell id="Ln0wYWGK2Pg7mDHhLt9o-24" value="mqtt集群" style="points=[[0,0],[0.25,0],[0.5,0],[0.75,0],[1,0],[1,0.25],[1,0.5],[1,0.75],[1,1],[0.75,1],[0.5,1],[0.25,1],[0,1],[0,0.75],[0,0.5],[0,0.25]];outlineConnect=0;html=1;whiteSpace=wrap;fontSize=20;fontStyle=1;shape=mxgraph.aws4.group;grIcon=mxgraph.aws4.group_aws_step_functions_workflow;strokeColor=#82b366;fillColor=#d5e8d4;verticalAlign=top;align=left;spacingLeft=30;dashed=0;shadow=1;sketch=0;" parent="1" vertex="1">
          <mxGeometry x="567" y="274" width="148" height="120" as="geometry" />
        </mxCell>
        <mxCell id="Ln0wYWGK2Pg7mDHhLt9o-51" style="edgeStyle=none;rounded=0;orthogonalLoop=1;jettySize=auto;html=1;fontFamily=Tahoma;fontSize=20;fontStyle=1;strokeWidth=3;shadow=1;" parent="1" source="Ln0wYWGK2Pg7mDHhLt9o-35" target="1yn95lNJv_hw5B5bu8lK-18" edge="1">
          <mxGeometry relative="1" as="geometry">
            <mxPoint x="722.6808510638298" y="695.4000000000001" as="targetPoint" />
          </mxGeometry>
        </mxCell>
        <mxCell id="Ln0wYWGK2Pg7mDHhLt9o-55" style="edgeStyle=none;rounded=0;orthogonalLoop=1;jettySize=auto;html=1;fontFamily=Tahoma;fontSize=20;fontStyle=1;strokeWidth=3;shadow=1;" parent="1" source="Ln0wYWGK2Pg7mDHhLt9o-35" target="Nti4WjDRyjgu_Wvz6jyu-3" edge="1">
          <mxGeometry relative="1" as="geometry">
            <mxPoint x="1019" y="545.5401929260449" as="targetPoint" />
          </mxGeometry>
        </mxCell>
        <mxCell id="Ln0wYWGK2Pg7mDHhLt9o-56" style="edgeStyle=none;rounded=0;orthogonalLoop=1;jettySize=auto;html=1;fontFamily=Tahoma;fontSize=20;fontStyle=1;strokeWidth=3;shadow=1;" parent="1" source="Ln0wYWGK2Pg7mDHhLt9o-35" target="Nti4WjDRyjgu_Wvz6jyu-1" edge="1">
          <mxGeometry relative="1" as="geometry">
            <mxPoint x="986" y="614.1294964028777" as="targetPoint" />
          </mxGeometry>
        </mxCell>
        <mxCell id="Ln0wYWGK2Pg7mDHhLt9o-58" style="edgeStyle=none;rounded=0;orthogonalLoop=1;jettySize=auto;html=1;fontFamily=Tahoma;fontSize=20;fontStyle=1;strokeWidth=3;shadow=1;" parent="1" source="Ln0wYWGK2Pg7mDHhLt9o-35" target="Nti4WjDRyjgu_Wvz6jyu-2" edge="1">
          <mxGeometry relative="1" as="geometry">
            <mxPoint x="922" y="647" as="targetPoint" />
          </mxGeometry>
        </mxCell>
        <mxCell id="1yn95lNJv_hw5B5bu8lK-10" style="edgeStyle=none;rounded=0;orthogonalLoop=1;jettySize=auto;html=1;strokeWidth=3;fontColor=#212121;fontStyle=1;entryX=0;entryY=0.75;entryDx=0;entryDy=0;shadow=1;fontSize=20;" parent="1" source="Ln0wYWGK2Pg7mDHhLt9o-35" target="Nti4WjDRyjgu_Wvz6jyu-4" edge="1">
          <mxGeometry relative="1" as="geometry">
            <mxPoint x="951" y="492.3833333333332" as="targetPoint" />
          </mxGeometry>
        </mxCell>
        <mxCell id="Ln0wYWGK2Pg7mDHhLt9o-35" value="swarm集群" style="points=[[0,0],[0.25,0],[0.5,0],[0.75,0],[1,0],[1,0.25],[1,0.5],[1,0.75],[1,1],[0.75,1],[0.5,1],[0.25,1],[0,1],[0,0.75],[0,0.5],[0,0.25]];outlineConnect=0;html=1;whiteSpace=wrap;fontSize=20;fontStyle=1;shape=mxgraph.aws4.group;grIcon=mxgraph.aws4.group_on_premise;strokeColor=#d6b656;fillColor=#fff2cc;verticalAlign=top;align=left;spacingLeft=30;dashed=0;shadow=1;" parent="1" vertex="1">
          <mxGeometry x="408" y="435.5" width="494" height="228.5" as="geometry" />
        </mxCell>
        <mxCell id="SCVMTBWpLvtzJIhz15lM-1" value="" style="line;strokeWidth=2;html=1;fontSize=20;fontStyle=1" parent="1" vertex="1">
          <mxGeometry x="52.5" y="139.5" width="1060" height="10" as="geometry" />
        </mxCell>
        <mxCell id="Ln0wYWGK2Pg7mDHhLt9o-12" value="" style="edgeStyle=none;rounded=0;orthogonalLoop=1;jettySize=auto;html=1;fontStyle=1;strokeWidth=2;shadow=1;fontSize=20;" parent="1" source="Ln0wYWGK2Pg7mDHhLt9o-3" target="Ln0wYWGK2Pg7mDHhLt9o-11" edge="1">
          <mxGeometry relative="1" as="geometry" />
        </mxCell>
        <mxCell id="Ln0wYWGK2Pg7mDHhLt9o-3" value="互联网" style="outlineConnect=0;fontColor=#232F3E;gradientColor=none;fillColor=#232F3E;strokeColor=none;dashed=0;verticalLabelPosition=bottom;verticalAlign=top;align=center;html=1;fontSize=20;fontStyle=1;aspect=fixed;pointerEvents=1;shape=mxgraph.aws4.internet;shadow=1;sketch=0;" parent="1" vertex="1">
          <mxGeometry x="130" y="327" width="141.38" height="87" as="geometry" />
        </mxCell>
        <mxCell id="Ln0wYWGK2Pg7mDHhLt9o-13" style="edgeStyle=none;rounded=0;orthogonalLoop=1;jettySize=auto;html=1;fontStyle=1;fontSize=20;" parent="1" source="Ln0wYWGK2Pg7mDHhLt9o-10" target="Ln0wYWGK2Pg7mDHhLt9o-3" edge="1">
          <mxGeometry relative="1" as="geometry" />
        </mxCell>
        <mxCell id="1yn95lNJv_hw5B5bu8lK-8" style="edgeStyle=none;rounded=0;orthogonalLoop=1;jettySize=auto;html=1;fontColor=#212121;strokeWidth=2;fontStyle=1;shadow=1;fontSize=20;" parent="1" source="Ln0wYWGK2Pg7mDHhLt9o-10" target="Ln0wYWGK2Pg7mDHhLt9o-3" edge="1">
          <mxGeometry relative="1" as="geometry" />
        </mxCell>
        <mxCell id="Ln0wYWGK2Pg7mDHhLt9o-10" value="PC，APP，设备" style="outlineConnect=0;gradientColor=none;fontColor=#545B64;strokeColor=none;fillColor=#879196;dashed=0;verticalLabelPosition=bottom;verticalAlign=top;align=center;html=1;fontSize=20;fontStyle=1;aspect=fixed;shape=mxgraph.aws4.illustration_devices;pointerEvents=1;shadow=1;sketch=0;" parent="1" vertex="1">
          <mxGeometry x="100" y="435.5" width="60.27" height="44" as="geometry" />
        </mxCell>
        <mxCell id="Ln0wYWGK2Pg7mDHhLt9o-16" value="" style="edgeStyle=none;rounded=0;orthogonalLoop=1;jettySize=auto;html=1;shape=link;fontStyle=1;exitX=0.5;exitY=1;exitDx=0;exitDy=0;fontSize=20;shadow=1;" parent="1" source="a6vqPckB2kI22RjsVBpU-12" target="a6vqPckB2kI22RjsVBpU-14" edge="1">
          <mxGeometry relative="1" as="geometry">
            <mxPoint x="711.5" y="317.5" as="sourcePoint" />
            <mxPoint x="743" y="337" as="targetPoint" />
          </mxGeometry>
        </mxCell>
        <mxCell id="Ln0wYWGK2Pg7mDHhLt9o-27" style="edgeStyle=none;shape=link;rounded=0;orthogonalLoop=1;jettySize=auto;html=1;exitX=1;exitY=1;exitDx=0;exitDy=0;fontStyle=1;fontSize=20;" parent="1" source="Ln0wYWGK2Pg7mDHhLt9o-11" target="Ln0wYWGK2Pg7mDHhLt9o-11" edge="1">
          <mxGeometry relative="1" as="geometry" />
        </mxCell>
        <mxCell id="Ln0wYWGK2Pg7mDHhLt9o-38" value="。。。" style="text;html=1;strokeColor=none;fillColor=none;align=center;verticalAlign=middle;whiteSpace=wrap;rounded=0;fontStyle=1;fontSize=20;fontFamily=Tahoma;shadow=1;" parent="1" vertex="1">
          <mxGeometry x="792" y="593" width="40" height="20" as="geometry" />
        </mxCell>
        <mxCell id="Ln0wYWGK2Pg7mDHhLt9o-40" value="" style="endArrow=classic;startArrow=classic;html=1;fontFamily=Tahoma;fontSize=20;entryX=0.5;entryY=1;entryDx=0;entryDy=0;fontStyle=1;strokeWidth=3;shadow=1;" parent="1" source="Ln0wYWGK2Pg7mDHhLt9o-35" target="Ln0wYWGK2Pg7mDHhLt9o-24" edge="1">
          <mxGeometry width="50" height="50" relative="1" as="geometry">
            <mxPoint x="736.5" y="432" as="sourcePoint" />
            <mxPoint x="786.5" y="382" as="targetPoint" />
          </mxGeometry>
        </mxCell>
        <mxCell id="1yn95lNJv_hw5B5bu8lK-5" style="rounded=0;orthogonalLoop=1;jettySize=auto;html=1;entryX=0;entryY=0.5;entryDx=0;entryDy=0;fontColor=#212121;fontStyle=1;strokeWidth=3;shadow=1;fontSize=20;" parent="1" source="1yn95lNJv_hw5B5bu8lK-7" target="Ln0wYWGK2Pg7mDHhLt9o-24" edge="1">
          <mxGeometry relative="1" as="geometry">
            <mxPoint x="428.9987863322335" y="380.92620610495896" as="sourcePoint" />
          </mxGeometry>
        </mxCell>
        <mxCell id="9Y72CjgM9rdpncZ68y70-1" value="mqtt" style="edgeLabel;html=1;align=center;verticalAlign=middle;resizable=0;points=[];fontStyle=1;fontSize=20;" parent="1yn95lNJv_hw5B5bu8lK-5" vertex="1" connectable="0">
          <mxGeometry x="0.2238" y="-5" relative="1" as="geometry">
            <mxPoint x="-22" as="offset" />
          </mxGeometry>
        </mxCell>
        <mxCell id="MNj4Q5Tv23RKPfTUr8Oh-10" style="rounded=0;orthogonalLoop=1;jettySize=auto;html=1;entryX=0;entryY=0.25;entryDx=0;entryDy=0;strokeWidth=3;fontStyle=1;shadow=1;sketch=0;fontSize=20;" parent="1" source="1yn95lNJv_hw5B5bu8lK-7" target="Ln0wYWGK2Pg7mDHhLt9o-35" edge="1">
          <mxGeometry relative="1" as="geometry" />
        </mxCell>
        <mxCell id="MNj4Q5Tv23RKPfTUr8Oh-11" value="tcp, websocket" style="edgeLabel;html=1;align=center;verticalAlign=middle;resizable=0;points=[];fontStyle=1;fontSize=20;" parent="MNj4Q5Tv23RKPfTUr8Oh-10" vertex="1" connectable="0">
          <mxGeometry x="0.1855" y="-1" relative="1" as="geometry">
            <mxPoint x="-20" y="-12" as="offset" />
          </mxGeometry>
        </mxCell>
        <mxCell id="1yn95lNJv_hw5B5bu8lK-7" value="负载均衡CLB" style="outlineConnect=0;dashed=0;verticalLabelPosition=middle;verticalAlign=bottom;align=center;html=1;whiteSpace=wrap;fontSize=18;fontStyle=1;spacing=3;shape=mxgraph.aws4.productIcon;prIcon=mxgraph.aws4.network_load_balancer;fillColor=#b1ddf0;strokeColor=#10739e;fontColor=#FFFFFF;shadow=1;" parent="1" vertex="1">
          <mxGeometry x="296.5" y="261" width="126" height="139" as="geometry" />
        </mxCell>
        <mxCell id="1yn95lNJv_hw5B5bu8lK-12" value="" style="edgeStyle=none;rounded=0;orthogonalLoop=1;jettySize=auto;html=1;strokeWidth=3;fontColor=#FFFFFF;entryX=0;entryY=0.5;entryDx=0;entryDy=0;fontStyle=1;exitX=1;exitY=0.5;exitDx=0;exitDy=0;sketch=0;shadow=1;fontSize=20;" parent="1" source="Nti4WjDRyjgu_Wvz6jyu-10" target="Ln0wYWGK2Pg7mDHhLt9o-35" edge="1">
          <mxGeometry relative="1" as="geometry">
            <mxPoint x="396" y="552" as="sourcePoint" />
          </mxGeometry>
        </mxCell>
        <mxCell id="MNj4Q5Tv23RKPfTUr8Oh-12" value="http" style="edgeLabel;html=1;align=center;verticalAlign=middle;resizable=0;points=[];fontStyle=1;fontSize=20;" parent="1yn95lNJv_hw5B5bu8lK-12" vertex="1" connectable="0">
          <mxGeometry x="-0.3027" y="-3" relative="1" as="geometry">
            <mxPoint y="-6" as="offset" />
          </mxGeometry>
        </mxCell>
        <mxCell id="1yn95lNJv_hw5B5bu8lK-14" value="&lt;font color=&quot;#000000&quot; style=&quot;font-size: 20px;&quot;&gt;redis&lt;/font&gt;" style="outlineConnect=0;dashed=0;verticalLabelPosition=bottom;verticalAlign=top;align=center;html=1;shape=mxgraph.aws3.redis;fillColor=#2E73B8;gradientColor=none;fontColor=#FFFFFF;fontStyle=1;shadow=1;fontSize=20;" parent="1" vertex="1">
          <mxGeometry x="963" y="664" width="51" height="58.25" as="geometry" />
        </mxCell>
        <mxCell id="1yn95lNJv_hw5B5bu8lK-15" style="rounded=0;orthogonalLoop=1;jettySize=auto;html=1;fontColor=#212121;fontStyle=1;strokeWidth=3;exitX=1;exitY=0.75;exitDx=0;exitDy=0;entryX=0.5;entryY=0;entryDx=0;entryDy=0;entryPerimeter=0;shadow=1;fontSize=20;" parent="1" source="Ln0wYWGK2Pg7mDHhLt9o-35" target="1yn95lNJv_hw5B5bu8lK-14" edge="1">
          <mxGeometry relative="1" as="geometry">
            <mxPoint x="849" y="862.7073170731708" as="sourcePoint" />
            <mxPoint x="872" y="696" as="targetPoint" />
          </mxGeometry>
        </mxCell>
        <mxCell id="1yn95lNJv_hw5B5bu8lK-18" value="mongodb" style="dashed=0;outlineConnect=0;html=1;align=center;labelPosition=center;verticalLabelPosition=bottom;verticalAlign=top;shape=mxgraph.webicons.mongodb;gradientColor=#DFDEDE;fontColor=#33001A;fontStyle=1;shadow=1;fontSize=20;" parent="1" vertex="1">
          <mxGeometry x="648" y="698" width="60.5" height="50.25" as="geometry" />
        </mxCell>
        <mxCell id="Nti4WjDRyjgu_Wvz6jyu-1" value="kafka" style="points=[[0,0,0],[0.25,0,0],[0.5,0,0],[0.75,0,0],[1,0,0],[0,1,0],[0.25,1,0],[0.5,1,0],[0.75,1,0],[1,1,0],[0,0.25,0],[0,0.5,0],[0,0.75,0],[1,0.25,0],[1,0.5,0],[1,0.75,0]];outlineConnect=0;fontColor=#232F3E;gradientColor=#945DF2;gradientDirection=north;fillColor=#5A30B5;strokeColor=#ffffff;dashed=0;verticalLabelPosition=bottom;verticalAlign=top;align=center;html=1;fontSize=20;fontStyle=1;aspect=fixed;shape=mxgraph.aws4.resourceIcon;resIcon=mxgraph.aws4.managed_streaming_for_kafka;rounded=0;shadow=1;glass=1;" parent="1" vertex="1">
          <mxGeometry x="978" y="495" width="49" height="49" as="geometry" />
        </mxCell>
        <mxCell id="Nti4WjDRyjgu_Wvz6jyu-2" value="elk" style="outlineConnect=0;dashed=0;verticalLabelPosition=bottom;verticalAlign=top;align=center;html=1;shape=mxgraph.aws3.elasticsearch_service;fillColor=#F58534;gradientColor=none;rounded=0;shadow=1;glass=1;fontStyle=1;fontSize=20;" parent="1" vertex="1">
          <mxGeometry x="1002.9999999999999" y="583.25" width="50" height="56" as="geometry" />
        </mxCell>
        <mxCell id="Nti4WjDRyjgu_Wvz6jyu-3" value="" style="shape=image;verticalLabelPosition=bottom;labelBackgroundColor=#ffffff;verticalAlign=top;aspect=fixed;imageAspect=0;image=data:image/png,iVBORw0KGgoAAAANSUhEUgAAALEAAAAtCAYAAADhjYr9AAALvklEQVR4Ae2dXYxdVRXH1xhG02nCh61Y0orTGEb8wLaatMGQaIPyVAMYPxJiQvHF4Iut+EQ01oQQDUHKE/rkEBMf8ME28qIRC0kjyoMdaPiwFTtIK0pbaFGmiTUZ8ztn/vfu2Xfvc/a5c89lTrNXcuacs/faa3+c/1577bXOuTOxuLi4aJnyCHR4BN7V4bbnpucRKEYggzgDofMjkEHc+UeYO5BBnDHQ+RHIIO78I8wdyCDOGOj8CGQQd/4R5g5kEGcMdH4ELhvowRP7zZ492E9ec6XZVx4yWzfdT9PVr/eZHX9KdyXPru+Heftc1VfInJgI83xgqxntmflMOH9UqX+YNXvjFbMb7xy+L+oH4zEMPfMLs5PP9Ut+8Yf96yGvnj/+0rKSH7vu+mX3TW6OnXjZLv7vYq9Iiqz5k3+3U/96zc69dd7evrBQlL163Xp733vX2/Sma23tmqmevCYXgyBm8C+cXy5j0xazL+xbnsbd4z8YTIP35j2D6akpIZmhsp/ebbbSCROSS9rTs2bHnionS2jyxsq56erHsCBG1m9+VEr8/HdcyUNf+yC+8vIrbOP7r2ksDwDOvXh0WbkqEAPaZ577cwHeZYXM7PWzZ4qDtm376A123fSHfJba+0EQ+wCuFeExLJzzEoa8dbXg2XkzDghwQWjLuQNmX37IDEBnajwCaMVhQHzqn68l1wWAD/3psF28WGpttC7alwkkjYyGho68cNT+s7BQgDm5AjMbBHGT0m3yAsyZz4ZrAMCP7TFjwjx6lxlmBselRju+Vt8jxoDJ3GAiA1wAzDEMzZ8qQScgxmSgsQXgqTVTdtOndhTgFb8m0LaP3FDwAerj8y8XIFeeeKvO3dzY8cDunzdbc0XZt1/urepjN/O232H29Z+Xx5ceCPeB1em+baX5E+YIpgogaEeA04QApsqgVato7oWjhQaevGxyAMBuucnJSdu54yYD6BDlmlA3QUwPp9hw7i/7+pcnS63cpOeXAq9rZjXoD2BBi0Inlpby1OKnz54pWAGmJkOoLECXpsdeVn0hXtIA8vZPfLLIZqKwcUyl7oKYHn7YMTdOzqX2OfOZFR4BBuIfDU0KAXPjhuoNoSYHYN+86dqkMZetDLNMlpSC3QbxsJ6DlJG5xHkELNc8qOsy5kcPxDVejR7fhmsKLVsnW/nS7mhy2pZCq3djl9L6VxO1L3yu7xvZW25tthlEBp6RC+dKX/XWW5v7kI892feuMAFpA2ZRjE4vLanvWWt2+YaSi43cyWfL61eXzniU5LWRLPYLFZtdlnfMioULC4VJgXurjgRMmRK4x0IE+JALXV1jN/vlXTsbIKf4jrsNYkAh2hTwTpA/e1ffPSdezvjDAdLdv6p82IUH5Ce3m2F3u4R3BH84gaA6YgI8cvtgOwDwrn1mN38rLGH/LWZn/mb2gONFwGx6cOdyfuQ/6JhW5BIQusdr8/JShU2LNwCTogmI60yJtxf6GlSbNa/q6C0mhQgQSzMrLXROA7F8tK4EBi5EaKpxEBrpiYfLmgiw+BoNAOthr/ug2Y27Sxv6zLwZQMBNR79+vNPsu0fiWhVwoPmQAWgBPi6tpx81I7qJDCZCjFQH7QVYtIO2Uj+rQ+EqfDMcTArJdCOW0sohrVuhhSUWkwIQozk5qrReE1Pi9Bt9DX3V0gZSdaac0fREAwFxCqWBmAfGg3SB4msm1QawWNpcXuW5Zx7GnT+r53PL6JqHB/g0ub665KVQPufZpQAIAEcjqT0zS0xowPu2mp19pdTKu2fd0uU1QKPfBF7c/K23mXGgXQE0YI5FKZFBe9HYLg/lKffY3jLyySY15hd3WwY4pWE1Ud00l7fm2jUpCGDMbI5Hy153gJmiHVU1XoemRLuYCP9dCpDUlU8DMVJimjdUQyovy2jKg1MdPLS5g6VfFGBATARfBvUDTohwuQBcppR/SQPIBEt8e1J8aEomgQtg5QFC2s+k5XABKh7Ov3+4tH1D+aQxCaifMPW3PZPAldPSNYBEG+MNqAKx7OEmAG6pyQNi00E8ULTlBDQUQAOsoUnB0gxAfQDTLJb8ew6VDQzZymo6QATE0uhK15m6mSQxAoQAmPKAEXk+ISM0CcSHDEDMyoYc2j5Gkkkhb0DMpFCoOQXEsQ1fW91avS42gMuDDQGYiB3ACAGYkQL85HGEtLBGsyoPHuzgEDBVHsChqSFWiRDVeSBc+TETLSR3RGkyKRAnoPqi0cJ6Yy0FxO8ewoTw62xyv3pBjA2JNtWBRmT5ZhODnUm4lXObFJskbp0KuIQmG3zKd8v413q1NLYi+PwjvhcwYwEG15RIsXGZGOOkdswJ31sQszmrespmxQWRuyF75LZyCW775Z+UpZ0NKhR7+y/BS9Abhpg27zG0c+GaFHghfKBKQwvs7bSiL1Vav59SfTV6EPs7eerXLry6LWm5mAB3HzC7d7oEDrKrbE6kFjbrwdK1xjVaUxvDqlqbADCmiavkK496hpnoKr/Cs0wKAhRoXV5QF2HfClTDgDg0KSQ7dpZrLdUsGT2IQ9qrCRhiPXPTATJ2MZsqPxLn8gFYNohsukLEiqHoVyi/zmamTB1P1cZSdUqb6/4dOBNk0JcXLohlShBJ8zV0rJlu1O3Nt84Xr1bGeP10QC9KNUtWr02snsTOBA2gmPcCzYjdDICxo/nCgqDGTxf7x/ciARvVmaKt63hSXkxaiRZXW1d4lpYtNnEOkARi5adUs3aq/5mRtGpKOXhcf7Q7GarKdxfErnb3bUmARTCEM9qWd49xx7llqkZFeU3Apc2ZyjY5K8oZWsWayFkBLyAlUgYJuABQ70DUhZrdqnHTKdx87t9pUTeVd91zbgha+aHz6EHMh6O+dmrLiyDg+GBD+6oN3zwQX/L9chohLe8Cl9JDZ8lQGfHI9UaYu47klXgHQUwTBVSBWK9TsqzH/Mexrklz+5o9xq901Z2qhSk3ehDj69x7ldk3JvoHYes2SN4L364VKABSFTD4IDRE0tgpmy2tAr4rTfXWmRNMAkUXfRmhtrWYJuBpSRegpjf2N3qp1Sv6h42ryVBXlhfhpfmrPjz15YwexH4Nbd4LbABBmtetL+b2ggegxyaXAhAFwCo0KSuM6lAZ1a976gi1TXx4VyDsdk1K5Y35LJMC4PH1sQAlDd2kOWhubRD5MrrONib/+b+WPymAFo6ZEvBhcjDBOLMZvTRAzOi6Gk8eA4Cq5d59AqTz8k4MXEwOmQN4N0KEXH3b536ZLV5ADDCp4/HAzx3AhxbXRAr9JIJkxc7yfLBixPoSKxtJF2CPzZfvMg9jSkg0H4DKNv7t4UPFOxqu9wE+7gGiPijFLt++pfxMSXLcM+0B4PBxxvsxehebW2Pb1yzZhIZZjjFjpMnwXAh8bPC4B5gCtVxueCz0+xB+W3kzjlc54QXw7g/IoIEBMMABqCEAMpF4LwL5uAJtovSQkE45wCtwM2HgbUrIUv/pJ6+Eyoyhr7puIBdtDKgENpkYDUT0WHHJ8YXzoT8eLnzNfJLP4WpZdyNHwY/PXF+836w32PBR878MYu8740seBDEPRUtkrzmr+AJtBIhdjcvDJUxNRA/AaMl2uwGAAV8MxEwIyQDIAr4rAwAReImBBfmACcDShlA72JwiY1jiY1kmGf2/d3NfCnL1ymY/tfaqZ1Is/brPSkBMZWjOXTtvsSMvHi0mB2k+cN1GAXKf6jZ5gyAm+uUCwpc4qnuAJs3pytQv5sSA4fJy/bk9pZb1+QmGrJ82+53zs1xoPDZPaD3xqz5fLvfIgJ+vQACjNnoABO1Ofh0xnvDRDmSwCZX9S7ps55Ccqjzxw3P/ibKNmCfaJKp/4jMzbZZcP66T3btE6+n7NkAYI+RIZoyHdDQyXzJjXrBprLOPfVkhz4j6AMAn8j+e8Ycs33dtBLq9sevaaOf2tjICGcStDGsWOs4RyCAe52jnuloZgQziVoY1Cx3nCGQQj3O0c12tjEAGcSvDmoWOcwQyiMc52rmuVkbg/5KFfhe+icpRAAAAAElFTkSuQmCC;fontStyle=1;fontSize=20;" parent="1" vertex="1">
          <mxGeometry x="960" y="451" width="78.66" height="20" as="geometry" />
        </mxCell>
        <mxCell id="Nti4WjDRyjgu_Wvz6jyu-4" value="" style="shape=image;verticalLabelPosition=bottom;labelBackgroundColor=#ffffff;verticalAlign=top;aspect=fixed;imageAspect=0;image=data:image/png,iVBORw0KGgoAAAANSUhEUgAAAGQAAAApCAYAAADDJIzmAAAIHElEQVR4Ae1aC0xURxQ9u7DA8seyWJbWUilEhRItCn5aXTW18RejBlExRUujDdomGmsT08aatpo0wU8IjTXWWNNY1ESRxqaFGq2NAaI0aADlI8EP8lNYYVkExG3u0Hm8fW9lHywka/tuMpmZO/feee+eN3dm7q7GZrPZoJLbeEDrNk+iPgjzgAqIm30IKiAqIG7mATd7HHWFqIC4mQfc7HE8h/s8fW0WPDN3gmqPEH9og3yhDfSFxtNjuCZVPQBDAqSrsBLWy2Ww5BY7dJ7HmAD4LUqA/6IE6F4f61BGZQ7uAY2Si2F32R2Yv/8dT67VDG6Nj3p6IDB5FkI+WcI5aq3QA04Bac/5C+ZDv8HW3avQ5ICY9+TXYfhmHWjlqKTMA4OGLPORAjz+oUCZJQdSfc2PQUUFRO6cc+fO4e7duygsLMSJEycEgeeuEAKCAJGSd+w4+C2kPSKM7RNaHy+2sdPmbr1UhvafLjEVrZ8PDN+mweetKKkJxf0LFy6why0tLcW9e/dgsVgwfvx4VoxGI8LDw7Fr1y7F9txJcO7cubh0qd9X4nSiwxXSfaPOIRh+701B6JdrZO/lqR8DT+MYEFg+U99Ax8+XEZA8yyUwTp48idWrV8vmKi8vBxWirKws2fiLznAISPvpK7L3Csv8APqZE2R8KUOfFAPvuHGgFcKp5bMfYb1cjlcLdkPrr+fs59bd3d3YuXOn3XhycjJiY2Nx69YtVFZWshIaGmon81/oyADpKqqE9Y/rdu/mvyxJERhcSQwG8XTRRvh0dCkCg+Tv37+P2tpabg7iJS0w/6MNWepEerTVBvshKG2eS68f/OG7GPvdR4pt0H7ByWQy8abTevfu3Vi+fDlCQkIQFxeHDRs24OjRo3Z6FLcpflMh6uzsxKlTp5CWlgZacVOmTMHp06ftdI4dO4bFixcjOjoaGo2G2V61ahW2bdsmyHGb3C4fEM8nHeMydjXdQ8T0IO2ArW76p0Jp/vwn8bDQ7iqpsT386qStMeOQrT3nL4EvbpCM+Ui+ra/Dauv8s8zWvOMYa4tlHLUvXrxIP5qxYjKZHInIeEajUdDhurxeu3atIC+2HRUV5VAnODjY1t7eznTE8twerw0Gg2CX86gWk1hf/C7U5jpieVnI6qmstwNM94o8Tj9taEPT5u8FuSd/30ZfRxdoJYjJcv4aOn8tgX52LKx/lrF9JKihDV7RzvcRsR1nbfpSHzx4wMRiYmIwc+ZM1r9+/TqamprYSW3NmjVYssT+onr79m3BNK3Eq1evshVjNptRUlIC4tHhgtPChQuRlJSExsZGNDc3o7W1lQ+NWC0DRGpZF/WylMXSJ1Jm99/0cvaABH+4AP6Lp8Ir2ojQL1IQuPod1pbqutKvr6/H/v37BRNnz57FpEmTWJ9CD4UWovPnz8sAmTZtGjIyMrBy5UoEBARg+/btyMzMFGxRgw4RnHbs2MFA4v3RqGV7iHQSjYdTEamKXb+3uoH1aVU9szyxGxuJTnV1tWCGvmgOBjHpZMZJ7FjOo31h/fr1DAziEShSSkhIEFgHDx7E4cOH0dHRIfBGuiHztjbQPpz03mmRzek7Ow5a/4FjLQno58TK5MxH8tF6IA8U0toO5KEp4xB6qvtDi0zYTRliQHJzc7Fp0yZMnDgRW7ZsQU2NwtzeEN5NFrL0iTHoFB17e+uaZOY8w0MQfnwraI8g8ooxwne2HBAKWTTGb+t0/KXw9SIR7T10Lzpz5gxLczx8+BAUJrOzs1kZ6SO5bIV4vxlp5y9Kh9AXLiUChTZxKo7AIHmSCUx5h6kSKNJNX2rTXfsU1vLy8nDjxg3k5OTYhUKe/hipZ5cDMjkSGh+dYJ+yvK3784T+cBp0Imv4IAu9d+Xhz5G9yMiBj8LZC0tlKyoqBJPi+wTlwFwlyp2lpKSwjMFgthoa+vfN/Px80L4zFJKFLK+YCAStM9nlsnprGlhf6RfeZ+6ER7Cf6DlseGa2QKOTTSeSGWiSk+fPnw9KLhLRZYxfEClkPHr0CFQfP36c5bto8+bOp4uh+NjLrc6bN7zL7ebNm5ltStvQgcFqtaKuro6bZZdF6sTHx7MVRG2aXywjCCtoOPRQYKqJ3Rl6qgY2YMr+9pTdQcjWZdC9Zniu6Y7cIlgLShH4/jxQXotobLbyWzo3vGfPHnZMbWnpX1WOVgqBQkQ37YiICHb3qKqqAhUxLViwAKmpqWKW4jY5lp6B5pc+w9KlS9m8ZGzFihUCIFIwDAYDs6FkUoeAUMgKSn8XlBQUU1dxFbrTs+BrioNX7DjoE6Oh0XuBVhCdxqxXbuJJcb8zeqoaEJa5Ad7xA+FHbMtZOzExkW2i+/btQ1FRkcP0O60UTrTRUuqEUvXkOAKI7hkzZszAxo0buRir+WqzY/7bkY6lp6djzpw5uHnzJoqLi9mXTymU6dOnY+/evYIJ+hmAstAFBQWYMGECS7XQsZpSMbTKxKGUK0nnIv5zfw+hQfq1sO3gL1x/yLXnq6EwfL2OnbSGrPw/VZBt6mI/0M16bPYmMWtIbZ/4SOjGq392GIrTBl0h3FBfy2O07jvHfhHkvMFqOu6GfLwEvnPfHExMHXPgAUWAcL3e2kZYL1egq/AWemub8MzSxYfgGfESdJFhrASuehseYUHCmNpQ7oEhASI1+7T+EfoeWxkIWl9v6bDaH4YHXAJkGPOpKk48MOim7kRXHR4FD6iAjIJTXTGpAuKK90ZBVwVkFJzqikkVEFe8Nwq6KiCj4FRXTKqAuOK9UdD9B+bJ2djGz+rBAAAAAElFTkSuQmCC;fontStyle=1;sketch=1;fontSize=20;" parent="1" vertex="1">
          <mxGeometry x="936.32" y="406" width="92.68" height="38" as="geometry" />
        </mxCell>
        <mxCell id="Nti4WjDRyjgu_Wvz6jyu-8" value="" style="edgeStyle=none;rounded=0;orthogonalLoop=1;jettySize=auto;html=1;shape=link;fontStyle=1;fontSize=20;shadow=1;" parent="1" source="a6vqPckB2kI22RjsVBpU-12" target="a6vqPckB2kI22RjsVBpU-13" edge="1">
          <mxGeometry relative="1" as="geometry">
            <mxPoint x="730.8499999999999" y="293" as="sourcePoint" />
            <mxPoint x="781" y="293" as="targetPoint" />
          </mxGeometry>
        </mxCell>
        <mxCell id="Nti4WjDRyjgu_Wvz6jyu-9" value="" style="edgeStyle=none;rounded=0;orthogonalLoop=1;jettySize=auto;html=1;shape=link;fontStyle=1;fontSize=20;shadow=1;exitX=0.5;exitY=1;exitDx=0;exitDy=0;entryX=1;entryY=0.25;entryDx=0;entryDy=0;" parent="1" source="a6vqPckB2kI22RjsVBpU-13" target="a6vqPckB2kI22RjsVBpU-14" edge="1">
          <mxGeometry relative="1" as="geometry">
            <mxPoint x="787.1737719298244" y="316.5" as="sourcePoint" />
            <mxPoint x="779.2185964912278" y="328" as="targetPoint" />
          </mxGeometry>
        </mxCell>
        <mxCell id="Nti4WjDRyjgu_Wvz6jyu-10" value="nginx" style="shape=image;html=1;verticalAlign=top;verticalLabelPosition=bottom;labelBackgroundColor=#ffffff;imageAspect=0;aspect=fixed;image=https://cdn4.iconfinder.com/data/icons/logos-brands-5/24/nginx-128.png;fontStyle=1;sketch=0;fontSize=20;" parent="1" vertex="1">
          <mxGeometry x="346" y="516.25" width="67" height="67" as="geometry" />
        </mxCell>
        <mxCell id="Nti4WjDRyjgu_Wvz6jyu-11" value="操作机" style="shape=image;verticalLabelPosition=bottom;labelBackgroundColor=#ffffff;verticalAlign=top;aspect=fixed;imageAspect=0;image=data:image/png,iVBORw0KGgoAAAANSUhEUgAAAI8AAACCCAYAAAB//ZtNAAAgAElEQVR4Ae29+ZNlyXXf973be6/23qYHPUvPgtlBwgNiJTCEKBEkBNBBS0GZZJAEHQ6bpkRG+BfzJ/8B/sUORzgcVki06ZBCtLhKtCFCDJBAUDT2ldiJGWB6lp6le6q7uva33M3xOefme/dVvaququ7B4tDtfnW3vLmc/ObJkydPnox2dnbqKIpUlqXCkee5sixTHMfhkQhzu4+6rhV+xB3yUFWVpc27vXlIkuRYeaklRfxpjppiNOlWVakoTkR6dVUpTVPFUaRatUR560j8syOq7FSH+ya+yckTGYefvJi6apeXa2hNmSg7NG7/eM+7Ng2mIjvmDfFxUN5wkO7eNI5a12kISAa5JgGIGJ6Hc0jsdp+t4lpEKorCkggFDQQ8aT4ADoAJ+Im5qAGIFCUOFuI2cnKODV0E8nyELxsE+mlGQ6qbhjb1KqQ6oRrlocICvS3tqhqDJjQcKpTjpOWepDi5CnFx5kde2vmYhDzaVRqCtSMGPEQcnoUwt/NM/BAKQsLl2mlxHQoVChjOx80DYCkiqYokrh08tahrQGX3ipTGqYVx/gtZ4D6kFgDglcl9XAO1vTym4Uw14RyAdTTNp9plpnwcnANguN9L+zZd7IPb8CfEyTmA9CTRRru7u4E6J/n+xN8E4BBBIF4g6Gg0Uq/XmwLUSROq4TJRaV0RXINqjZQ6N4oqe25vIWQdKa1iifBGFevA/Js4sWdVVMpjk1Lr1lLr4pyIhM8V17GqKBZRZaCx1T2HclNWflQgoAqNKNDgpOX9Xn435jzfy0RDWhAKwvGDiKFF0Ppu15HUpSrRLSUqFRnHyctCW0WlzbzSTh5pvaq1MSq0WdbaKmL1y0gjOFYjGyRxpLk61lwqLWaVllPpVJZoKam1kFVaTCOtxLF6IDPJFNMdwFlNwJqUhHIGcAAijnA/CfXDc3X7aumYZQ4tjjNgoeVxwEa5D0BqR+utmxqqFAG4sVwSq47i8T2PeTuoa+2UldYK6bVhqVf6la4Maq0PS60WtW7k0mZRaaeolRexRpWDpoylkq6udnAjRKeV4FdK40pZXGkuLtXNpOW01ulUOp9FuiOLdWE+0YW5SHd0Ip3qpFpIImWKRCcVJ5SzUBTHSsmjXUt1XNu7vR1hu+w/iNffN/BADAASQLKX+9yUWFGpCEEmclmkriuVirVVlOrn0lpZ63Je6dnNkb6xMdTzA2l1lGpjlGpYlhrFsUqTOxKpThQTVzhcEDJohj49HnORCcnKqBScLakrZZJ6UaVTHel8d1f3zVV6YmVRDy13dDecKo00l9VajBDSpSSWqhLuQ1cXG7iCrBSy8YN+/r7JPIEwgIYjgCg8n3WG28gkjlQFldB0eUVUalCXWh1JX70x1BfW+vrqZqVL/Z5uFKnKhDZdWyU732pkDaouQnKGL0z4WuAAPPGnFtDz2YjD3ADYiCG8DemM3dkIv0KdABfNSy2mIz04n+stS7Hefm5OT5ye04Wk0DwNR8hLiRTBiUaWR8vPrML/AD77voPnIJpYpYWas8pB8HX9S1LVqlRpJOnKUPrW5kifXu3rk9drrZZz2lasnG8ZZqmwURQCLC2cI4qCTov3E05yUF5u/hwO4jIMXAxeEsm5UqxUVRqrI2lRlc4lu3rPuY6eOtfRm5ZjXehFojwWDkZKlsh7W68WBn68+wE6fmDBE1WMWBhiI0xTMbniKjUhdLus9cKg1Kev5/rs9YGeHaS6mne1XZT2voSbWAVCabolOgRqxNHoKhmrISSR21AdbfBQw17LpYG9UmK4ihTVkZKo1lKW6Hw60kNzud52NtOPn8n0YC/RcgJHrIXMFZFvcldJSe0yWBPtbcjv7YniBxA8TnhkEIBjVR7BZwrdGEqX+tJX1+E0ub7WT3Q9j9VXZiOqOKoVV97uIY9rWag0B49xLl5YEp7OUcloUAt42/eR5dKfWtcKIMk/j+omfb+Gx9SmFijVjSqdTQu9abHST5xN9GMrme5biHW6kyhBX0TDQYFq4AFRpPP9O4JcGnLwgwWe1nRAHRVGuLKKNaik1Vz6i9cG+sjVvr61G2m96KpIE9e1jIXZUKzbf4Z5IEeDh9uWnGGBIX2ts/FQjy0W+vt39/T+M10buXUTF6xJM64S1bCh79MBcAJ4gnx6S+BBV9EeMd1yuVrgqaJcozjTal7rM6/t6F+8tKOnN+c1KDveNcWFqqRSXCOzHI+LnCSftx88xOicpLQRW6qkitRNB3p8ZUe/es+CfuLsos53EnXq6vsOHlQpoa6PDZ4wKoLwXBMZ4EEvwy9EeJKKQQNLqy5jWH2suKq0U9b60kahP3pxR19YT7RaZupHiL9gxbXBlpaxgQY8R2LrpWuXica6GCowmeoRAhTpNkPeYlo9gjrKPZvK8G7Fy4tE5V+hbTrS0eqByrjwyQ7roiIt1InOpn299VSpX7xvXm9dyrQYRyrSWInRyqBs3eLtkNj25rdd17wLdc01Orig2DzWUINI+QWOA2gCIrk+6YEsMjLdSqxBmetyv9LHXin1l9dGemaQaSNnOoHREsKz1WeL2xyxssgcYLFJUq+5sQxko2yXU6wMzQw6nAEFoQMIAZ7vI5VFpShrVJSWPPE1+TBp/Ch5moSJbD7MqQcsdupYu0VHG+u5XhoN9L4zhX7mQqp757uaQ4FJVkMXOkn5pOSf+V2oa86ABeaABUCoe+6PBR6AwkFkAUTc8zwkMDMnBzxsqtCGuXkUaX1U6rvbpf7vF/v66PVU62VPBXodKpD/dWQcqs1snPVPKmJvUuMG3hC7TfRQ4cBgoiPkCyY0GOUggFdupkEeKhdgjc9UhZSgc+bwb/wGvVGTiylOuDePBPJnQQEZPisTNOhMm3T1pe1al/qFXhj09Y/ujfXGhUQrnUipk2SS1t6Cn/A+gCbUNUwhPAMwbWZxqMzDR+EAcZhLEAFA4b6NQp4zO36zYxxliwNUtbSeS/9+ta9//eJQ39zsimGuc5tYdbArImA4zHQi3Ow5t4I5DPw9M1xxXSqOeOr/UqWKk9KAkUTMgPnQOksipXlpdj6CgHGtUZ1rBPelzVVdVUmkYVyrtBGec2Wpa9BzvJORkBmA0rAMsrMXS3uKwPgyrtA8I1eipsj05MKufum+rj54x7yWu67bRA0QMEqaJz3aAAl1HRhCAEw7bur6UM5DhAEkRER/t491NfNQ7cTbiey9ZtiZ26jTVXZFLV0elvq/XtjSn71W6IWqJ/T3BdzNKpkK956djotWz982KPamIet2vNLQDcHmuWMWPKsjzanWHd1cb5irdGFOupDFuqOb6sxcrKU01nyUKYsj+zESGuS5hhhuValNpN4oal0ZDLQ6rHR5FOvKINbaINZ21VWBTZCpliJlsLMYVSapN5kYd4mtbnJfAXgAa0HCo8RdVXGpL456eu3Slp7b7etXHjil+5CBGg0WZYS2t3JQhwEooa55BmMIzKFdz1OchxfhCBGFZ4CHH5HDgYKlYYiYcFzf7KjqRFVcKS5L9atITw8K/e7TO/r0Vqq1PNLQOBLdwYQvQz6IFJXO7QTnS1IbMzuY4FKAKvYpC7tOlFalUuU61Sl0V1bokYWOfmSlo7sWU53tRlqOKy3EUrcBCrrhqCpFN8JMeihbXhQqq0pZ1lFJ308DqGsVRaXtStospeu59MJWoW9u5Prubq6XykTrg0RVlMmVlkgzmICYBlBRjWg9TS+ob02DLpbJUuqjwMoRi8JYBSYe6IayQk8tFfqvHlrRo/OxGNIj9HdQrMYOuJvVQ3hPvfELTILnbY5DfQMkui+ec4S6HoOHB+0XcBgOIg2R2YPWMyI9CmDCd5xNaoqkjVGpL20W+oMXh/rr69I2CvwKVuwEJTdRM1NOV8MR0W0xKkNFkKYwduNByER+7YZa3STS6aTQxV6pBxcrPb6Y6JHFTHfPJTbbPZekJjNACn6UkfITL0fVmGbaTfOHMKHBjHuiZkqCr/JK2q5qXc9LXd6t9J2doZ7ZLnVpO9Nzg0Q3ykh5hXkIRmc+9zUNHQcO1QAHoWu1SqLIJfZFteqMBsV8mLQQD/RTpyr94sUFvWU51qk08enV0ObamT/gOtQ5dU09UkaO0Gi4tjwcIJJMgYeAIA2U7TUHJeIAFiInLPfHOWhVtUrt5pE+uVXqn393R1/eSDWyp4xmOjZJyEw1RCQdWl9SlVKaGHjIBz+0yWWKjEWBkQ1iLcYjLae5zWg/dS7TU2c6emAh02lYOprdRuub0Q3WtNDKKjKw6lBm4w8tC7/QeCw/BmjviFBk2iAximyilpwk0M/m1mqtV4We61f65LWhPnGt0PPDRP1hrK06U24TolY9DQmbUR13JRDD2hG+6uApq1JlB6Uo3blUJrl6Za0fX8z1G29c1NtOJVrsMk+Wugy0F5l7KirQkbrG+C4c1Cs/yhx+vCPc3mMMHiKDiHxAQO4D92l/NG597YcHXIdWVESJWfNFKjSIM/311aH+2aUdfWE71lAdJVVmLBlZJYWrVIkJsVQMXMBsGIAIcq0BsFZSFqrTjgnVSVTqbLKtd59J9LNvmNfbzszrzgyd0UiKXIiHllbRTV4DkQBMaBRc8wtgMZDG8T4z2f3F9Q6H5wi5yB90b0yxJBqpiCOtjiJ98dpQf/bqQJ++Uep6Pa8CLoSATjkJz/RKXapELIi7zm1q50BYJcr0apmqJFMJjTRSFO/q7YuFfuvBRf3U2Y5NwMLZOJicDSYr7TxTdspJY6Ds1HvgPjzjIMzN6trAE4ATwBMi5DmRACZ+XAfCtjNz0DXgQWakW6EN9Uel/np9qH/67S19s1hQv2QsARGQNowb++jC2KfLObCgvHS2CnFpdZg81HGqbjnSnd2R3n461j+4d0FvYnIxrdVNEnWYWoRIrVFZuzFSNghImSgv5/DjHc8oK0co+0HltOemP+AK7jqZwiAPWDBSpGFV6UZR6pv9SP/uxW19fiPWy8OsGVUWipmJb7qPvKCrjmx1Bys86iS22XcIQGM0ZSp5V6k0KfVouqX/7tHTes9paa5Do6L8KB/39w4AJdR1KBtlp9yBeVASgBTANKvsEUtv+IiDM5EGwoUISSBEEs6zItv7DCLaUVdaL6TPbJX6Z09v6qu7CxrWuYmLheYa6Lj8ITiNDacbNKEcLBuuSDeJbU4snYtKPbVS6O/c1dOblzPdm8XqZa41NtOqNlJCPkJ2GkJxS3kpN2XkxwFxaXU3I14TXXMKCY5L7Q2iuTVAoU9SpUEZ6ZWh9DcbuT5+pa/PrZe6UXVU26jSpwEQ0g08SaYq8gEEM+6Ah5EmWLVZeg0t1m4S6629XL/+cE/vWEl0OnXrSpeuPIuhcYR6peyUOTQe7ikz90c5LFQbECAvRBqIF85HiTCEcWK58LdTyITj//3Srr6wkwmjdONF1o8wwkGX4WwZ0tC/R6m3emFwBQegguNIvbTUQ51K7zsX6YN3L+ieXqaFhC6J6QOfsd4ziAlZmjpTTojIOTQeAgTiHb/ME9CEhAxONno0hmSjOLTJC0mth+ZjvaFT69H5jt54ZVd/tTrQi3lPW1gTIMFZvoipKZNF0YzU7NoBhD6M7nFYpPrcTik9t6PswQW9eznSHDQMSqAmU6F+LeamrgEL5Q2NJ+T/ZucxxCBk+JiWx/3xCbg/OfQ4Tw8q/cGLu/riRqxccy7CRGhbSptfgl3HUayyLlTVLMRr5rCKWgk3sdRJEy2lfb1zJdIvXJzX3znd01w08H7duozaVitYc9+fjaknlAvAhDJz35Z1oAPvbtdhDKPpymwlB4y+rrQQSY92a93/wLIeP1PoT1/c1mfXam1EC9a4YhOYyYd9YMNx79wnOSvVdQ7Hao060uc3aq1c7uvUw8t6MqmUttQnlJNWGsrNmV+bWUxivvnVWGC+edAjhiBDpmfB1CDR5VGl/+lbG/roeqLtKlJUzHslx0gCpY0s6NPhFlFZqiwHMqIhZNucQaROluqOaKRfuTfSB++Z18VeqgVE56Zp79WXHDGnU8ECWIzAU29u/aYdN6AFqAmtPWaerFQ5qrSTxno5r/Tnl3f0B5cLrWqpme9DWgQ88COE/4Yjz8iWGezHQy1HpT5waqT//vFTekMnVp1g1YgOzHVFMPxxJ9s0kpOU+7aDB2OsUVIpj6T+MNH/dmld//ZqqldHNvg0PQfFN7U7+hvmi+iWaGUoATH8qnJlECqKtZhUeqyb60MPz+mdpyOdSxJ1EzdfYIUDckAgxAx6HvsRFX0SQh4loQAczknmXQUKwKisbbUGSsC1stBn1iP93rcH+kbRsUlSlJZFjHk/HcXBpWU9mdM10l1poZ+/sKt//OBZLXZLZRV20gja0zG0gX2UMrTDjLut9sMTXTdcniEq2dsYVfrLqwN95EqptdyTKVFwNf0KrNzMFzCzYHicZKxNaUiTWKs8nYz01pVYv3RxUe86J82jCbYWxGRpamEPJuWJSnF84FBuk2tCN+ecwfJFqzZw1/RSprtC5oAGcJyU5c6MpNAKl6UQeu/MMr3/XKrlx2L9/kvb+vJGrGtFz1Z4eIkC29hfcqM8muu61louffhKrQfmd/SB8z2tdCMD6FgECrLYychkX90e8CAAN0NVOM6wKPTdrVK/90JfL1TzxnbHpDViU0zTApoVHfodFs6gFaFwWZRpsVPpHcuFfu3BFb1zpasObNs0zXSL/v1+8t0CJU7yaZCLGgARRSgn19AE8ZeH8Ed7ZytPGVECqFqxTY8zPiQEhl+JOon03jsyzXcX1bm0qb/eKHWj6NpQHs7BL8zET2fbTV+RIVm0eKWY079+odCDi7WeTCtTYRjAmo7Q8tiSiabjuvnd7QFPi2Roh5/vV/rjF7f19W0m9BgVsOwNvQMUdYGNS1gmLbFmWJmzDgtlYiJlQ733VKHffOCUfmQpU4bGmeZthu03L9T3LoTD16dH/DptAE4e3E6JOTiYE8rPQkWVq0ANUFRSMTLFJXou6NBuDL241jtPZVp4aEXJpS19eA2FKaqESUM9qJxof+j+Rxrpa7s9/clLOzr94IIenXeju6adH/T5kZ/fEngAABpVE+lY3x3V2q1ifexKqY/dmDeWzcK6abL4cJjhOhOGbq0Xq2OKL2m5U+vvnar0Tx5Z1sNdphUQjANZw/nI5TtCQOMH3vccIzRBAYRphk1Z1+i+ax/9QAsbJRXQJNJGWelGXmptIL2cF1quR3rrmY4uxFlj0TidOGtMs1o2L/dbjy+q+tsd/Ye1VJsFy5lZi4ZRGILwZLgwFqWNTPCyjkbxSH++1tF986Uu3l+omzLlg/abWsErSCj/dPpHubsl8NCiggBGfodxqi/dyPVX13KtF3RXaEkZKVCs6YoH/Y1IYEovhMVz8UjvWs71Gw8u6aFOrMxmlqe7gqMU6uhhmgq2D/bn8bB4+BKBvUCLXfqy5o1K2soHWh/Vuj4odGVQ6bVRobVhpY0qtt8ua+TrTG9dqHTfqUR3H1B3QTbpxZEeTlP95oNLKst1fWaj1GoJMJKp6ZbZeYVLxVovU3382khvOpPpPWdS9YyTu+b/Vqh7a+ABGhGyiOnwtFpV+sPnN/SdftcsAH1WHFlm/2E0oycCfYo1H1f6seVaH3pwSU8sJ8pKiIN8A/hmxbA/zllPqARLoomFdImtPUZrJBN7brIbcgVyAROQ9C61NCwrDavaTDCwr94FMHltRmzXR6WthX95WOl6v9JmEWmrTLRdRNqpOvadTVHYlIFUxKke6owaK4EgAE/nnsZF3uESvTjRE8uF/os3Lir/7lCf2Ky0ZVaVfBtKxPd76UTJUjNWe7of60+f39Aji2d0V4zJCeA51CpqOkMz7m4NPM2CPLK/W0T67I1NfWEj01rJsNyVe/Tns45xMbGnKWP9SDrUL19c0DtWMmVonGOfI3KuNSuGoz5r5ppQsQGkhre7gN/MtGMuETHfE6muYuVRZcb2OwIEka71c13ZLnR5d6SXB7WuDqUbZazdQaXtItZ2lGjIJIvNuI9L5pVp66/8mXXvpt9yzkHV0W3v7dYpmX0xHhFV6ijWO07NaftiotW/3dbf5AvWcNupzVr9WjXzcxtFpM9vdvSZa1v64NllzZuyB7PacWd3VIKOw90aeJpo4A3XSun/vLyr1eIO14ceUf8CGe9IBvrQYz2961ytnjWkaZKMc3uCC/zpEBsKMn5pLuVZYfIZTA3XcpdG0ssAY1TplUGtV3cqvbJTaXVQ68ao1m4daxglKuOOVZgp7chnjQlJYis64BS2rOp1XFuVqdZ7ztbafrSrl7+2o9fSzDx5TKSeQwhUJ1oddfV7L9/QO1YWdU/GWn9q7uTHCcBjVHMhj2UyZazreaG/uN7XtzdX1I8K4zqB/R+UNWJJ61pLaa5fuSe12eB5Jj0bw6/JdxMgeRtl3As38RbjA+CG9ZuCDzi2e3KEctau++LBa/lQd8apFm00FOlGLf0vT2/p69sdrStVn+6qcuMuBkS2HIiwjAxtpNPEHwVbAHgjnRwmDqxIJ7/kwCBrJ3JL78LvVkY6cOT5JNF7Tkf6tQdz/R+XS63BTXVznRccblRH+ubmov5ibVv/4HxP5zN6hdTyj+A/6whKxPCurUA9NnhMX0El1aVyNKXKdKlf6yOv5OpX8ypjZssJNTszIRNQcT7N9e7ThT54z5LOJpUpAMfvxxdURDgmsJhUgr/3NhSprGv1kU2KSht5pWvDWq8OKl0Z1lodRLo2GOi337SsOQynbIZaemUY6yU4DEZnqBLCFIDpcfzOl/0yF1SZUw1KzliQgxC14As2nx8yGzqf1n27LK3HR7xEBgMm57JYP3vPgr61ua1PbkRax+TJRqWzRQSiR76hO47yrv78lU09uZjr7HKKkUIDds7TdRaAw5n5L9QJplJogHZ88NSVTV66OqPSepXrb9YLfXOXVgdw/N9B9KD1GRHiUo90Cv3CvV1d7DIshevQPEMBJoR2qYUhJh4vEpX8atlKhiqPDCxbNZZ7tTYL6crOUN/dHOm7u4x4WM8ubVWpBkWqTiX9k0elsuOWRGbuY2vCoJ0LGRPge174G7P8mVUSTKhSRhuckUfXu/g3KARD/vfVxUEkOfJzM3KvpG4U675epH9035yuPD3U13YxqvMBxoR++6P1FSm1vrUT6yvr0mMLeDlzxaKH9vKELwENvzCJzExAMFUhzJHBM46ICuRfOqdOPdDz60N9+upQW9WiAXfc9lo0bBOUuS9mK+6MR2ZW8ZOnu5qzenN+5b5yXGdCBqmoQsgVtG4UbXC8oa5X0kt9NNmFntsq9PxOpBf6mQ2NGQlh+l5Gc7bqAMAy8YHm1Wa1ca5EJzQWcOFbxN+IrmMAM5J0L2TM+kfWTEvVBXYwlYqEbxzkzs7bhQ5VcPvOlAPmwHlOsd57pqNvnRvo8sulXsWyEHss71z3MhHLBAAfpoXyck6fWN3VO88kenIJ686uKWLDKhXacAANHwZrC8xVAwfi+ZHBQ2CQlya4CUk0yCvtqtDnruX6200mN5EYscyDgAcTsYhqdYpCT52N9IG75zQnhFe8XEAULNfoOgrlUapRnWqnKHRtsKOXB5Eu9yN9dzPXpc1Cr+zW2lJHQ3U1qnvKI7S3aFC9+8CCMEd4rRmnmH7X4qaSAeRRDvzmYHyO/TTEhHBMKXBdYDhlNtRO6KPEd6th3FzVOTfce6mq9f67e3p6q6+PXI81SlmqfVAqDBh4l5v15jd3E332+kiPL84rrrC7HI4/hEaY5YRuinqnzBxwoWDCcVPwtBFoH9PqMMJWrqt5qi9vDLSuriIs35hmGIOnEWIDlEyypyXjs2+gv3thUff06MHzsXgZdBZ1nei1Qa4/eWnXusTrRaTtKtFWIfXLRIMy1RBhdswhqED6+2blZ2N6mpoThCCpwlvgR43hWdPTQxK4h5PGZQd3MecQQ5CsCuyNbObNtN0VgiZyHxyOtFr5GNfALV6EyjKwNzP9aNoD7JkGou98oNPV+y5U+srOSJeH8w0NYB30q1gIeEb8xF9ffbFWJPrs2lAfuCDdndVKUI3QQPDkik1Vszo0dFnEEiwMeQawDgVPQBkfEhnsqypIAKEx1rd3Sj077GiHUQbGfmPg2BdN9ViVGq8l63E90LvORHrzqdgs6vCk1ZTPSsk1dilrea3/91qpz23F1m1BNiALUdCnoN21VAJ1LBa4yuRox2uENJ7TDkFY4vQ8wvlsrRSWjGa/i9VrrApje8Qhui30Js0cGw0FghMj4V+PgzrgB+1DGpaS5TnRfFbqLadSvf30UK++UipH+2f2VGEI0c4X1z753FeqS4NS39wY6cLZVIwVGGzQ8XEAjpC202JiaRiAfaCGCNYEuyICAo8zniTKYwzLY33q+kBXyg6DVDNV8mT3k9BsdJoGeibd1T+8e0EXu0gYRcvUYPo7FtYNNKdcXZel6M5YH86SGbyITge/xTuU/XAaFD9u0+wE8kwnTbeFETpzdSjeAHBOJTWLA28xAzM/h/bUAXUR6mES0FTExk3v6hT6OUas8bav9zI4+9KiSfj2lcuEV8o58662Uxcalba+0BgDdQ14gqzDNYJyOLjnmAIPBAtoC6aoAWWhEA6kTFfyUp+6Vmkrh316TFj+W9eDRGfSnScHTCjPUoSsk+hN827QpTpVFfviwpAxay+1zJk23UxUF0qRL0p3NwsHKKvcBGdLwlgCbOH4cDLpJ6qVWn6Zk/CheqioKlQcUQMUBA1Lzzs6ygsBj59yKO3sMzQ2+apZ2UF30a4PqxM0nLhmqRLNZV29eSHSj59NtBiNzKaZZdbuQmZ/GjYxWlfaGRX61LVcr4wqFSYsMTjwRQGBcQSgBO4zZiJN2S12MgTRyPRe1PHOMtyws75QNhVaredU2gzt3q5gOsO06kS5VtKRfu78opbwAuGd0Lhrm/6CGrG1lbbchPkZfv6WyNQAACAASURBVBVmGyWVDYJGbjVnrWzf10d6gAyIu5TKvJr6J7i3DQSblCpSlHbNXOSowvaRMjAjEHXAqCZUFqAJwOHM+/bh5iCxlmMWBMxpIWWZkls4tF23tL9xfRHCf2l1+LcbAwMSYUJdkw6cB+AGWacdB9dxOzDACREEhHHPdWBhXO8W0hev72rX5mbgNvbZAX982M0S4Ht7pd56tmNmpLQKY1R7577oy9EF2XgRATtwQ6rNWIBNCWCBZ+Z5gMc4x6SqD8jI+DEhTSdc0TW7MIwKYaxmgIjYIVn35MVDcDbp5tCyjpM48kWgc2i4oZGG+xBR0K+E9+E5yj809axXf9vpjh7oFuo0+W5zf8IbhWoWGVaqy9wKtqNYX14bWJ3CkZLYARPiD/kL9+2zdVtkKCC6nekAmCkE4kenqPWVLfQtrrk8sNo8tzYCO53Ueu/5ju7IInUmA7Epph8Ig4lDWVK9yKa+RMY0u+iuuUcoTDqKYt/3oV2gI11TXpSdJs8BVuQ6fJXEZg5rKTfgwQuYdbuO9FAFR0rmsEABg5TZlhK35Bo4X+i2QsMNdRC4YoibBsU/uPH5rNJ7z/dMW28TnmOXwd4gabBooq3RWfdfqigLfWULtYfvx0GjbKdF+gcBaCzzwJrIGATlRwTctzNLJPineaWs9N3drhm0WHuEsAceTANUutgr9J6zPRvWmkXhjPAQssgLX2Lc6BVsiNwsf45QypnrOdZduJB+IHBnxB8ehW9SHGJmvi6ftQlor20lpo2osID0dGYblYTYTnqeaG+DfEFMASzQnet2t8F9uz7aKVMPrE59z+mO7u0Vdo2wEA5qCD2PLYFuGqD1CXml53a7uorIYiM1y4WlQ3qHHXHIUOiyOp3OGEAh8zHrmExAimwvh+9s7Gqz6DgfrLNDhFVbG2zyDna0D84jxOG93bsAwMIvcDuIyGFdFvqT0GWhm0EVYO0ePYQvfnNrvcOKN/sdvRyKQ1ZrIB8kMR463HANy7oqxWLaPbOj/DQF6OyojvTUzT8cjGjnGWWaXML8IMo4pkcaWlAPoS7CM+oh/EiQ672HjRXjTA/NZ3rjIsuWh3t7LTdeY8iPkRLr6OGqZaHtMtV3NofaoVXROK3b4yY0s72p+f2Y88Bp+JGxgPqQyTFqa9lmH99Yr1SyQ54ZatEuZyTi6hNzYHA2q/TEQqplQNMa9pOFwOkCcWy1KIq5BjhodOk6EFgRkmakNLtkhz21EXgkGgVljc159qRCQqUdFsVJ3zEtAtG9m/Quh/Q4QiPiOnCcgzjNrPThmuy+89hCqpW0mFKituXSEnd4toQ5UZ3iZCLRtzZyree1yU8mdBpTGMNjVnKToXqoPM5k3IDTAMDle5dBXhvWeq5vxbcJTkh+UJX6gLbW3VmpRxY7Ss0vTSMRN8SC27TThowmXlhrg8N4V4JehZ+Re0bLm1m6Ax4SB4el22h48C94E8n/gNiO8tjHaFANawTmxkzGb0avgIa8ABRoHxrYcYBDiRAHsijSI4up7s4Y0cK9m/y15ExGW9YQbU8w1sJLz+5GujbihU/mIDzfjB77oBUKwZmDtAFBgTV+HOmlYaXVAg/lrGhgZYCr16ZIaC0JgtXKqlpvnE/NsRJlMYHNWp7rMvhuzKoBbpaZppNVo2zjaP4ACW90cKWd52wqxePd2ADRW73nKMhQTjAD1S0CdDpDjCxdxcDwmIWO1iUjpzQjWdIMgipnjuPmI0FejWXbNj28ECtpdtUxTmJFa1HOVFZ43IjNWmA1z/TyLj0K4KE3QREbkDddmnC3DzzhBWcqDCEL33roDPI60tVdvHr5/Ih3qnsTQNHGyAWpoVSnLvWjpzo6mzbrz5sEaF2hqwx9PK7TwjMEZVpEmIZo5+uH8Zr2BIehjFY2uA3tvLW/WGiwcJxwfZyyspoClcK5TqQfOZUpNqWn14VLjNOxGZTAcSRtjmK9OhypUG4MwbTttwIeR55XIuupMMZYG5UaVlyhuGOOq8UPG8BhtWY6kZpNzSrdvZhpkSXCENC16saiQ18Pq4awNloWXlW95Tksm9IZG50u/A/LHeWwkQ3jB2blGdXYrspQ2IVhaBBAcxLgGC3o6lVrMU10YbGj5TiMupr6sGE6lURoz5W5r4sw1C+1OqzNWP+odD2U87QjQUewmZdazSuNxnYwXr3tvjE84UwLu6NTWEvwUeD07BfECpwGgoVvg0zi6bdYbTtDP4TXlI9GiGAbmfzHAKIp5W3oJmnHRIfO586OdKrn3aWnEKgbCGe5CTfsKaTreaRtLM4QJRjd3oT0RwSPZ2Ir9y0X3bsnSfD5dAo+n+IZZVzxhrlSy0xHmJzhojdfAJZ2S7OWdxsIOKbGD+QFw3W3qUb1QRd2O4uMEA6P4bwc1zo/xyTQdBVPIGS10NQfDTfWjULaKoKXk5sTcDrmfeGdDSJ5owZnvdJ2TjKGBLcN2ZO5hidaTNj93DWHrbJ9MdPFGQEB0vi3D477MvXD98C6E1dTeOapuIb01PRtOugCoTQx49jpbjaCYzRpSeAAweUbb+/kAfEg/CLrWbbQM8UoHImJMAcfh9rzhM9IG/tXjLEG6PHCXgkz4w6bo5l6RnemkTozw4XY/+P5dlGAboadc9Ch9hh1dZm3Q1RgaAWkpidVp9KNE9vVeWtiUDj1etbNoeABNGQI1gqq2Uq6b+nzkPkgj9Kw0ea/llHXadzRTcyT+qzE9z+jaZiobS1zvFy5HXf4qEk73N78TC69I0fxaAKsFcAFBdcC0zCOHfHBSY8bzfjClYONrpwP4bhjYe/gmI74hh7Cy+ByD44wCyUFprltQ/f90VHsYVlrE/MX1sI3HPGwrulQ8JBEICVsbKOsNQpLLpvuxd63KtfDO7HQ6ZyZS4Tv6aMcfEvhGem7eSdPDsj+Cdi9w9KVncY9SYtJURqCGVW6QXsY2PlYqMn5GFR8dJTSEKYJ6ESxj8yawOQSz82Rozpqkk04lIVnu6yoyFWhLUYaIrFWXqajjKxu11msxpgtFPPA8McwgE9ZqF+wbpvKBMfEiqwynZ+QP4bhcVVopZPZuujpjB58x3yVTZxGsN5SC0yGtmaHxxVyGAueFb0RoRTej8mz2brYUt9KvYTFdA4f89rRpOfgcUEh8EOr7MmfWSk1zwhkAY2ZIT/YYILpGdWaa7bHPrgyD4n6Zq9Y3xVFWkbHauYt7uP5sM/IX17F2ixbko41mLas1nDKJqJDOQ96HAcHwUoNikhlVbiBFko8NJjY9ZqTbucQJpRRsThAiPBe2vFlLg1XOawAwBDrQXQPyyr1lsWRlhNfCzb5jnRcDzR5dvMr6ACX6dUDzaUsHQorIQq9db7WmXikvtxfjis/vYkYAEx4dGdM9jRhxARPPIArjrMDYhESPRx3NjFa1nrzIlsAWM3aZOT4k1u4sFRozBjoRZG6Gb6NsN/hDf6PrAUFTE+nVOW2Fm6Qu2KY/UEANu590cExjdTWRfHxoeCZit3MExuWFiY309hXFiQ+BJ0KLwmXTizq8Pa39+2seyZE3QH1/d1Cv/XGrm1/HcDi3A4UHCL4zYrWnkXukaNa0Cm0ukyvxLWWOrH+64fO2G7tk1ibHNsJ5SV20xiFJ257g5PvbhYc0x+YovcTewDmE9pmvDUfN9skHBzDyd4Y9440F7OZCbP4aJ4b4BwQo5mfmMuYCRVMNjRrA5+oZSYgjIqJ5qbggdW6JriyjTeQRdg0hIiZ2seHMowYrxaYpAagcGZdRGoG4gfkeN9juqyh0TxJujpl3Aoj82DhSPyAh9g9pZDevqj2PmiWFltfXiML0LLYJ4ItGVmIOPRtC2hpzeInbJZ9Vh9vZdakVZVwXxhupZj9MPgX5IN2mlZX/MEkdPIiKhk+542+J9gZtwJMgp74yvJktAe4LusgDlgqTVc0jrzJHG+pSd+8pVaF7IOZdGMuAvdpcyBAdDh4WmDFRKKomslQUrbpBJSHbovCfdzseTD+jItj0aX1Qcxojo99NESSYVKV2mhIYTQ4ShKWJ2t9yB7ehzoUXWhzVyMQmz7e0wU4pRneN+U1i0NfjmMIQlNM47B/4+qYvrCE7Y89J2r39N4I6641m/7mVu+a5KyY1tjaEfJ0BsWaFmDfUO6isklbZL0w9whgYCTc04UdCh4+tMDIOVGtjCUomEvSL4LUGJsYX4lIOCKfMD2fzzHDrlmZbZdnfI0swUy9r5XaquF2rt1uYAQp7PB2EqSJcQQHXoTvkjLWSlaqaGQ1JJLtUawqxx0cLIQW5/28E6tUMRjaei1MYgGea8alYsiyY5+G2V8doIQftjPNCA8MWi+WqhcVWogqM6E4MNPNi0Dbm4Vrv6fujPYutLZfzbw2c45muybcziAzAZK68VrCNBKACeAhkgPBQyBYdME6KTM2rzWXJupSCwheuOxknsYIHvJjL63DonWxrgmPWrYY0LqaEG72GUBgZUev8fSw0h9f3tRz25iesiUhFcH6JfpdnuHwwMFzk+58nBicq1vu6r/90Tt0X5KZ59FBket3n93Us/1IA9okxKp8TwYqH86C21sbAyTIY02vOY71kIuxbNZAy7oMZq07emKp0n9277weQps31eQ8PujPQQXSXQRh9ZDUxq8stbrWiLV3tvkST9zJJRQz/DpPt7+2jp/RcZmbb0icOcTNOi0GRe35xzAfSWIzwUPG3STU2ZR7hsDpZK1mwtsKZM2uyXIobMAIRGY58E4+VFWbK4Nx4Q66sH63iWC3qvSV7VRf2cxskQ4jBSYTWVaMcTx7Uzh4ANVBMbaeN+Ylc2WkX2f5Oc6eBGeTvroT6aubqfrsWowZpi1Pxxd07DIPFi4YraE8x857Dyfdz3WadM3vdCsPobNF71IW+pk3RIq6jEzbYfwawExo6tsbhBUU+0NPP4HrFKzLKt2ZOm19RhL2zPoKM8cFDJE6iAts01nS20y+AjTkhx8cmWMMnpBRMk1A6+eaNd+07Fy5FmP2MmCLoa7b2rSyNEmGK79DuN4eUZDpwh18hzxCC6H3KJQXqRg68jnmm2ZNGOQQXBnbzi6T9A6O19/Q4kp2l7H8uRMqRhmDola/ls3dsS5MdWYjMyMUxvBm02vIMbdze8FD7JPyt3PhT8m/c0cznrb4d3E4ELTpDZcJXwbgBBmD5zyjTuACofJC+HC2dJobllJu5YVKkx39Ie9t5p0isVbN3PfBINyraxbVtgnMqCqV0VIiLBsntkV7050CDxkMB5kM9sSQAOfcK0lknIf9ribZaS4bNJJBF3JxtBTp+qi2PTmD3AZHOugIr+i8WK9FS7CBD90msZplnMsYJqDbige0wuHLg2K2r22uBe7FERbz+yCA9lc5ZynYS90JRhhgAbcJ83mktZeIh6XafgeA0GQBWKODiUU+Cx7CUQdBpwJ4Xe7w1s41abvMtb/MY5DakFtaHbAtZTMsMF1VA3LzJuJLcKqK+HxU2YmlFbY1YBDAzt+d5FB1xBg8bWSHgthcOMM1vGemiU53pE5cmJmohdmf/2bA55pItLhXR4Vt5hriPMrZJHyAzGx0LLH3FEQLP2OhYMDCYOc8IyN7E3JUTz2lK7LuCIhY/L5OzIButtxspGYqHjPK5OObzzVPJXHkG+jPj3xwuNjg+aK81pgb+Yf7Qw8cX1XSlZzNX1wdAHBNJxm5Zajt02qkMws1iw7wnM3wQO97e9go8hDSpqA7ZJpMhaWtZLaG+1jf555NF7tsHYgs02gt2xXSJGITjI0nUzK+OmSHOy+qj5BmF9y6CEZrttzW9TqWL7gQcgg7/CLt+8IVt2A0TfMhpZtF4cAhMQmNWDGSKS+2FJU91Xj7SGrVOYMEJhLhap5f8+s0K75jPgOMVKJtvGb6IUQEX0YMcKADtAc83FMn/LhGaA7gmpWs6eQaffaoqqzhusUn20kx4VmZ8zvjf802URHDLPb9QPueSSsdluSwjbLvRDQrnfDMKNPOEBkNFQmdsbG1QtSJljJ20YW+EztlG9p6h25xmmNEiAPLVaGX+6V2byL0kB4/CIZ0b4o5pP+GmEGXBAYRki0N66qOCZxQajgNBGqAZOXHdJZ8wIFYt4VwfqTusBXpMS4t580iRz4jbY5QF+164Lr9zm5m/CFOZBxmxHerWi8PvHtGVeDDxWbiuZFlaZS+Ua85NdSpXqIF2I852bIUZ6QyeTQFHhCPRB8qE7ZF6zQi15GW0kincQRkKyfgDmSKQk9YULhCjVeo1JUhvozN+WyTKp1S81UDGjgMB2eWAdv7BkweNlKM29ggK7TSmxTlBFc0Oluvlvmyd9Nf+1SLC8UnB+fBuQGSLm9AZ1/27MCl/G0Zh7yFI4Aq3M86uzxJ7GxXUOu1XZflQlgGHKyLMNGRHYbYRMVoiXeMUqcyabERZGwSN3x4wDkNmQoZpUBc89xJB2+lRbrzw3NZpLSuTBi2Pb73coCG3jQknEBdH8Zaw4WHDa+ZFkBd33C3Ro9B3kiPFmaOB2x9OK0GojLUSq0b8YKOGcYBRTraY2sYAAfRiv0faHCmubbMvG48x3TjFctaaHxs3IJqwAVhch44EF0UR6ifo5UKY7BEw7q23ZTXBs5JTXak+zWPbkFRSeRSErvfnUylzqQwCPgJ1AlN/OCUnR+23pPZkPHwOETTlXRHFmvO1vbA8jxDPnQIoSdn4toqO3phq9KOGWBN3oEKuilkrDaBwkiHMzIOw2Q4DgPr1+MwLsvwn41ArOt6PVLxOGlXaYHy1SdEaRjGbRtBmUYbOD9ftOlytFyRAi74Kr2wnQvvX7O6Xrp+/wVnoYkpB8/2YnWbLu0o6e0DT/jIMo5MYP/DLHSqO+cSLXVwTUZXhIaZLnJSse5p3aZExf6XLGX9+sZIq7ZKEvbom4nZcluI2TgusmEowmGWur+cpBFYjbUiZDYsLWTwFs60q0n5mqVF5lLOJzlvIeqZn0Irkx/pmmOuUT76NpedLBP+AQAxeYL7HlUZuDcxdrKhh1gbjvSdGyONcBRqqzRMhzwOTqUH/sJ7/FGfzqS7e3i0ZzxpSrTxHmrjD/dcHAie6XAwsdhWf17opXpDOlKJixNbsIEUPwGPoY3KQehiJjuO9GyffRsqs69lSQehA6Ha6diz8QpKL55LQ+1Qt+G6weEsOM56dusp+mQsAKLrpZxtkgEYuA5n3vE7yYHhelrGeqkvPdMvzaFEqI/Z8cGX6NpKnc+GutCN1TUAOgi9pmZ/ydMjggevnyCy1vlerfvn3Cegu30je7OjMRJE0ktlrO/sjMzvKewSJhIIxBnuY329UdSX3Yb3r1NvdTBFXqc3PrTwwiOoMoq1BYBNetBgXOYT5IEGScPM61rP7BS6XCBfHhyRNWBGtKYIrXXffKU7kUvoSuGMJuce/D1vZtf61DeMu33swXTDqU6iJ87OKapGShkdMXSeCt/cgBxbwlFrvR/r6e1CG3U5LhCEorVBtNDqDIawbmjsy0fDaHpWCj80z6gofgwAoigVVkTWXdjA4eScpk0AI7ci3aiGenp7qK1RZi4c2mHG12Yh6PWWocmvIj1xdl7L3dhkvzHQxx/MvjgCePxDUMxvKY700FKmU7bHBGvWGa4cAnHr5+f13E6iS7uMBjyeNkcJ3Ae2/f/nAyrhxDysIQjd1O0pc62kGun5gXRpt6s86qicsv3enwo9AIqR+U6uRxe7WrRWiwbaO7v9X0w/OXJtgWx+7DBxT5rogblCJZNmphCcjnTvHTYzzw8Sfer6jntlNz/GhwNubxw/1PcQrjlMAWJFbx6OzTZCiJOdDZi19InrIz2/C3c7pE2b2EB92j4Keniu1t2p1GnUM6Gub5aTI4MnRITkcyqN9ORSWMzXokwItO9c60YR6xPXSq0yy25KwaN8ty+iH9oHobThfLS2ffTiYgxwNZc+sTrQeuEa/kla++PhHeBhJ+m3LEmnMpdcD/tmbyzHBg+sbr4jve2OOS2iy2yW4uyNePqe9V7SpUGiL62NNCytdNNB/uPdLVFgUNX60o2Rnhuk1jhti82bxIgYwr5jbz/b08IJJu+ODR6QuRBH+tGzSzqXDpQi9B20FMbYMwpxVkWk6o8SfeTVvjZNR2TCUFv0uUlRv7+vw2iQs7nZb4+1v+dZQ/PuNt6oQ5iovlHW+vAruxqOUtv0hdFxWHWyN3v+rdkW6g3ptt58OhMb5d3soOxGhybgscHDd8Dlzmik95yudTqdmBEcmHhUmJC4VWf61Fqtr23H2mU/BzyYG+c68MsfqBesA0eYZMvq7+9BRWOchqPRUoM81ze3Kn3+eqwbNFSTo8Lc4/6conLBynMhk3nkP5v48rv9If0JgGmbiIRwxwIPkWAOylZC3bLSu891dTbZMSkfFmI05Q99Gz8OM0IyC2RTWq1pXv/u8rZeMb+GzKH50hQPHiLhQ/iVjdldoWYTpmFSFe024wTCE8aT4uzDTIb6zc/y0IyVidHy14RvnSy3/Alx7XmHO2DTvLLvBQbisxUUra++B5cR24wkemkgffjyltarOaO377Xuy4ImuWgKDuc0rXKl852R3n1HTz3TKrvCsF1+6rs9WWtWD415LO+OBR4yUlWFraCI41RPLKe6vzNSry7M8s+nHBrQWK65JokGCI1O+nPrkf5mo9ROwVIeWogf43pjtjuutMRy4zRSN8aM23faM222BfStKn1Fpq9upObDP0dBG4yNiDpOJKS6N/HJc4CGXECacFufIGZuyss7E2mTz1+3K4NBM1m9XdT68kalz21g7cksvJurTZYShfI1jQydXV2rF+V6Yy/XoytsFelr2WlxpnFuuqcAHmJArRDAEwo2tiQMDw46BwSy2A2Oifni+azWW8909Y2Nga5UiYqUDDpYZseDKrzW5WGmj1/t602n5vQmjJEaQ3HjNAAtKmwfzb93jrXuO7qym2ttKG1WXduIkpEFjhhZiIypq/uHLIztYELpMGlAXKOQ891pVOElcWLmMCuPRrzmhQFmvH2SG8HzytLArsHMVWbF8vo+C80TLvv8MNfHr4z0ygi7cuakHED7czD5CvCdyXK962xHFzosBJjUWWhbAAXA8GPeMZjAhjPPjwSeMPPLWazebIy0MCV/z7mOvrBW6ZUbAIPo4CRMYPmk6nQhIrFiskhSfWpjqEde2tUDD69ovordRoj1Tc1W1heyrn7t3ky/LHblTbRRStdHuV4ZYmBW2LbVr+wOdWWY6tpIujEqtVEBpszYMp0MS37wT2NdjK0OxXpwOkeQDe5irbmBnbVAYzQYpjX2RYRr9FNj7mZ2TVRW4KxcBvJPp3Ord3ABGp5Vs3XViQZRoY++sqnPbKcqkq4Stl0wsqPJnk4ROQg5J6661jjfvBTp3We66rKCJB7ZvCOfBG5jdU1xGutOYmMmgPcA6KbgCQH5MEwnYJdDU2cbelaIPrCQ6Knzlb64lWuNlQl7Mj1dhCAKFbpe9/SX10d607mhfuLsnNijLm4RHi1s6n6tlEal5jPpzizVwz0pX440iGL1y57KqtagTrRVRbqel7raL3Rlt9BrO2wvWeh6OadNPJqVtfpoK+2ggqcz6vJT87bKx84ZqIXQ2uytraTgW/c8QccLs5+OzeO5HX9DZVrFNQIJud+Jav2HtaE+tpporeoqYX1d4KqHZAaB/1Q20E+cS3XfnPFWdbCNZtTWbIEZ6ppyc5AHwEIewj3nAznPFLehYpsZ35i5mRKPCWzYmmpZ0pOnpUeXd/TZ9cY7qiUx+w9mnmS5qmJdGnb0Jy/2df9Cpvs7Ug8NJ92eLdSnWpwKCIDIp+ytwA8B7xQ2tpn374SD0+Dqd7Aca1Bm2qmk7VJayyvjSjdGlTZGtTZHtc6YfS5VUPmqYbzz1Jid+BweArE7P3PuCTQgbIxRGi2xadYI5XRzbtjFFflpz/Q5yGZT4vCnVFgATuAC7DqIcwbsk58fVfqTF7f1/HDe185T8WPN8f64yQm0g/ZPLBR6cqWrJToIClqVZrjHRC3A4eBMnQMgQMOPew7yxTEFnpBhPrQ9ERp7Zj4KBeAjIkJ7g9EZIssD84nef1dXX9kaaFh3zVXHQU0R8oYWgi+YT65FevylHf3SxUx3djIxnUcDC8Dx/sSlfst8Y7iNxwrKQlm92txJNqta26XKvbwNUFjBmqiXMPqbLKW90ANgtTZqaRd5aoQLltQ8ZVFOzErQ7bAEB2eeDhoWDtJBs/UQXRvmqw4+o6z9QQa8uSH5JLxfBdBwDpVo9ZF2zWBttaj0Zy9t69Pr+NMhzGS+zKt+b4y0R7yEFJrLCn3wrp7u67IlJs2n0rDphnzAM8kDVwEw4cyzALAxeEKGQRrGSBwAhoA8431AX/iYMJgBnO7E+vtnu/rw8rqeWZ/XTg2R9xLSomz98Rn5NfX0L58f6P5F6afvqLUSKhsdBv0rJptMwTQ73wSCItAdxWgqGw/mEPAYuTEf59yB9sMEL65crg5LXd4u9Eq/1NXtUldHua70S/MQuhtnGiS4ZqOFwuLDOIslz2x5S4tmRYmb2LYKeexLaE7ZKG+gPc8o96geabdM9OnrhX7/hVLr8dIMwM5OEomAic/Hljb1U2fO2hQTHAxuFtLhS9LiR/qhvmfHSONp0M05fERkwcKPD4mE9/xAID9nXC45kLGzcaIPXVzS/7zd107RcSs0EzAPSJq9rexVrWt1T//imb4Wonn95J2luoyOqHQqySral+SQPw5Lv8lPyP8BqXgGm5dwKBfo/UFV1sqLSPfPzeveuVxvWaiUD+l6U+2mkfpVra1KujYqdKU/0qs7I70yiG050WohbQ9G2qhK7TLSrLHCw0G3L+gj3y7CUQj4gVssuvMBymF9nq8QAY1NdxDqIZSR71jpgTw4qCLbE/T3nulrVQu2mexsTmOE8zTtr0n/OpsU+tDFeZ3B21qZK068ayJtGARpUtfQuV3XIruAwwAAFqlJREFUTq39f80AnsDtX6gQAESkAUzhOdGQ6QAgWANrfp46u6BPnN7Q5o1C6xXz70c52P880jeLef3+5b4WupHetuSaXNKlQIHzcR2ecW7n5ygphfySdyNQxVbZheIyYut0RRkbwSXmSuZM1jEOg+RVzCcaLbEdNw498ZYu6y76o0o3CgT1WleHtV4d5FodFtrMpa0y1naRarssbI8yuj+oFqNtN9viJsdWz95wQxmowCA20MTw6FOksb68OdQfXd7VN6p55UrNbZ+xZfuwBSNTl6BKoAXSXcU6k+Z68txI7zl1Sh0zM/Vdoui2OKhraBKuOUPjww7rtgLKOFNRRBIMsUMFEdGsyNwPku+HdT6N9Z9fnNeLw4G+tOsEwc459ER7M0Jl+lgl1m4d6yubif7Vd9fVe2BZjy/HwukJzpcATZuVh4Lx/DhHIAVl8nLhX4cFdqUyk6EAD/INLkZ8ZQNuFiw9M591IQtGYkJ6HamoanOWwDqpG1Wmfl5rbSRdH5a6OgBQI60VpTaLSJtFbG76AdbpzNUG7UYb6Eu5fBtM3KvhK1D61nap33tuW1/c6WgXU1GHov31pryXEuPSmoe2R3q1fvHeRZ3JIpteqUt3GMEQHuCEgzwcla72VWBVfBi4jRFsbE8cMhKSaM6NPxfuikjqVLXettzVT50t9Oww13VzoYaMMWMoa6VnhOB7ZGZVqjX6842OkufW9RuPr+ihxF2jueLP0zxqwfbkdN8t8ThXZf2SyzGUksbWCcte7CvnV4wSQyXRHTlFGPnJnGGuJJUuwFmyjsoFJiu9YdTVvHbrQpuF79txpZCujGotR+wN4XNGviLWHUyQL4CNTgnBfFRF+k5R63cubeoTW11tlMijOAViHbrnY2/t2IIEhHmWGie5TndKve+ORO9cTJVhjYdRA9wGNzUmHzh5wMFxjgnkGtmGj/d2EwdFSAYgEmMOth/kwGHRz7wh1XO72/qjqwvmD4/9FibsdRIblcCWSiwPtD3LzTFCqn9/vavi25v69YvL+tHlyvwassIgtMxJDCe/sgpq5DcqLHQTpHHcdCi6uf6FhtHIZB1mltC252mkhSrWUsrqBOnNI/wWMRBxYTVngrj2aoALQXsqEZd1RR3p21ulfueFbX3kRqSq6JnZr3dHRyt7UqV6/x2b+ukLS5pjdFz4yg3fisqdkgZaHC3GSagxeNot+sgV5XjxzselQ2PnD8x19fP3Sc/ubOtLg54tpfE1Xu5rh+Rhl7YAkN2FO6nyujJP8Wh0C3X1yRuJ6nxTv/rQit55rmMWjKn5FWREw1xWKpb52NGkPSnW4Vd7AULZKTPHcYBjqRsN0Nw6MehoTT42ruBugYnTXdUlylNGkLUy21zXNUN5MbSNcW2bhsZ1HRt/f3Gr0L98dluf3EwNOIgIFBl1wawOG7Iw+oW12JxcGuvJ7q7+4T1LuthNbSBgKhpTintvkEYnN7wfg6dN7uMQsP2dEV/IS9Kb5lL98r1drT63rSvDRQ1xFYc+gvXvPj1mij++qfH7F1zSsW7LNMKpvrDdU/ncwPwD//jpRFHKVAMW/1SU6YRnMbS9WTrS/a2U2csdkvFuzu5cx2jdEB3FeEdlvKVR/Q3oE6Z1QIWN1ErtlrU+szrUH75Y6AvbmTZK91lEkAajIbGpMymbDBrh6aLS3fGmPnRxQQ8t4tKY5HytWFuIuJVyzwTPVI6OeePDYWm+F+mnz8/rud2B/s2rla7kvEG2MIYu38c8ck8ccB+GiPxYFCdY/5xW644+sV3q+tM72npoTu88E+lchj8/4nCNqgvcx8zk6xg86JAAi8tJk8Rw4IBzbTgHrl3iLLFNYuGgeYl5rkxO/PyNWv/ymb6+Xs6ZGgCZERkn7DY0ZvhN1AGuTOlgQUhDPJtW+rnz0k+fn9NylltTw6zEwTeLb03yedSraHcXneptPFijjnMh8lfjYKjS//DtDX30RqwdpOpyQVXig1UKWuEds/lG5kKFBliYBy/UjNCNaYM74y396sVMP3v3ou7vpVpmLiYOk1UMhWjJPtS8jaW5rVEhW5hJSxU3jrPUKGRTbde1Xhjl+shLm/r95xOtqmNWA6ELJCNTnVXzwv0ru+LTJkWjkU5FpT5wutRvP76iezJcpvikSejdbzICP3KZbzt4TLPAKMzkGlfufW230j/97pb+4nqift0zl22x8Ve0H3hqqFQXuSIcHDAVQr9u3VOwp2HKItJKtqMfP1Xo5y8u6O+entdSjTUiKLVOXObO6shF/94HRN4wP0NxZj55inJk6/H7UaxPrOf64+d39Kn1WOt40TFf0Z7H0FXdDDyMspaqod53R61//PCS/hOGgrjEsUEJcTUd1l7WdUJS3PZuywZ7DDTgZ0xpsNtuV/rFe3paG+3oc1suEOMXBmfZrgeKhU8cnx/yeRggZQdxNfFtFF19aj3Tq4OBvn16pA/eM6f7O4nmMrSj7gIXFl97x39Ckrx+n9HiU6S2eGAarN0603P9Uh97dVMfv5bo0qCnLVvUhTJ0rA9o1AKtfLnC2LognJ6bKoQBRDzUW1Yq/cJ9C3qEuSuzNfHZUuM6twk0ISe3nfOEiO2M9tR6r0rspvKF9UK/851tfWEwZ9paEyLVPdTv3VR8pjeqlUWlzkWF3r1S6ycvdPRjK4nu6hWaT1gvS/sk1dtMqamMnPyGebDdcqiXBrG+vF7pY1eH+tyWtFZ0TR4c5zv0MbOSMqK6dJnWA+PUvTjSW+aG+o1Hl/SOpUgrHbqyKV41K6Zbeva6ggfuQxUy/cCk4e6o0GduFPofv7Olp/NFDQtGEUxXHm2JIjYn2K2YZWAUmR3KxU6lt58u9Z/et6DHFhOdZqoEW6Aw0mlA9L2GUsM3XbBHH1ZLg7I2o7av75T68OUdfXYz0sujREXUVWymvKELBvshhv31a9gxrx44/ayUJbke7vb1248s690rsRY6qAt8UAHzeb2O1xU840ybcQz6GZxhpvqrawP9r5cG+vwOph49xUwsJj77wwoFDuTffUcjJGKDCxhz6yMTWzN/h3b1nrORPnChq7ee6ejODrPc7BOOeSaWishPbqkIpE0Pgt7I7HOmU5qVdAhhFdfckA9y69nyN+wwgy2x2/yUSm0n6EhXR5W+vDbSn7420OevSWvVvLmfQbpLi9QGGCbzh4Rmnc0JgXNz6ITntW480LsWS/3mgwt66nxHPdKzoT90kQ1OZkV1O559j8ADYX3kVCal+oNCn1+X/vmlLX1yp6OyggNRZW7cRcFmcooGPLwPjupsxGZmBdJp7Wo+qXTffKGfONfVe8529PB8ppXG9gi7HGKeDPNdviLlqQY6M/EWuceBaxUmX2HXRCzuViaqMEyrtF6NdKlf2xLgT64O9ELeUb8fayNyeyh3R0ZuvAtCJjosaZ/mJAyyZKluWeitK4X+m4eW9NRyrIXU/epY9ojLyH5YjK0yneDylsDD0JPj6IomVxJSqLW80Jc3a/3hCzv6+Ab7W/reD2iP0bu60djBJQr1R+tngI6rOlo5msdOkuh0Uuq+Xq43LlZ6bDHVIwup7ppPdEcaaTHzTTcMSiaMTwjMlZt27SmXyW+eqv/F5AJDMXdJgtYYU9c17IL6pZ7eGek7W4We7Xf0/C422JFG5psRrhTWupHaBLqTXLTQ3HpYRex1hp1PrMV0Vz+5UuqXLi7ox5ZTrTS78iDnGBTH340vDibmEd4wdUI9t+v6ROABNPzCPMzeSA/NC9/hNFqV2RQ/06/0u8+s69NbPd0YxbLlXCgSD7MFaiVgmp1GtgomoGhvIRldW6KRTmWl7soqPTIf64mVVBeXO7oji7QUV5rD7zBOkSK2R2AbIHfxYjwQTmXgwr4IP4zsw4khOTtklBqWMm3wZo3NT6QXtks9szbSM/2RLpeJtkZd984Fb7Fu0216mJvyVbYAB/iEptAqGM94bHXvAMASsIsCMKv07tMD/ZcPLunRbqq5DgHdWxvp3C49TmAOoa6ZxuEXAHRs8BBRMCMIkTMT354ba5Ng7zXMKsgILCAcRbVezqU/uLSm/+eq9FK1oKpA0wzBnGh742jfW3zNg8lCPB/LGu3NqtG7BfQdnaLUQjzSmTnp/Hysu7vSXT3fxP501ycw57LM/C5SJrgQ5R0WA9v9d3NQabVfabWKdXVY2ahpdYAJRq2dMlWeZCqY9Da5DHA0boeBCKMfCh+5u344LMds8NBJcUADD5dFle5ON/Vzd0b61QdO60IH56LG+g0x9FomMt6cbE3ch59CXYd6hllgqhPq+ljgCaAJnIZImY1mFphfeH54lqbfUvayirRe1Prz17b0+y8O9Y2dOXNg6ZOMjBxuGzWsU7K9ety7iNvtkKXIPWmltm0Bq2JZaGg6bt96KE40jHxDEPaiitOehhELVzDRdZMqZBecNh0F9NNUaN01cp3PftkMmK2qRY56cr6vX7nY0fvvXLRuimVEt4kyrQz4Zahr7qwRVZXVNYwi2P8cGTwBKETED9AAFp7zI8IAoH05ucmDgpZYS+ujUt/ZrfRvLu/oo9fndKPC48PEov8m0dz8tekO4CVANhzeqpl3Y12HidPMQdnUJfuQooBEZUlesAJEHjGYmJd0A3jQ3BpsbgE8li2Hg+fHd9NbSUf6wLmhfu6eRT0+H2mpG6lbZzaCbI0hQoFu+QxwwqI/6jiY6HjRva4NRIelFIARzoQlIiIPEQGYcG0XJ/gDK4d1n+1kWkgKnX1wSQ/MlfrYtb6+3Y+1afuCYxOEPojKRxyAyC7bHDlJ42ChrRIL3Rn3wAkHnUTPEx/XwPHYPgh/0oCITU8sxWBtaF0QcLMvm2yE+I+cKwckXM6y4l0bOTud5np4rtL7zqb66buWdF8nVQdP/2z52IhER09ldkjqNjABQnBP/QbQtL8CMAEL9t2sidEQIUAJCCSSECGRBy4TWBjfcIT+sJ3oza5NyGPJiwnSkekn+lWhT2+V+rfP39Bn1ru6kc9rZJumsNSFsFDROYVX3s1Sab938LtE2jQE2xHV9UF10VeCkThG7FHYOAWZtGtzaVZSuG2QpxiFGIDaadzk2iOx8TQ7CtEo0EXhHxDjsXPZrp48U+oX717U2+alxV5m4HXUuF8kl61uresK9caZ+qaOw0Hd87xd1+33M7utEBEg4ZoP2hyGSPd2U4TjdxLwNLizCjCDKCSTpDBl2+qo0qdWt/SvLu/q2xs9DXKWE0t514VR9udicvVYh+N86hO2wYxZDYs7kbCvle0f6q1xVAyVZFjyufDNx0Hgtbqf0Hwq3gNvyIMZqOcq1VFWuq13NxvpicUd/erFOb17pacz2DrXpTK6qQRP9XxIvTRc97jp7slQqOtQf7wOdRjeUffUdxs4hJsCD4EDy2rLNHwEKttchmezItyTt5PfoguBGxVsOiatldLHru/qo68O9a1NaY1N3dJuo4p2l2iTNthGB2NtStqM58lR6zXdJVMDJpSzxQHmIUGnwWfsoU63xlA7RtTGzazLSRZ4TwmJ2pJrpdOu32B/xKiIzdLMIiCqdDYZ6fH5Qh+8kOmnzvZ0Kq61kMZKE0xTC9W5lHY7tgzHmUM71j2ZOMJtGyyz6jpwmxBVWMsX7jmPwROAw5kPAQs/C9Qsdt8LmIDQdoS365oGxhqnHM/xKOJiaa1f6Pl+ob9ZL/Wp1ZH+dtjV9TLWDpvA2sr2kDpDYRSSvnw54MZmqi2IV7FNLxhQsAUygQ7k+M431JAhxlYcqmrmS0xGCqydiPccoUNsP2bY7vwKTZRvb8kc3XxUmHOsH12O9dSZWE+upLp/LtJSVCpjaTN7RaD4ZJqBP1E0NVRup3Gc6711TU8SmAbxcE3dtgE0q64NPCEywEIgfjwjUgATfkTMu/b9cTJ9lLCky2H2uPTDNas0C3OqEGMgHiXarUu9sFvrMzdKffFGbr4Or+Rz2kJGM29ZqCABAe0czbNPG7i6hPjhMKCz9NafdHxmn/VrlJky2qa8DZNiP9Ow3MUafNPqDTwOxMD1fJ0sAq0/h6Mhy1iZ4F6RtJjVurNT6KFerneeSfXOcz090Im1YENv9j1F1kIiRvFH3t0LzaxK9ZiP/jfUNXULOA6ra96Hgzrfe0Q7Ozs1mQqRcs1H/HgGoML93o9v9z3p8aNgFCocoWWwNTcVa0tkm9n6K8NS39oY6VPXR/rrtUqvFT3tRonvLsgmITaWsc6pmaxEhmBilHkghuKeCh4/vIuS6jxXnLF520R91yzq9E5pTEdQAXfm7A/RacNlYvbpZGTK9H4S2zKXedW6EO/qvadjPXW+q8dWMp3vxUoLRrCuGg6Cd7vhQotQkdDnVhov9Uudhjon3kDrwDyCeBLof9B5DB4yRISh4kIfxzPehQQOiuh2PG8XjPRCmhBsNBpprpuZcRl+Zkb4o2EbYtvmqFS/rnU1j/T1G3194XpfX92q9Gw/006Bg0ffV8q3WeGafcTgPpUZ20O0NJszlaAr59i8jE2EQmfjE6hexpbsZKCZBg+z3eZkiY60xOn5SA8tRXrLIl5HO3r8zLzOJ7XmjSMxeQLAGWH2fZYr7KfaNKR2w4UO4ZjFCcK7w86hPqnnAJawcoT749T1uNsKH5IwAlS3ixMgVwLy7KSZPawg4R0F4qBAHNwDHIjFmbR5xvA5gbjNKgy6Bl9JgVDr2yr1y0rbeaWNQnq5jPT0xo6+vZHr+d3Y9ty8MUo0wjWeyTSAI/OFb0iwyHo85z3pGzNxXmCDHHo6OIw9R04CXpXoTpk6wPXL6VQ63x3o/vlKj52a12OnenpDXNtGaEtZpHnMQ+j+ceNSVybT1WmluiQd7yZC2aFFGzxGnNvwJ9CZqLgOS62OW8djgTkgkgoLlRda/m3I78woQloBJAC4DWIHjA8TQwSeJ1qgt0ITDZpdjsdzW7RQJjGjWFtFro2i1muDSC8PK1tPzo7LuFTB2fXGCM+spYZ5KdZKDevENqNl6jIIv1RrylortgWPpU4idZNYvbTWclLbdkNsYne+E+sN3VR3zUU630O2YVtN/P4gNzZyDJwJbt6oJ4sid++lZvPkjTV0JVRm+IXy344z9OYI9IemJ6nrMXhChO3MHReJ7W9vdh0yDvLbXSRcj4K006ZlEL79LICHM0Ixvwl4mtQDk7AlJ7F5Y63rQoOK2XDWjtfaLkpt5bXWy9JAtlVK/TwyB0pha3CW/jKbPZcwfMbEM9HpNNZiEsm4SVJpOY41h2LRLBxhTrWqxAV1H2sBRTTV3tpdzeEG8ayVh6tSlmBNAIDCMV3u8PT7fx6D53udFVofXAZQBGAE0ACgqdnbGZL+UfPry6EJ3QyXbVVC0/KY6LT+iPduXRi6J4u/la5xuGaHPHo4wqG8c5NHN3Tjm9T8FCL3hCG5NfFxOUO5Q1lDi4cWACrcW/o/4H9u++qJo5aX1kTrgpgBLKG17WXbgOukB5XOYZOeJuuy4aSP5JCXOr4+14VnxJ1mPotv4GlN7+grWg00tXAYhdiDYyfmwcyOqNEDoccBOCYbjTs+zwN/AQjlodxtsHD/w3Z838ADoQLHgcvQ8kJrdJbuQ99bAQ5pTAb8cB63OPSqH+PC6ozuBpyZLDLG6vjCZeSmdsEJeDaZu5VC89rC2tKhANyGg9FgKCeNg2sAQ5n5UeYftuP7muM2iwYk/NrPbjcxw+hpOt69AHHQepj2tXdV42/tlQNy/Ky5cBhOPw1yC+XjOgAphArvw/0Pw/n/A08zrRDwreE5AAAAAElFTkSuQmCC;fontStyle=1;fontSize=20;sketch=0;" parent="1" vertex="1">
          <mxGeometry x="420" y="664" width="63.8" height="58" as="geometry" />
        </mxCell>
        <mxCell id="Nti4WjDRyjgu_Wvz6jyu-12" value="&lt;span style=&quot;color: rgb(35 , 47 , 62) ; font-size: 16px&quot;&gt;服务A_1&lt;/span&gt;&lt;br style=&quot;color: rgb(35 , 47 , 62) ; font-size: 16px&quot;&gt;&lt;span style=&quot;color: rgb(35 , 47 , 62) ; font-size: 16px&quot;&gt;服务B_2&lt;/span&gt;" style="points=[[0,0,0],[0.25,0,0],[0.5,0,0],[0.75,0,0],[1,0,0],[0,1,0],[0.25,1,0],[0.5,1,0],[0.75,1,0],[1,1,0],[0,0.25,0],[0,0.5,0],[0,0.75,0],[1,0.25,0],[1,0.5,0],[1,0.75,0]];gradientDirection=north;outlineConnect=0;fillColor=#e1d5e7;strokeColor=#9673a6;dashed=0;verticalLabelPosition=bottom;verticalAlign=top;align=center;html=1;fontSize=16;fontStyle=1;aspect=fixed;shape=mxgraph.aws4.resourceIcon;resIcon=mxgraph.aws4.general;rounded=0;shadow=1;glass=1;sketch=0;" parent="1" vertex="1">
          <mxGeometry x="633.57" y="473.5" width="43" height="43" as="geometry" />
        </mxCell>
        <mxCell id="Nti4WjDRyjgu_Wvz6jyu-13" value="&lt;span style=&quot;color: rgb(35 , 47 , 62) ; font-size: 16px&quot;&gt;服务C_1&lt;/span&gt;&lt;br style=&quot;color: rgb(35 , 47 , 62) ; font-size: 16px&quot;&gt;&lt;span style=&quot;color: rgb(35 , 47 , 62) ; font-size: 16px&quot;&gt;服务A_2&lt;/span&gt;" style="points=[[0,0,0],[0.25,0,0],[0.5,0,0],[0.75,0,0],[1,0,0],[0,1,0],[0.25,1,0],[0.5,1,0],[0.75,1,0],[1,1,0],[0,0.25,0],[0,0.5,0],[0,0.75,0],[1,0.25,0],[1,0.5,0],[1,0.75,0]];gradientDirection=north;outlineConnect=0;fillColor=#e1d5e7;strokeColor=#9673a6;dashed=0;verticalLabelPosition=bottom;verticalAlign=top;align=center;html=1;fontSize=16;fontStyle=1;aspect=fixed;shape=mxgraph.aws4.resourceIcon;resIcon=mxgraph.aws4.general;rounded=0;shadow=1;glass=1;sketch=0;" parent="1" vertex="1">
          <mxGeometry x="728.57" y="476.5" width="41" height="41" as="geometry" />
        </mxCell>
        <mxCell id="Nti4WjDRyjgu_Wvz6jyu-15" value="&lt;span style=&quot;color: rgb(35 , 47 , 62) ; font-size: 16px&quot;&gt;服务D_2&lt;/span&gt;&lt;br style=&quot;color: rgb(35 , 47 , 62) ; font-size: 16px&quot;&gt;&lt;span style=&quot;color: rgb(35 , 47 , 62) ; font-size: 16px&quot;&gt;服务B_1&lt;/span&gt;" style="points=[[0,0,0],[0.25,0,0],[0.5,0,0],[0.75,0,0],[1,0,0],[0,1,0],[0.25,1,0],[0.5,1,0],[0.75,1,0],[1,1,0],[0,0.25,0],[0,0.5,0],[0,0.75,0],[1,0.25,0],[1,0.5,0],[1,0.75,0]];gradientDirection=north;outlineConnect=0;fillColor=#e1d5e7;strokeColor=#9673a6;dashed=0;verticalLabelPosition=bottom;verticalAlign=top;align=center;html=1;fontSize=16;fontStyle=1;aspect=fixed;shape=mxgraph.aws4.resourceIcon;resIcon=mxgraph.aws4.general;rounded=0;shadow=1;glass=1;sketch=0;" parent="1" vertex="1">
          <mxGeometry x="819.4300000000001" y="473.5" width="44" height="44" as="geometry" />
        </mxCell>
        <mxCell id="Nti4WjDRyjgu_Wvz6jyu-16" value="&lt;span style=&quot;color: rgb(35 , 47 , 62) ; font-size: 16px&quot;&gt;服务A_3&lt;/span&gt;&lt;br style=&quot;color: rgb(35 , 47 , 62) ; font-size: 16px&quot;&gt;&lt;span style=&quot;color: rgb(35 , 47 , 62) ; font-size: 16px&quot;&gt;服务C_2&lt;/span&gt;" style="points=[[0,0,0],[0.25,0,0],[0.5,0,0],[0.75,0,0],[1,0,0],[0,1,0],[0.25,1,0],[0.5,1,0],[0.75,1,0],[1,1,0],[0,0.25,0],[0,0.5,0],[0,0.75,0],[1,0.25,0],[1,0.5,0],[1,0.75,0]];gradientDirection=north;outlineConnect=0;fillColor=#e1d5e7;strokeColor=#9673a6;dashed=0;verticalLabelPosition=bottom;verticalAlign=top;align=center;html=1;fontSize=16;fontStyle=1;aspect=fixed;shape=mxgraph.aws4.resourceIcon;resIcon=mxgraph.aws4.general;rounded=0;shadow=1;glass=1;sketch=0;" parent="1" vertex="1">
          <mxGeometry x="634.5" y="576" width="40" height="40" as="geometry" />
        </mxCell>
        <mxCell id="Nti4WjDRyjgu_Wvz6jyu-17" value="&lt;span style=&quot;color: rgb(35 , 47 , 62) ; font-size: 16px&quot;&gt;服务B_3&lt;/span&gt;&lt;br style=&quot;color: rgb(35 , 47 , 62) ; font-size: 16px&quot;&gt;&lt;span style=&quot;color: rgb(35 , 47 , 62) ; font-size: 16px&quot;&gt;服务D_1&lt;/span&gt;" style="points=[[0,0,0],[0.25,0,0],[0.5,0,0],[0.75,0,0],[1,0,0],[0,1,0],[0.25,1,0],[0.5,1,0],[0.75,1,0],[1,1,0],[0,0.25,0],[0,0.5,0],[0,0.75,0],[1,0.25,0],[1,0.5,0],[1,0.75,0]];gradientDirection=north;outlineConnect=0;fillColor=#e1d5e7;strokeColor=#9673a6;dashed=0;verticalLabelPosition=bottom;verticalAlign=top;align=center;html=1;fontSize=16;fontStyle=1;aspect=fixed;shape=mxgraph.aws4.resourceIcon;resIcon=mxgraph.aws4.general;rounded=0;shadow=1;glass=1;sketch=0;" parent="1" vertex="1">
          <mxGeometry x="728" y="571" width="41" height="41" as="geometry" />
        </mxCell>
        <mxCell id="a6vqPckB2kI22RjsVBpU-3" value="" style="rounded=0;orthogonalLoop=1;jettySize=auto;html=1;fontSize=21;strokeWidth=3;shadow=1;exitX=0;exitY=0.5;exitDx=0;exitDy=0;" parent="1" source="jEmmwzNHHjKvHg6OHVln-1" target="1yn95lNJv_hw5B5bu8lK-18" edge="1">
          <mxGeometry relative="1" as="geometry">
            <mxPoint x="798.19" y="716.2965341761303" as="sourcePoint" />
          </mxGeometry>
        </mxCell>
        <mxCell id="a6vqPckB2kI22RjsVBpU-8" value="镜像仓库" style="outlineConnect=0;fontColor=#232F3E;gradientColor=none;fillColor=#277116;strokeColor=none;dashed=0;verticalLabelPosition=bottom;verticalAlign=top;align=center;html=1;fontSize=20;fontStyle=1;aspect=fixed;pointerEvents=1;shape=mxgraph.aws4.iot_analytics_data_store;shadow=1;" parent="1" vertex="1">
          <mxGeometry x="533" y="672" width="39.11" height="56.5" as="geometry" />
        </mxCell>
        <mxCell id="a6vqPckB2kI22RjsVBpU-9" style="edgeStyle=none;rounded=0;orthogonalLoop=1;jettySize=auto;html=1;fontFamily=Tahoma;fontSize=20;fontStyle=1;strokeWidth=3;shadow=1;exitX=0.25;exitY=1;exitDx=0;exitDy=0;" parent="1" source="Ln0wYWGK2Pg7mDHhLt9o-35" target="a6vqPckB2kI22RjsVBpU-8" edge="1">
          <mxGeometry relative="1" as="geometry">
            <mxPoint x="737.5613175932976" y="698.75" as="targetPoint" />
            <mxPoint x="744.7635110434121" y="674" as="sourcePoint" />
          </mxGeometry>
        </mxCell>
        <mxCell id="a6vqPckB2kI22RjsVBpU-12" value="" style="shape=image;verticalLabelPosition=bottom;labelBackgroundColor=#ffffff;verticalAlign=top;aspect=fixed;imageAspect=0;image=data:image/png,iVBORw0KGgoAAAANSUhEUgAAAEwAAAAmCAYAAABu+H0XAAAFdElEQVRoBe1aa1BVVRT+RNGZ/JMpOMnL1FQePnF8IGBhicLkI1QkjZeKzJU7MJQjmdb4QElGG1MJGVS0HHFSdExQhLSiTEkpSME3Xh+EoIApiajVrO2czblwzrl3I1PMdNbM5azHt9bd9ztr77P3GToM8fT9G7pYzYCN1UgdyBjQCRNsBJ0wnTBBBgTheofphAkyIAjXO0wnTJABQbjeYTphggwIwjsJ4tscnr5lA6+ZuGYdyq9d57aWMm1KIAIDJnDIvAWxXFdSQoKDMN7P1yz0fcEJHMo5ipqaWjO/liFMGP3AEZ5DtWpqxlLTMpCatt0MI9UzxkQh/v2lZjE1Y6FhHnp0f4mFT5/5VQ0Gh14v44PFcfAeO7oFhr43eOY0bNqcjsO5+S3iSg6hNSw6KuK5yKIBREeFK42D+fxe88GokZ6qcSkQFhrCyZJ8SlevMSORfTCTk/XkyRMU/lyEzD1ZqKioZClE6JrEZYiPMyiVaOET6jDqDGcnB9jb27UoZK1DqxuohnHhfJwqPKNazsbGBoboSNW4FPCf4IdPVn8smUhetxE5R/JRW1vHfEnJG+D3ug/iYw1wdOyF0DnBaGxsxKaUdJ6jpAgRRgWWLFulVKfNfB7urngr0B9fZ+cq1owxzEOXzp0VY5LT1tYWH324iJl379bAGJeA0rILUphfjx0vwJmiYqxcvgS+3mNA61z24TyUl5s4prkiNCWbJ7e1ff7CJVbSuDBKsXS3bi8iMnw2i2XtP6SIIeei94zo2vUFFqdFXYksKfnevT+QnXOUmZRDpGlJuyIsY+duNlZ7+x6YGzmnxbgN0XO5L+dIHtebK57Dh3CXRAZ3KCi5R4/hXOmzDhzn46WAaHJZNSVdXJxg16N7U5aV2qXLV0F30Fo5kvsNpk4OwOhRI2A0zMf+A9n8kd/bxRkzgiazUju/3KNaskuXzujbpzeLU2ddvHRFFSsPlJadh7vbAPTsaYdX+/UBjV1JLBJGj175XkmpiJovL/9bLEpoWnjVcHI/dRkRRkJP1NVJnz7TF0Rw2LaMXejX9xVuyxVHh17cLCu7yHVLym9nSzEjaAqDDfJwUyWsXU1JGu3JU6dBnUYyc/pUuA7sj0GD3DBxgh/zfb5lG+rq7jH9v/hjscNoGzAlaE6rp2RrflRa+g5M9B/PUqnLOtnaMr2hoQFbt+/SLHnzVgWPu7r257olhbpKEuo2NbFIGCWaTDfYR61IW/uvlpuwe08WQoLfxjjfsbx8Suo20OZTSx49asSVq9fYOubmOgBEhJyAjh1tMGzoYF6iuvoOTNdvwt1tIPPdvl2tOh0J0O6mpPRLPtuUhoaGR5LJNpxaiz0HAmxvJdmzQ6ZLKrs+ffoXLly8jLB3Z7G1eUlCPNOJXJLj3xWY4Zsb7Zawhw8fgtYrSTanbpVUi1fa1dfX/8lwNLUn+b9hlnP//gMkJq1Hcck5dhSjI58k0tZGsptfrZqS8qTVK5c+99Go+eFbXl+u7/giEz7eY5hr776D8pCm/vjxY6xITOZHIzoreni44qu9B3DNdIPlVlZWYcWqtVibtJxvQ+jFAPm1RIgwWoADJr2pVc9ijLYp1hJGxSy9tlH7QtqMUielbExmEJqa9Cn6pQTFJWfh4uzEzpLyfCfHpi2J3C/XhaYk3QFLh2d5cSWdavxbcuKnQgROnoUffjzJv3L4sMGICHvHjCx6L0ZC79foEK4lQh1GhVp7x7UG0dqbYE3erYrfERO7mJ0RpReID+rrUVVVjZqaOuzLOojqO3cRHhrCXgP5+niBtiZ0MFeSDvo/oyjRou4TmpLqZf4/EZ0wwXutE6YTJsiAIFzvMJ0wQQYE4XqH6YQJMiAI/weP5bPGTElzegAAAABJRU5ErkJggg==;" parent="1" vertex="1">
          <mxGeometry x="686.07" y="315" width="50" height="25" as="geometry" />
        </mxCell>
        <mxCell id="a6vqPckB2kI22RjsVBpU-13" value="" style="shape=image;verticalLabelPosition=bottom;labelBackgroundColor=#ffffff;verticalAlign=top;aspect=fixed;imageAspect=0;image=data:image/png,iVBORw0KGgoAAAANSUhEUgAAAEwAAAAmCAYAAABu+H0XAAAFdElEQVRoBe1aa1BVVRT+RNGZ/JMpOMnL1FQePnF8IGBhicLkI1QkjZeKzJU7MJQjmdb4QElGG1MJGVS0HHFSdExQhLSiTEkpSME3Xh+EoIApiajVrO2czblwzrl3I1PMdNbM5azHt9bd9ztr77P3GToM8fT9G7pYzYCN1UgdyBjQCRNsBJ0wnTBBBgTheofphAkyIAjXO0wnTJABQbjeYTphggwIwjsJ4tscnr5lA6+ZuGYdyq9d57aWMm1KIAIDJnDIvAWxXFdSQoKDMN7P1yz0fcEJHMo5ipqaWjO/liFMGP3AEZ5DtWpqxlLTMpCatt0MI9UzxkQh/v2lZjE1Y6FhHnp0f4mFT5/5VQ0Gh14v44PFcfAeO7oFhr43eOY0bNqcjsO5+S3iSg6hNSw6KuK5yKIBREeFK42D+fxe88GokZ6qcSkQFhrCyZJ8SlevMSORfTCTk/XkyRMU/lyEzD1ZqKioZClE6JrEZYiPMyiVaOET6jDqDGcnB9jb27UoZK1DqxuohnHhfJwqPKNazsbGBoboSNW4FPCf4IdPVn8smUhetxE5R/JRW1vHfEnJG+D3ug/iYw1wdOyF0DnBaGxsxKaUdJ6jpAgRRgWWLFulVKfNfB7urngr0B9fZ+cq1owxzEOXzp0VY5LT1tYWH324iJl379bAGJeA0rILUphfjx0vwJmiYqxcvgS+3mNA61z24TyUl5s4prkiNCWbJ7e1ff7CJVbSuDBKsXS3bi8iMnw2i2XtP6SIIeei94zo2vUFFqdFXYksKfnevT+QnXOUmZRDpGlJuyIsY+duNlZ7+x6YGzmnxbgN0XO5L+dIHtebK57Dh3CXRAZ3KCi5R4/hXOmzDhzn46WAaHJZNSVdXJxg16N7U5aV2qXLV0F30Fo5kvsNpk4OwOhRI2A0zMf+A9n8kd/bxRkzgiazUju/3KNaskuXzujbpzeLU2ddvHRFFSsPlJadh7vbAPTsaYdX+/UBjV1JLBJGj175XkmpiJovL/9bLEpoWnjVcHI/dRkRRkJP1NVJnz7TF0Rw2LaMXejX9xVuyxVHh17cLCu7yHVLym9nSzEjaAqDDfJwUyWsXU1JGu3JU6dBnUYyc/pUuA7sj0GD3DBxgh/zfb5lG+rq7jH9v/hjscNoGzAlaE6rp2RrflRa+g5M9B/PUqnLOtnaMr2hoQFbt+/SLHnzVgWPu7r257olhbpKEuo2NbFIGCWaTDfYR61IW/uvlpuwe08WQoLfxjjfsbx8Suo20OZTSx49asSVq9fYOubmOgBEhJyAjh1tMGzoYF6iuvoOTNdvwt1tIPPdvl2tOh0J0O6mpPRLPtuUhoaGR5LJNpxaiz0HAmxvJdmzQ6ZLKrs+ffoXLly8jLB3Z7G1eUlCPNOJXJLj3xWY4Zsb7Zawhw8fgtYrSTanbpVUi1fa1dfX/8lwNLUn+b9hlnP//gMkJq1Hcck5dhSjI58k0tZGsptfrZqS8qTVK5c+99Go+eFbXl+u7/giEz7eY5hr776D8pCm/vjxY6xITOZHIzoreni44qu9B3DNdIPlVlZWYcWqtVibtJxvQ+jFAPm1RIgwWoADJr2pVc9ijLYp1hJGxSy9tlH7QtqMUielbExmEJqa9Cn6pQTFJWfh4uzEzpLyfCfHpi2J3C/XhaYk3QFLh2d5cSWdavxbcuKnQgROnoUffjzJv3L4sMGICHvHjCx6L0ZC79foEK4lQh1GhVp7x7UG0dqbYE3erYrfERO7mJ0RpReID+rrUVVVjZqaOuzLOojqO3cRHhrCXgP5+niBtiZ0MFeSDvo/oyjRou4TmpLqZf4/EZ0wwXutE6YTJsiAIFzvMJ0wQQYE4XqH6YQJMiAI/weP5bPGTElzegAAAABJRU5ErkJggg==;" parent="1" vertex="1">
          <mxGeometry x="762.07" y="315" width="50" height="25" as="geometry" />
        </mxCell>
        <mxCell id="a6vqPckB2kI22RjsVBpU-14" value="" style="shape=image;verticalLabelPosition=bottom;labelBackgroundColor=#ffffff;verticalAlign=top;aspect=fixed;imageAspect=0;image=data:image/png,iVBORw0KGgoAAAANSUhEUgAAAEwAAAAmCAYAAABu+H0XAAAFdElEQVRoBe1aa1BVVRT+RNGZ/JMpOMnL1FQePnF8IGBhicLkI1QkjZeKzJU7MJQjmdb4QElGG1MJGVS0HHFSdExQhLSiTEkpSME3Xh+EoIApiajVrO2czblwzrl3I1PMdNbM5azHt9bd9ztr77P3GToM8fT9G7pYzYCN1UgdyBjQCRNsBJ0wnTBBBgTheofphAkyIAjXO0wnTJABQbjeYTphggwIwjsJ4tscnr5lA6+ZuGYdyq9d57aWMm1KIAIDJnDIvAWxXFdSQoKDMN7P1yz0fcEJHMo5ipqaWjO/liFMGP3AEZ5DtWpqxlLTMpCatt0MI9UzxkQh/v2lZjE1Y6FhHnp0f4mFT5/5VQ0Gh14v44PFcfAeO7oFhr43eOY0bNqcjsO5+S3iSg6hNSw6KuK5yKIBREeFK42D+fxe88GokZ6qcSkQFhrCyZJ8SlevMSORfTCTk/XkyRMU/lyEzD1ZqKioZClE6JrEZYiPMyiVaOET6jDqDGcnB9jb27UoZK1DqxuohnHhfJwqPKNazsbGBoboSNW4FPCf4IdPVn8smUhetxE5R/JRW1vHfEnJG+D3ug/iYw1wdOyF0DnBaGxsxKaUdJ6jpAgRRgWWLFulVKfNfB7urngr0B9fZ+cq1owxzEOXzp0VY5LT1tYWH324iJl379bAGJeA0rILUphfjx0vwJmiYqxcvgS+3mNA61z24TyUl5s4prkiNCWbJ7e1ff7CJVbSuDBKsXS3bi8iMnw2i2XtP6SIIeei94zo2vUFFqdFXYksKfnevT+QnXOUmZRDpGlJuyIsY+duNlZ7+x6YGzmnxbgN0XO5L+dIHtebK57Dh3CXRAZ3KCi5R4/hXOmzDhzn46WAaHJZNSVdXJxg16N7U5aV2qXLV0F30Fo5kvsNpk4OwOhRI2A0zMf+A9n8kd/bxRkzgiazUju/3KNaskuXzujbpzeLU2ddvHRFFSsPlJadh7vbAPTsaYdX+/UBjV1JLBJGj175XkmpiJovL/9bLEpoWnjVcHI/dRkRRkJP1NVJnz7TF0Rw2LaMXejX9xVuyxVHh17cLCu7yHVLym9nSzEjaAqDDfJwUyWsXU1JGu3JU6dBnUYyc/pUuA7sj0GD3DBxgh/zfb5lG+rq7jH9v/hjscNoGzAlaE6rp2RrflRa+g5M9B/PUqnLOtnaMr2hoQFbt+/SLHnzVgWPu7r257olhbpKEuo2NbFIGCWaTDfYR61IW/uvlpuwe08WQoLfxjjfsbx8Suo20OZTSx49asSVq9fYOubmOgBEhJyAjh1tMGzoYF6iuvoOTNdvwt1tIPPdvl2tOh0J0O6mpPRLPtuUhoaGR5LJNpxaiz0HAmxvJdmzQ6ZLKrs+ffoXLly8jLB3Z7G1eUlCPNOJXJLj3xWY4Zsb7Zawhw8fgtYrSTanbpVUi1fa1dfX/8lwNLUn+b9hlnP//gMkJq1Hcck5dhSjI58k0tZGsptfrZqS8qTVK5c+99Go+eFbXl+u7/giEz7eY5hr776D8pCm/vjxY6xITOZHIzoreni44qu9B3DNdIPlVlZWYcWqtVibtJxvQ+jFAPm1RIgwWoADJr2pVc9ijLYp1hJGxSy9tlH7QtqMUielbExmEJqa9Cn6pQTFJWfh4uzEzpLyfCfHpi2J3C/XhaYk3QFLh2d5cSWdavxbcuKnQgROnoUffjzJv3L4sMGICHvHjCx6L0ZC79foEK4lQh1GhVp7x7UG0dqbYE3erYrfERO7mJ0RpReID+rrUVVVjZqaOuzLOojqO3cRHhrCXgP5+niBtiZ0MFeSDvo/oyjRou4TmpLqZf4/EZ0wwXutE6YTJsiAIFzvMJ0wQQYE4XqH6YQJMiAI/weP5bPGTElzegAAAABJRU5ErkJggg==;" parent="1" vertex="1">
          <mxGeometry x="723.07" y="362" width="50" height="25" as="geometry" />
        </mxCell>
        <mxCell id="a6vqPckB2kI22RjsVBpU-16" value="" style="shape=image;verticalLabelPosition=bottom;labelBackgroundColor=#ffffff;verticalAlign=top;aspect=fixed;imageAspect=0;image=data:image/png,iVBORw0KGgoAAAANSUhEUgAAAUEAAACRCAYAAABdRwqqAAAgAElEQVR4Ae2dB5gdR5Xv/903TdJopNEo55wsyZKDbMsRjG0csTFgA8YssMRl37csu/Bgl7S8ZWEf4S0ssJi4xrBgG9s44Bwl2XJSsnLOcUaTZ27oft+v+vbMnZl7Z+4ESTOjru+b6b7d1RVOVf3r1DmnTlmu67oKQkCBgAIBBc5QCthnaL2DagcUCCgQUMBQIADBoCMEFAgocEZTIADBM7r5g8oHFAgoEIBg0AcCCgQUOKMpEIDgGd38QeUDCgQUCEAw6AMBBQIKnNEUCEDwjG7+oPIBBQIKBCAY9IGAAgEFzmgKBCB4Rjd/UPmAAgEFAhAM+kBAgYACZzQFAhA8o5s/qHxAgYACAQgGfSCgQECBM5oCAQie0c0fVD6gQECBcECCgAIBBQY4BRxHrutIqZSUSspNJaVkwrvyDEdRmc6ibFuybVmhsBQKywpHpHBYskOy7JBkW5L4OzNCAIJnRjsHtRyMFEiDm9tUL6emSqnKI3Kqjpq/VOVRObUn5NTXSgkAMZGmgCUrViC7sEh2yVDZZeWyh4+SPWyEQlzLhssqGuKBoXVmAGEAgj0ZHKbzOXLrqr2v6TShkGQF0oWekDP4phsUcFJym5vk1FUruWerkrs2K7Fnm5xjh5SqOiK3oU4u3J/jSHCHpq+SfobbUMDN/zOcny0rWqAQQDhilEKjJykyZZbCk2bJLh9tQNNwi90o5kCKagVOVbvZXCw9muqV2rtF8cfvlpuIK3LJuxSZvdjMoApFuplgED2gQCcUAMToc3EP+JzKw4pveEPxLWuV2rdDqRPH5DY1eEvhTKBrWc4CeFnSJ92WwHKZFbAHjgCiPbRMoVETFJmxQLH5S2RXTJA9dLisgkJvGT2IuMQABFs6Qn43bqJZidUvKn7/j5Q6uMPrfEMrVHDV+xW59F2yS4efUfKU/KgWxOoRBQwApuScOK74xtfVvGaFAcDUsUNSvFmuXFmsPvoakFxXvsN55IZ2aZki0+crtuhCxc5eJrti7KACwgAE8+2d6Q7ZvOopxf/4PTnHD7bOvpYta8gwRS+7WbFr/0pWQYnE8jgIAQV6QgFAKJWUU3VM8bUr1fjcQ0oe2ustdRPx1n6XT9qGu7ONDJDoTn1N9ydpFCbhsKyCIoXKRyp27uUquPAqhSrGmaVyn4NwPvXqwziBTDBPYrqJJqV2b1Ti0bvkVB4y2reWT92U3NpKJVY+KrtivCLnXyOrsLjvZ+iWDIObQUkBwC+ZkFNTaWR9TS89pvj6V43Sw00m28r18iSAFY0pMmuRovPOUfzVZxXfsi6t/c0zAaIhh4zz1yynrkapowcV3/SmCi++VtHZZ8suHyUrEjMa526k2m+iBiCYT1PQOauPq/nJe+Qc3CUxG7cPjiPkNc2P/VqhaQsVGj9NsgJusD2Zgt85KJAGwNSBXWp89gE1rXxCqWOHPcVGT5e7lqXwuKka8oG/VerwPjUcPWjMYNooSXIUJ+djJ2WAsHnNy0pu36DowqUquvq9Ck9fIDsaG5DKwUCdmbO1W18glE5uflOp1581mrnWN+3uWMIc2afmFX+Wa5Yd7d4HPwMKZKOA6xptb/Prz6v6x19Rw+N/UKrqmBezpwDoOEbbW3LLRxUeP03OiUrDyWVVkmQrUxfPLMuS01iv5tdeUPUPv6LGx+5RqvKwp5Vuo6DpIqF+8DrgBPNoBOfEUcVXPuZp4TqLj9wwlVDq1UeUnLdU4SlzpXBMCkeyC5JZZmDYagxaHS/lcNSLi0FrEAY3BYzsLyHn6EE1rXhcjc96sj9j2tLbmlu2omcvM0thKxL1ZHe9TbP990Zr3Wy4zLo//Vypw/tVeNmNCk+aYUxuMMgeCCEAwVyt1GJn5Si54VU5u9bnitn2uePKqaxS86O/Umr6AlmjJys0dppCoybKika95QKzO8vn+hql9m2XU3VIqq/2NH1jpnkdN1rQNt3g1yCjgKf8YJla/+Cv1LzqWTnVx9PL1V5WFUVdcbGiZ50va0iZ6XOhijFGseE21vcy8SyfwxXWVKvx2QeV2LtNJe/5pKKzzhbyyIGgNAm0w+3b1MzOSbm1J4wtYOLN55Va+7wxRlUyiyyw/ff8ZgYMRcQMbLYiFRTJHjtV9sxzFD37YlnFZYqveUmpVx5V6sB2CaE3hq1o4SrGq/DD/6zw1PnZUg6eDQYKpPtYcudG1f3xJ2pe+4q3GnBSfVO7UFjhCdM09BP/rMj0swwQAba1//1/1bj88a7Napik29gR5lksvrMsY2CNHLLgvCtkhRkD/ZsjHMScIEtTlptYz7N/Mm09T3umreRlh2WFsLOyTaNjdIrmN7nlTSXWrpC7c63ZeqREs9mTmWdX8OQiTrOwKSS4DTVyqo/J2rFeydefklU8VM7uDd7y2ihZ0oartm2kKckd6xWePCfdebJZuuZdkiBif6OA6xgD+8TW9ap/6NdG+8s+3x6BTra6pcErPHqCrOLSFk7MHlKm6Nxz1LTq2bSJTceP0fCyfY4NANgmdntZTt7INysPq/6BX8hKpRQ75zJZhUV9w+F2LHKfPBlcIEgjIKcA9FIJOZVHlKo6KrfqiFRfZbDQcpNSyXBj1GwPH6nQiDESHFu8WYn1KxR//n6ltq+XGms98OwLMrO0duKmc7l1J3KnSLyGarkHthgFDHZZfSXIzp1p8OZUUsBNJIz5S+09P1Bi+wbT73q+ZGSCzNz5ka4J3FhZubcc9R/FChWZuUDhkeOUPLwvrcBorbnrOAqPHm/s/5pWPGHMdNRTxjSVUnLPdtX+4cfGXja25BJZBf3XZGzwgGB6hnWO7Vdi3ctKrl8pd/8WuWwgT89QLR3GsO22FCsw8jpr6lnSif1Krn3Ziw93lp5RW7vJKbpLOXKOH5PTUKNQrCAwszlFZD8V2bAqSe7eotrfpgEQDpC+2N3AN6xmzOTqZE3DioSFBrcl2LZC5aMVmX22cbTgNjW2fmd5ThUKLr5OkQlT1fDY7yQnC7i2JJbHjZMy9oS1d3/fAHXs/Ld7S+PMMuWRzKmIMnhAMJUyNnxNbGfb8oa31KSTdSZnqbeUrKmStr7psf7EZ/l8moPHybKEP80FCbLvOwqkkkod3K2GR3+rBAbLRg7cwwZ2UopMnavwhKmKr16uVG1NB3GNZ7ycYacK0BUUGWUJ2+8MCKZrh3OE8KSZii1cquS+nWkzsB6WzacYTAR1rjyi+kd/J7ukTJE5S/qlsqR/Syx9guZxhZ13q4/KPbhTbk2lFG/qHABJk4ZCbscG9OamngGgPyunfbPhn63lj9m6J3s7e9n/8iBXEOVUUgBTqIY6NTx8t7Grc5sbuy9v88trlCop2SWlKrr6NhVceoPsohL/bcvVKhzScetmJGYcIoRHT2xdRrsy5iyxhRfILhthtsf1qSIjmVRyx0bVPfBLpY4f9kzCWkrZP24GDQh65KQ6GUuAk01jHFIWFMkaOsJoda2RE+T9TZRVPk5WWYWEcBoNWTeWAVYkko4foOHJbsJTkT4+/RpfeMTYAjpN9d3qCx3LhwbWNsbVGPEXXnq9ItPmepOtiQyq2bJLh3rOUjMSwN1baMRoRWaeJZSCfsBBQnT+ubKLh8geMlRWrLDvxpFlCTlofMPranjoF96eez/jfnJtpUQ/KVCvimHRAXqVQu6P4eowei4aIntYhazhY2WPGu/tmywbLau0vFWOiPOEeJNZkhunlpUHTONjTKqqg3JqjnsCcaO17gh0qd2blFj9guyLrjMga+Q/uUsWvOmvFIBrSyaU2LZeDc8+IMMBIsfrVUh7icYWMBJVaNR4RRddqPjWdYbbFJZWMbS8o7wVSWZeLIkjUWPD1zTyKaUO7jF9mr2/4YkzjILQGlouu3SYZxWR6m1Z/cw9S43GlU8qNHaKit5+i6co6SemM4MHBAE/OC6Wo30VMpa6gF9o+iKFF1zoma8MrZA9ZFhaxtE5Q81AwEgVMxn30G4l1r6k1PoV5rcxj2DXSIYixj22X/GH7zLAGl24zAPCvqpTkM6powDKurpqNT3/Z6MRzmzj3hYCn3846UD2F521yHiFTmIIDdAVFhvff1nHAvuJJ89UZOJ0JQ/slh2JKjJltgE+JluW1uEJU5Q8tMdzEtKNFUzndXKNQXXT8r8Y28XIjLNk2dHOPzlFb/sQMU5RiXNkY/yqFQ+VkIX0VQhHZQ8bKXvx2xVb+g4zixlukKUEnCEzWR6dBJ9s2GzRwdyR4xWed55Sx25TYtUTSr7xrJwDOzzO0NeEIENiq94fvy87VqDIgmX93uC0r0g+eNLxuMCmFx5WM1YHjtNWW9vTipqJ2ZI9nEmY3SCWQiPHKTJjvpL7d3q/K8Z4JjI5OC2jpJh9tpreeMk4SQ1PnN6ynLaKSowGuXnNK53vk+9B+dFWJ/duV+Mz9ys8brKs0mEt+fYguT77ZNCAIIBkF5caQ2QDTBmcVfepZXmgNXOJYpffrNC0Bea30bh1PzEPKA1Ypg+3cWMKjZki+8rbFZ63VMnXn1ZizUtyD+8x9o2GY8AZw7EDSrz0oEJjJsseMbZvudye1CP4Jm8KuPG4knu2qeG5P8upZUtkH8lp4PTCUYVHjfdkd/yOFSo6a6Ean3/YLGkBNQ8gc6xQIlGFx042RsxsqwuNntAymZu0ZixQqHyUkv7xEXnXuouIRj4YV/PrLyq26CIZ+8HCjkqdLlLp89c5qNTn+Zz8BJGRFJXKLh+ZBosedjq2rhWVKHTBtSq87e8UOfsyT2uGv7S+CqYjR4zBdmTWYsVu/LgKbvkb2aMnSeST3sGC5jq5YZXirz3j7T7pFbD3VeGDdPKhAGeANL38pJL7d3UwX8nn+5xxMIQuLlFo3BTPyJ9uHo0qPGWmkffhAh+X+OZMkBzAa7xFwy2WDFWYa/moluxwnop8MDrjLC99f3XSEqOXN+yZb6hVw1P3KXXsYBsxUC9T7vHngwgEPTsoe+IcWcwu5tjA7tPFLAeuuEWF1/2VcXrgKSV6CKj5ZI8mr6hUkUUXq/Dj/6rQlLltLP3ZYZJ4+h6lDu4yQvZ8kgzinGYKOI6Se7eJnRfG2DMHGHW7lGYStIyvyvC4KZ63IVmyrJDs4mGG+4PDQ0bYqZiG4zbZz85kXz5KdrSotSgwE9ECFVx8jcJjJsrtrdF0a8qtdynH+CJsXr3C69OneXIfPCAIiZGPTJwua1iFFE4fMAN+5fnHnt7weVcresVtnnkL57GeikCn5LSv8dNV8N7PKTRvqbfUQabjJOXWHVP8+Xvl1ney5e5UlDPIo2sKoBFuqFV8/SqzY6JTY/2uU+sYw7IMlxYaPrIV6ADZSESh8gpF5yyWPbS8S1kb5wuz9MU2kG/bBKM8ma2C899mZNKdAmqbD/P84TpymhoUX/+a55iksw0NeSbZm2iDCwTxjVAxUfbcZWaWtKKurKjT9R8r0MKQrHlLFYMDxN6P/cSnMrBEjkYVmr5Ases/KnvyHFnFEVkxGTur1JaXldq1ocOez1NZxCCvPCgAF3j0gOIoQzDE70suh6VwSakicxbJKm6rAGSJi9OE6NwlnjVBV9wnmmDkgeUjO9gTUku4RM4SCY+fKutknKAIN7h7ixI73pJ3dEAetD1JUQYfCBYPUcFl18saPlwKo8GlRbv4C4dkj5yowqtuM26A+nzmy7vxLHN+cWjKPBXc8SXZ46dK7AENJeRW7ldq22q5cXYbdLQtzDuLIOJJpQBOcuOrXzLbz+C2+jSw/xegmza/wyTN8rbgbbeY7W/57PjAcNoegs3riOwKNzskfBDGzn+b5wWmTyvirc6c6ko1LX+87yeLbpZ18GiH/YrbYdnlYxW54CYlXrhHbm2V/ybnFbuqyNKrFBo7PeusmPNDXvjeoZsbhQdqt/qQUjU18nwPurILLSk2whhZG8UNR3JGi7ztSShAOgRP+4dRaezaz6j5oR/K2bfRpJfavU5O1RHDqWa1AeuQVvDglFKA/es1lcZBKocS9elk6rpmR0ds/nmySoa2NZkyq4gCY3+HYiOvEA7LHj5KVkmZrBymNIyL2NkXqenFR71T6npt6N22ZLjswpMOh8jj99A4YW0b5ZT8ypNip6QsfZMJHSJSoMg5Vym1e41Sby1v3SeZLQfOVS0fpcgFN3uHp+e75QTZT6JJbmOtnH0bzKZ4Z8uzcqsr5TYnpFBKYgdLKpzm5qKySsYoNPsshWZcpPDE2RIGr8bpJHuMM5Qvpg4xheecL+fgdsWP75PbVCv36Haldm9QKDCXydaSp/2Zm4ybA9ET+3Z2vW+9B6VFfhddeEF26wcjV+6GBUMobNzI2Z2cimhMcSZMN2cOp47sM7aOPSh27k+QDVZXKr72FaORDkAwN6m6/yYUklU6XHZJsZwCtv7kXj5aRUUKnXuT7LLR2ZcF2XJnJ0Bzk5JbVyq+/EG521/2vNZYOHBl6x6Gsh6oWRFXarY4Jltu7T45B95Q4qXfy552gSKLLld41lLZZaMkq918hJYuVqTw2W9Tas96pTY/LTdRq9S+dXIXX54vVGcrffDsJFEAp7zxt149OXJblBVjJxnD6FycW3eqZbbcjZ2U3o2UMQFnJpKejKNnX6jmN1+SG69sO1lnxu3Jvb+tcOs6oyDBZOd0hHYj73QU4STkyRK1ap/cE/s6BUBytsqnKrrgYs/jRiY3lqtYGDGfOKzEij8qufZxOVUHJbyCsGnT32oJDvriIB9/ueKly0pK8YScbS8qfmi9Um89q8gF71ZoymJj59gmWwThw0cpcuHNcva+JrepTu4BzyO1FSns2w7ZJuPgR08o4FRXKbHtrb7nAgEjFB+TZhoHB8aOtCcFzPiG9NhpwpK3zSokI465tSxFJs40skjnxLGMjt0+Yg9+p8db8sAuJY8c8OSZ+YzBHmTV2SfZhFKdxR8Q71y8Sh/aJqf6cG6HChDbDik8c4ksOLEueSvPa7VTX6XmZ36r+PO/lHN0p9TMwTVp9PMVMLjs5w9bRX+S5erf4+o/3iC3ar+Sbz2jpvu+qfjqZ+Q2nOhgWGtFCxWedpasKRcaOZBzeIfcxrq+H2gDomX7cSFxK191VMlDe70jHfqyqIBg8RCFx04xq4NOQSvffFF8DB8lu2hIFyAo4WUGLTFb//peKefRLXVoj6clPg1Kv0EJgjhzdA6ulZw6KeRIIbfjX5iONUz2tHPyc/3NKXINdWp+8mdKrf6tlKqXbGR/bdO2CsJmTySd1oriW1Ad4rR8Y8MexuVW71byye8o/tzP5TRUt+1oxni1WLGLrpVdPkJSvdzqvXKdZL7dPYh3CiiAI9zU8UOeW/o+tntDyxwaNsLbDdVXnFKaCeiaq2RbXpHJv+8BkIWat8c6dXS/XNyMnQYQHITLYTg2QHCrlPJOh7PC/jo1YzSEI7JHj5eNz788OhaKieS6Pyu1/jEp0SgLcHXR/IaMgiM0dp7siYtlj5wsq2iYd8gTy9fqPXL2b1Bq/yZj9Gy0xnCCmcEY2B5TctV9xoA1svS9sorLW2OwdBk3V6HJCw3n6NZwyPXp94DdWsAz/I6BG28WyzqjFe7rgWzsA4d6+4FPB6mRseNn0BhV+8uZPixIKqXUoX3GyFzGQeyp5c0GHwg6ntbWqdltwNCCU8vWbpgIVIwz3GCXIGgObdqvxCsPSk2cwpX00ozGZA8drfCiaxVefLOsEg634XCkdCOac08azZI5uetNJV/5vZyDb8ltrPFAzB8saJEd3G0dU2LVPbKHDVNo/k3GTZJJC81fyXCFJi5SascrcmoaAxDswzHY+6RcA37OcSandhNc7xM3kzRmMewqOi0B5yQsm9nXbk5H7NtSuIgSqo/LqasxdrrZhmvf5tg2tcEHgi5uqA7K5dwFFzOVthX2f2EFb49mnzGW9zkimch08EYl33pK7qE3Wg+gYYve+DmKXP5JhaZf7O3j7OBKH68xJVKsWJGzrlR4+nlKvPZHJVf9Tk7VASnRjptji1zVQSVW3itr2HSFJiz0fCRSPvaHjp5uwFBNu1u4XL8+wfU0UgA/p00NSlUd8wwROutOPSkmMsHSMuMAtSef9/ob+nU4auwJXVZN/uTd64TTCZAk/jYrD0m49TrFYfCAIA3DMvjEfqW2PiopIbbN5QpWQUj2sNFt3Ixnj2vJObZLqU0PS5YjhWWs9a2KyYpe+VnZE5akrfdz9XwAjD9bVuFQRZa8W/aIqYo/+S25xw9Ijnc2cWvenNu6Rcm1/yN79Exvy5L53pI1fLzskeOlxh6cCduaQXDX5xTAYWilsXk7OSjIHNju9Lg+r0PnCXpmObn6eOffdvnWsuQ0NihVeayVyejyo76LcGoX331X7rYppZLGmDi1b43iT35biVcekBVO5lZIsEQO27KGjFQ+W5tS21+QW39YVtiVWV5HSxVecKPscQtlFeAPLc/OwWHvxcMVmrFMkSu+KIvN6zh6aKdcQXMM5+kc2Cw32QqSVuEwhRfeKnvMIincDcPYttQKfvU1BZh/MZLnwK6TEdKcpjmF8GSk31WaZmNA3DvPu6+5QDN6LGN3mzIHvudmXLoqZk/fDwpO0G08ruRbTyv52l1yjuGYNA/NKRxdYbRLl1t0POfodqMMMViHkHrURIXnXi0rVtx9usMRRgoVnnWh3BO3K/nSf8rFzCazc2F0nWxS4rXfKDr8i7KGjTP5GOPpOZd2P8/gi5NOAbex4eTJaZGZnTje556e8yYKY6DuhJF79plz2DaZcxhTXG5dVc9P4WuTXvd+DGxO0LiZOqzEa/+txPIfyjmxxzNGxvQknDZdQengc1r+PQBYUCpFMTnxrZqzEA4tblOt1FzpbYMjnVihQpMWyC4b77nYz/JZl4+MJX6BwjMukzVqXvpslHSZKTv52Ng6rpN7ZFOGwTccZ+ZflzkFEU4RBVzkz5kTWR/m66a3l+Fb8nQEAMpB3mmYi5PAqdGlGWucxXwawsAFQXaFNNcpsf5xJdfcJ7dxv+TGJRu5HSCSBhO2rfkgmHHvIoszZ4R0QnU6dQqvLQkv3RCuuQpkj1vgAZevBe4kiZyv8OdWNlahaZcK20IP+DLBOym38ZCcI2+llSAnofPlLFzwotsUOEkAaMqBN+aqo0odOdCzs7G7XZmMD1gK11YpuW9HXqZkGV92+9btZHtrtxPrxgcDFwRTcaV2r1Dy5R/KrT/ocUuZTFJn9xAIAHPaLUOzEM41frhILM2EFRTIGooGq/egZHaDzD5PipaklScZjB7pp/BMs0Vu0+lZJmQhR/AoKwVc72S2kwWELEfZkrdzk9zmhpPGcWavmqvE3u1K7Nqclp+nx0LWyL18eDK8WOdRpAELgqnDa5RY+SNvUzfb1joDvQ7vXFlWvRSvbt3ylo1YLFutiJEbGkcIcJSWI8tGWdEHnQFFydCpskqnSuwugYNtV1a39qjZM3yyllrZqh086y4FUG4hXu+DPpEja2TTic2rlTK2iO1Mq3J80+vHjmN8/TWvelZuXU0WThBGIH0Ocq8zgy85efTrrHgDTzGCHWBTrVKbn5JbvVVWKL0E7qyWWd65qZQxTsasRqFcmlZvy5A1JObtBUbu4zQbTXGfmEKgJMFecdgwuVUhIxbBE3ZLoI+lEt5y+GRxGS2ZBTe9ooCxEe1JCgBoSKERo4xxPAc0mV0nnFWNDM7fr+u65pzgphV/UfENd3p7iHP4AexJKbJ9Y/z97digxOY1xrt5SxzqigF/OOSZcEVisopLxLG3gLQ5ZL5H/TUAwRYad3rD7o0jb8nZ94yUSpsk9IB2lhWXc3yr7HEXyork0PJinxeOyS6bq1RkhSw3LsutlXNghUJTr/E8Vvdq9veMoK1IqTGVsdp3HOplNZvdJH2x/O6UrsHL3lGgp/JhukA0qsJl1yg671zjgAH5W3L/DiMDdGpOeEvgREKYkDQ+/6hii5YpPHXuST+83Kk9oaYXHlGq8oinFAmHPRtZczZJufFHGB4zQaGxk41HGsyE6u/7mZKHkc/3gFtlvJ2GMPA4QSchZ+cjcmsP9IpcbqpZzoF10owTUsGw3GmxM2T6hUpu/qPceK1cZJH71ipUtUN22UQp1AdnkVgpWbaTXcoYduSi1Q5Cv6YAQJaPW/sOlUDx0NxkDmUKjZmo8LR5BnDgBs0ulIO7zJ7k5L7dSh3eKzTEDY//QcXv+ojx7NLlls8OGeb3gDLFN76m+KbVCk+YKntYhSLjpyk0arxCo8YpVD5aisY8UAxHjQ1h03MPKnX8SPfNXFzsb8PetsDTAIQDDgTZZ5g6uFKyPA8uFlpg1zIis5Z7RIRYvvCK+7Tks829EmY57dQdUmjohE53jljDZio0/R1KvXW3OSLQrd2l1Lb7Zc2/Q1bhiE6/7bzLucL8wU1ul5SUFXHkOsgh4QBduSnvvi+caHZejuBtryiAV7aCIm/rZE8SQt63e4tSh/cpMntxegcS/ddRaPRERecvNUtMs7/2xFFvZ4XhtJgcTxb35FlCFN/4IXOAkz1spKziUuNEwRy8lOnGH+318UMGMI3BeA+W6XiV9k7JO1n1yd0wAw4EkTvYYy+WU38fGzbTNcNvsx+YVfz7tj4g2zzHhVX9TjlH35Q9emGnmi+roEzheTfJOfyKVLVFSp5Qct3dUpjn75UVS+8/bpnF0pwby1sP0VoLlHmHs4fGGrn1R9L2jQB2K9dn7u1QWifS+jwzieC+f1DAHlbe4QS4/EtmmaVv4/LHFJk239sjTL8xhvVRcwg652HDjUmzvZnd4F9rr88/r/ximrOHz70iL+4W+XrirdcU37zarGa6WyoYGytWIA6OP1mcbWe1Hnja4XCBIos/ptDM62UVDfUUFkZrm/bbB4jQCly7urdScnY/LLf+UOdmB3TGspmKnP8JWUNGSSFLSlUqte6HSr76L3KOrpWLpjmVlt+l4nKbq+XWHTBLaDzEZA0oWao2SkyyxaYAACAASURBVE24LU87ezCG0uk6hFy5dbvl7HzUnGcSuM/KSsV+8NCSVTJM9tARPR7ELD+bX31R8Q2veYqFzmqVVkycPC4QBhP2Ng94SCbkVB9V/RN/MFsHe7RqAQQLS4yMsWXZ1ln9+/hd6Ktf/epX+zjNk5scZivREllls425Cu6n5MARJrw+YQAwvUrI495NNhrvGPbIczxu0F87t6mFZd5ZJZOMFkx1h+Qm6qQ4ni+2yT38sty6ox5nWblNztHX5Ox8TMmNv5OSdbLLz5KynN3qNp9QautDco+9JjloubOU203IrdosKzZcVtkkWeGiNiULfvQTCqSSSmxZq+Qudvj0IPj7c+trFZk6V3bpsB4Dag9y7+Enrozy5MVH1LTicSmRY7LvKnXXVWTcFBUsu0Yh6p0P+HaVZjfeD7jlsEE63EoNnSDr7M/KGjZHqY2/kXN0jScnNP7cMpaOACFWJ1xxggp36P+GUMlqOTsfkjP6UoXGLZHChdnJZ4WMFjk89T2yi6cpufWPcnY/KSVr5VRtkXPCMyZ1rZgsQJm1dxGgOd4TTnZIFUv8vXKOrPDKTbkygyk3/+JyE9VKbbpL9tAxsiZc2SrkzIwf3J9WCnBwUXjkWG8rZQrNaLv2zKd0TkrxjW+oedUzhiuyijj/Iw9uLJ+0T0IcswzetVmNzz7U1oSmu3nhr5BD4ItLutzL392k84k/AEEwXS3DERYrPPVqhUbNV3LH7+Rsul9uvMZblmZ2wpZ+lO6YLb9JC+3cEaU2/EhW6Vdll01vK0hsT8VQVPaoJYqUz5U7/w45u56Sc3yt3PpKI6uxZBnPMtaI8xWe+U5ZJROlcDtnmMz67AY59Lrc6o1mW16mvLIlyxZgTMqt36PUvudkVSyRhTY76wctXwY3p5ICpi/GFJowXRxh6TTU9swlFP2ioV4NLzyi0KSZii266LSdxdsl+djPXHlEjU/fb+wXeyyqgXYcHzByvOzC9M6pLjPv2wgDFwShA0AQKZY1ZLLCcz8rt3yJUvuWy61cLTzLGDkde4QxODaqYdTF5kPvTGD/3m2Wc3yVnG2/lTX3k7KKOAKzDVK2Up3n4QJZIcwD5skqnaZQvF6cOWvyMMWKSrESWRFmNrQ0cHR+oAwscTfJ2Xe/5HJQE1HSckC4VQppLv493zTLOfKy3JotsmLnBCDok7O/XG1WJ8NlDx8pB5daPfUw7TpKHT2g+gd/pdCwCs8MJprLmP80VZ4zfGpPqOGRuxVf83J+XptyFtWSXVRsNNAoR06HYmRgg6BPWACJv0nXyxq9TG7dDrmVW+QcXy+3bpOcoxuNRte4xecbo7VNf2zuOS6zVqmdf5LsIQrN/7isSFEWAPMzBLSw9PfyVXQopwq3XQEZrXBGfP8Wxw+NR5Rc/yM5JzZ5jhnAOv4IHcrmPwcHD8k5/Krs8rPThtrpd8GlX1CAw5DC4yYZUxc32UP5GP0m3mzki/UP/VqFV95iToXrFxVMFwIzmOY3X1Tjcw+JHS69DaHyUcb20Nt62NvUuv/94ADBjHpb0VJZw86Shs6WPelaiQPLN/1MqW33yI2nXRH5gMN3Gfdu4rhSO34hN3lY4bmfklU8sRs2gJg0ZBQkx63bXKnUhp/LPf48PsW9bzK/6+zebZJbu77z/c458g0en3wK2CVlZtdH8+qV6cksszG7kb+ZQF01v/qsEtvWeWcDMzn2i2AZW1lsFnvtRJY6cTrtJO9c49NVvUEHgmaJzDLZjnqYhAxv0g1yqt6Q0MJySFLODsU+3RNy9j+gpNuo0JQPyh4+TwoVdgMMszQl+blJuQ37lNrzoJwDD0jJBll27jNQWlJhHJklOMv+abIrzpeswddsLfUdyDfRmCIzzjI7HwxA5OxneVQS5wVOXCm2oBF6iKd55NT9KD4e51rt5Jsi8sCCQkVnL5JdMjTfr/o83uAfTaGY7OFnKTTxFiVrNkuGG/RbMQs9Acnmajl7HpRbu02hyR+UPf7tsqKo7pHv2bnlhW2SSy+PjdMFvObuVXLD/5F79HW5DYdbY3bo3J6RrAfm6ftIRKHRN8qeeI3sCg5hj7R+H9z1GwpY4bC3w2P2IjW99nwvZWUAH9YModPmXSUXYTFubnHskCtSPs9t2yz1Y2ct9bbM5fPNSYgz+EGQKdQOy550vUKNe5Ta/nPJaZBSTtouD799xKHTZdzbzXKr1ym58Z9kH35E9thrZI9cKsVGyQqjxcrYlpKtYTgXONUot+mwnENPK7Xz13JrmdWbpIiTPU8A0eEcEswFJknRmbIrpsouP0dW8XQJG0E7micIZytU8OykUgCj+oIixc67XPFNbxqX+D0W9JNWrMBwlihI+lNwGmqU3LFRqerKXjl5RRscPet82Zy1YxiM01PLMwAEIaxlNLWh6R+W23hQ7rHHPc2xb0bTYoqS3mli2gINbbOURHP8otwTq+XsnyGrbIHx/2cVTpMVGS4ZDTAmMChX8EIdlxs/Lrd2n9yajXJPrJdbu8k8M7tCfM1vtjytsKySsQrN+F+yRy4zy3BjHM2hShbg14FtPD29Jsg1JwUw94jOWmTAC5lej9exLBVjBSq68t2KzFmcM79T/oLNUof2qv5//tM4eu1kTdVl0ewRY1Rw3uVmW+Dp7NtnCAgCblFZBSMUnvVRJRP75B7DSJkla9qAGm6QLWsOS9D0c5qRe6dRrhrkHj0iHV9pdqwoOkpGCROtkCKjpUit3PoTxnjamOY0Y6Lj2Q62pOenDwD63KeRG1EGfLQVKTTjdtnjr5QVG5XuRAHwdTma+lMEDuIqH63YgqWKr33ZHCCUWwbdScFpdpbCRSUKDR/ZScRT/8qtq209XoL+2+3J2fOhGJkxX+FJs3rueKKPqn7mgCAEQ8EQYb8xnKHvvDQ9lwFQBP/qc4nmYcY7nLoma2W5DXLjeK9hHY2ckDjen5vE+7QjK5zpUy0jjTb58MOVIsNkV1wne8KHZYVLe85BmPIG/04bBeDgIhHDvUWmzVV8yzrP9X63geK01eDkZ4wssKxcsQUXeAqR0+RR2q/omQWCwl34fil53K9/968wihzCjvF1GtdMIhn3ueyss2ZmNL9DZI+8QqFpn/TkjfYZ1ixZCTOAH1q2cTJaePE15mwO4yF6AFenz4tuSbHFyxSZtcB41e7z9LuZYI5tEd1MZaBET5upKFXTWmKWHafjj5Pvwt6OF3vEOxWa+hljAmMUH62lC+4GKAXYPhc95zJFZy5Mnz8yQCuStdgZM37W9508NBrhCmMEbvwHdhL1VL06s1gONLbNh80pc1bMXw6fKlK3zcdNWrKKKmSPvUWhCZ+RomU9kK20TTP41Y8owDa60nIVvfN2c+5GYs82462o+yVEJs2ZxnzZC/DpfsbZv2BZ39NiuK7s4lKj7AmPmSIr3D9Mvc4sEDTNmlaA9LQhs3eNbj7FHVhMVsW1ssf/tRQdHtj+dZOC/T46ssFwWJFZi1Rw4TvMOR3GgDrfPcU43G1qUNPyx5XYsSlt4H9aO22a5Jbc+hqljuyTOXA+b1kn5/WEjaw0dt7bjWv+7itUTk6rn1kgaDpmxNNs5XvYfcvM14cdkDRDBbKHTJFVOOHktGyQ6umnAF7QS4Yqdv7bzF7g+IbX5cbj+XF0HLvQ1KDGFx81p7id/sqkS4DoiLLhLqw75wRzVs+IUSq87HqFxk5Ke3LvH7U640DQHK+JMgIzFRq000C8Qm8WNq78+2AJ7WNpIZ5mfDOYTgsRvBzIFLAshcdOVvFNf6XUsYNKHtjjLW/zqRPmJ8mkseLqOnqXnbnrJFpi+J205UHHG2Pa1fFxrid4iim58a9kdoeE2ntWyvXVqXl+ZoGgQlJstDnikAOOsoe0liRUIis2VfaI66XISLkNW+Q2bkzLFBvkpk54+5CNgARNMbaFuOxipu8iuBxdOExW4ewuIgavBwMFrHBUkRkLVHzTR1R370+VOrg3jwnYr3l6+6X/07/atsJjJnlHbxpQ8V/0wdWylNy9Vcm92zw7x14l6Rov2YWX3ajYuZcbA/BuVL5XOef78ZkFguzIKJgkxUZI8R3pZUka9NgGh2MCKyIrVCZr6CWyKm6XXbrYPMOFv5s8IaXq5NZvlhIHvd/JY2l5TUpu/Tq59WvT4NgJyIZsWcOvlQpG59tOQbyBTAEOKo/GFDvnUjlVR1R3313eAesoPHoacEk/4yyVvO/T5tD2rlc13cjIlRqe+IOSh/YYt149lt0h9glHFV14oQqvfLes0rJ+qSk/w0AQTnCcrNgEuXWve2BlxTgvUVakXIpNkl16kQeARbMks0c4TSI7LCvEIe2OrKLpLQ5UW7sW7vLfUGrXl+U2rE+fe9L6tuWOpXhoqOzh18oKcUpdEM4ICuBCvqRUBcveKaem0pwd7DYne2URkDy8z3xvDRnah3JD15wh7Jw4JiWae860sTKybeMdu/j6O4zT1JyOik9zBzjDQNA2wGOPvEMqnGMMBK3ISClULCs6QoqOlsIj0g4SIu2cJGAlTWulHSdkEcFYxfNkj/u8nEM/kVv/pufItX0D2yWyy2+QVTglcInVnjaD/TeKkmEVKrr6NrN6aHzhEbP/tkecFudv792u1ME9socMk/DK3AcBZ7DO8cNK7tuRPjckS0fPIx+2+0XnLFHJu//a8459Gh0kdFXcMwsEQTE7ImvoMoVKL/CWw8b3IGToA7vxMBze22UVzZJz4Idyjv/JuMX3jtxk1g/LKporu+J9Uqgo8AbTVe8chO85kClUMU5FN9xpuLiGJ++XC8dlDmfqRoU5jwQTGg5lGjdZIVzw522ukiMfuLfmJnPYU3Lvds8esLsYmD4rOTpnsUre9ymFJ0zvv+ekpMkw8I7czNF+3XpsgA/Hq8gAAcDutnSu3Dz/f+z9tYecK7tkiSSOyMScoElWbLzsMZ+QPYxDrTEU7at8c5UneN4vKcDSuKBI4XFTZcViAnDcOMfGdiMAeJYlp/KwwmMnGSD0zvzteZ9yHccoQ+ruv0vOoX2eFrubwEp9Ci68UiXv/rgik2YaW8leg3M3yNKTqJZrPCT25NPgm04pgHNWh+Myj0vxQ3Ljh2WhcS6aK8XwD9fzztppvsHLAUMBs/SsqVJ89YtqeOJeJXdtMa7r8/Y6A0DhumvmApW895OKzFjocV3dPbfXWDY4Su7ZqroHfqGml582pjn+wWF5EZTtcOXYAd6ggkuuU2gEVhh9s0TPK/9eRApAsBfEy//TDDMHg30BAOZPu0EeE8PjOEvQN1X/p58rsX2DxxV2Y3mM5jlUMVYl7/9b48uQ83utUCR9hm8nfc0c/ZqU29RodoDU3/sTNb+5Qm4z52Z38l1mk6D5DoVlV4xR8XUfVMFFV3lHZ4YGjqQtAMHMBg3uAwqcDgqkwcg5st+YpsCJJQ/t9fYadwOM8NBceOn1Klh6pUJjJsou9E9MzFIp8kzEDfjF16xUw1P3K7l/Z1o2mZ+xNMvn0DBcYi1V4dW3KTJtnpB55g2gWYp1Oh4FIHg6qB7kGVCgPQV8rqymUvFNq9W0/DHF162S01DnnefRJRh6MkKrsFihkWMVnXGWwtPmKsyh5mWYf6WXpvFmuXXVSlUdNVxnYut6A35O3Yn8zg1Jm77g/AB/iQWXXGt2gdgsfw0A9oGCsT1tTvLvAARPMoGD5AMKdJcCLEedE0fVtPJJNa14QsmDuz3japbIOXc6pXMBpFjJoqXFK/WwEeZAeCsGV2hLTfVyak4oVXVMDmeEcBAYjF9XIMt7PF2Hw+ZMkNiSi1V02Y0KjZ3sHQna3Ur2o/gBCPajxgiKElCghQJwhsmEUvt3qnn1cgOILFedupr8l8mkAWgaRwcG6dJmYXa300DJwTa92OKLzM6XyJS5smIcRTvwOL8WGqdvAhBsT5Hgd0CB/kKBNBBiD5g6fkjJXZsVX/+qseODi3Pjvn1hZzK8DKVcZr264vzg+iJRWcVDFJ06R9GFFygyfb5RwPDMivSBXWJmeU7jfQCCp5H4QdYBBfKmAIAYb5bTUKvU/h2Kr19lzi9hd4fbWG8Mp40b/1TKbHsz5wK3T9zHykzFL8tmuDmcMITCxqyFA9E53Ck8cYai889VZOoc2aXDzUHp3rI5M4H2mQy83wEIDrw2C0ocUMAoMdzGOiUP7jKKDWwMHbjFY4fkVB4TZwObXSgG+DK5Qf90uLQiBblhWbkBPbtitMITZhh/f5HxU41nbAOOg5zePQLBeDyu+vp6HThwQK+99ro2btygvXv3Kpn0PJValqWRI0dpzpzZWrp0qSZMmKCysjKFQiHxLggBBQIK9JYCuN13Zbi/JGddN6f/mjyusLlBblOTt/83lWyrAIHjC4eNTA+5nlVY4nk6x9s5WuRw1DsGEw7xDBiveYOgw5aaZFLHjh3T5s2b9dhjj+mZZ57Rvn371NDQoEQiIeIQALpIJKKCggKNGTNGl1xyqa677lrNnz9fw4cPV1ERW8kGbmCTTSqVMhNBTU2NucbjibRrLq9ekUhUI0aUa9iwYQqHB47h6MBtlaDkLRQwO0Dg/hyZDWH8zgx4WAfczB9Ax8szlznJGwSbm5u1detW/eQnP9EjjzyiXbt2ZZK103s4wPLycl133XX68Ic/rAsuuEA2luYDdJYB8Pfv32/osGrVKsMFA4ZMAtSJPldRUaFPfeqTuvLKKwc86HfauMHLgAIDnAJ5sSgnTpzQihUr9a//+n/01ltvqa6urqXaDHr+4HbC4YhCIVssl+Ea4ZYIgMPx48d17733mu8//vGP68Ybb1RpaemA45Jqa2sF8H3ta1/Ttm3bDC2oq88FU18AHi5w7ty5hiNuIVZwE1AgoEC/o0CnIMjgBvD++Mc/6rvf/a4Z9D6wAXolJSVmuTt+/HiNGzdOY8eOVSxWoH379hpOac+ePebKchlOEm5pzZo1+sY3vmGW0B/60IdMGv2OKlkKxLICoFu+fIW+/OUvmXr4tGASyORsEQOcf/75mjRp0oAD+SxVDx4FFBjUFOgEBF01NjboiSee1Le+9S3t2IE7+lZ5H6B300036aqrrta8eXPN8i8ajRquEHA4evSYtmzZrEcffVR/+ctftH79egMigOGhQ4cMIHIPkA6EAAAeOXJE3/nOtw0AMkEAfiz14WhHjBhhgJDnTAbXXHONoEcQAgoEFOjfFMgJggj6d+7cpW9/+9908ODBlloMGTJE5557nr72ta9qxoyZKikpNoM9U/PrLwfLys7TvHnz9N73vld33323fvOb3xjgePe7321kg4DHQAmNjY16+umn23DDADja73/4h89r4sSJLR6QoBHa8CAEFAgo0P8pkBME4XpYAq9du9bI9/zl7w033KB/+Id/0MyZMw0XBOC1D60ywrDREAMKX/ziFw1QbNmyRR/96EcNSKBBHigBk6A333xTyARZGlPHs89erG9+85tauHCBQrgTStOCd0EIKBBQYGBQICsIMsiffPIpYwbD8o7fhYWFuuqqq/RP//RPmjZtmgGBfKvIshDt8Cc/+UljTjJ06NAWwMiWBvm1Dz6w+O/8K/H8d/61/bfE9f8y3xHf/+O5nyZXPy3/CieIjNMzhfHyfO9736PZs2cbhVDm99z732Xm59/7ZfHz85/7ZfG/9d/7V/+9H99/zjXzHb/9Pz+u/95P23+e79VPj2vbgDw0bXKRfuHH4ern2/ab4FdAgf5DgQ4gCOihyX3wwQdUXV1tBhNc4OTJk/X3f/95owDpyUDiG9JhmdjV95igIC9EDgd3xXexWMz8RvPMe3+gQUrSYzmO/aHPjfkkpj4oZuDkTpyoMiBGnJIhQ1Q6ZIiKi4tN2qTR1NTUYu9Ier6to5+WpwFuBQGAHXD0FSR+PMrKt5S7faA81A2OEkUR35M3YoUhQ0oF1+zLVqmnX1/ioHDhj0BZSIvvuffrTzy+IX3eJZJJ866kuNjQBxoRp7uBstTXN6iurtb0C+pM/ZjQEAtAR+pMu0BvysY9deEvGy26W4YgfkCBk0GBDqOUAfTGG28ag2juCcjubr/9di1YsEDhcPq0tR6Upj1A5Upiz569uuee3xowxuzm6quv1oQJ47Vu3TqtW7fegJkHSF4KgM6yZct0/fXXGxDkHWXHlm/Dhg168cWXtGHDWzp8+LABOcoBGKO9xWZx8eIlZnfL888/ryeffNLEAWyQXSLzI2SCrv/7V7/6tZYvX25AyCuJFw/TmA984AMGIHjuAxbKojfffEOvvPKKETMw2WB+RPnhtCdPnqJFixbqoosu0tSpU03977nnd6a+ABeKqMsvv9zUEVB6+eVXdN999xrAIQ3EDKRHPdauXacDB/abuHzLDp6zzpqviy++2MhpqX9XwATQMTGgFEMUQH5bt24xeQDkgBv2kMiGL7zwAp199tnCUuBXv/qV6T+O42r06FH6zGc+E8hI/Q4yQK/0/8w/+hTjqCcTar8jAWeMZIbKykr3m9/8pjtixAhYHvO3bNkyd9OmTZnRTur9888/7y5YsMCNRqNuaWmpe/vt73dvuOEGd/z48a5t2y3l8ss3ffp094EHHnSbmprcVCrlNjQ0uKtWrXLvuOND7oQJE7J+439bVlbmXnzxJe69997nfuMb/+Ly27Ist6JipPuLX/zSdRzH1HXHjh3uzTff7BYXF3fI30+LaygUcq+88kp379695ju+b2xsdNesWet+5jN/41JW4mR+49+TbywWc8877zz3u9/9nvvwww+706ZNM+UpKipyv/vd77rJZNKkW11d7f74xz92ec73lOvTn/60e+655xq6kZafrn8l7Xnz5rn//u//162qOmFolashyaeqqsp98MEH3auuusodPnx4h/T8dD16Vbi33nqr+8ILL7g333yLW1BQ4IbDYXfu3Lnu7t27c2Vzyp/THl39nfJCDYAMk8mUS5/buXOnu337Dnf37j1uc3PzACh510XswAmyhFq//i01NTW3ADbcx8iRI1t+n+wblnY+18gyFm6HGYclViYH6JfjnHPO1eLFiw1nwzJwxYrl+tu//V9Gqw0nk+0b/1viv/baa/r7v/+cRo0aZTgfZjxWjJFIB/L4n3V69c1+SIf8V658WV/4wj8KpVBDQ8fls58Y8eFgUUaxNXHOnDkthunQA7r4AXpk/iYfODBo1F5c4H/Dc3b9/Nu/fctwxV/60v82y9hsHCHbI3/7298a5VhVVZVZwvvptL9S7srKSiNDxg6U+sNFUkY4Tr8t2393qn/TD+Bg24sv/HJQD2gKh8t1UHA5fuV6eW1ubtLrr7+hRx99TIlEXMXFJfrkJz+hsWPH9Jv27WkVO4xyBsrBgweUSiVN5VgWsgxG5pMt0LH4BmcKDOCedBzSYOCwZGsFHk9uRYf1Oy2DCWPs0tIhRnZGR2UZ+I53XKny8uEGcJ566il99atfNdv6KBflYZCz3ER+hT0fMiuWogAscZqaPKUH+6AZCISu6sH76dOnm73QluVryAFP2ywRoRuA9MYbr+vrX/9ai20hdaUe0HPIkBINH15u6geIAMiAGX8M1tdff90AuF8Wrv59+7aARtSH99QXEQb0RNZI2ocPHzF2n7QRoHb33f+t0aNH6447Pmho4qdHmSnHL3/5S/3gBz8wYAlNqBcyP8oNDbliSA8dfRkg+W/fvt0k5QMKP3ya+nmcrit0fe6553To0GFDV69e3jZHJj1+QzsG9owZMwx9Bvo+9+7Qmj7HH32APkof5o9Av43Hm3X06FETZ/hwdoR5DlO6k0d/jNsBBCEAChEGFYTA4QHGvwyAbAHiAIBf+cpXWhQpAAvgRKdi0DGzEiAwzwmZzxlEyN4++9nPGlAwEdr9oywA2ZIl5+id77zGABDpkp4nqwxr06ZN+tGPfmTkgD7YUG4GO0bdF154oaZOnWLKSdzHH3/ccIEMZurNN/kGwOav//qvtWzZxWbgtH7nGqcJlBUzoy984YsmD3+CoMw4VXjnO6/VBRcsNbI/aI3sEjtE5Hlw45QHOhKoe76B+sLRfvCDH9TFFy8zwH/gwEE98MCD+vOfHzIAR9qA189+9l86//zzTBv7edBGlOFnP/uZMWonX3+ymTJlqm644Xqdc845BgiPHz+mV199zRjDw+UCMv6E5X+Xb7lPRTzKt2bNWm3atLmFtuTrTyw+KAKE9BMmV+rKbz/OqSjn6coDgEPGXVdXb2T/yKaZ6L3Q1pICegwWmnQAQToCnYVAJZkJGFi5KgxwoOV84403WnaVpKnWrQtcGvkad+DtvvQB8H3ve5++9KUvGXMbBibPKRedFCD9/e9/r9WrV7eAGbP4WWedpW9/+ztG8QFgEpcyX3LJJbrtttv0m9/8t37ykx8bJwjUvTsBcJ07d04LsHvfsky1DdBiHL5x48YWDhk6nnfeefrnf/5no0SAttSDgILm/e9/v3HK8J3vfMcAendA2S83Jjvf//73tXDhQtN20GjhQscoRBYtWqRvfOPrhoMDYOHaVq5caeL6nD7Ko0wAJF2WtOz1BtArKkaYSY10Kd/ll1+hO+/8sL797W8bkAX42wenm3Rt/33f//ZMd9DEMyHRLgQmB7hmmICtW7cZzrq4uEizZs1u18Z9X6L+kCITI6KbysoqU9+pU6dngGB/KOHJKUMHEPRkYV6nABSY2bnylwsIKRqDCi6CkBkv13cMIN75IZOD8J/5VzopIIGdIb4JAY7MPOi8DN4//elPLUtC4jCTsU8ZIIQDY+BmBpbgH/3oR4zpyDe/+S9mmUha+QbK4HOj7b+BO2ZpDjhTV8B31qxZ+uIX/7fRZAPI7csDaGOMDi3ZqoiPRp8bbJ9++9/UlyUwXnqQjzLAM9OnnLfd9j6tW7fW0ImJi7QBQbhGQJD2QwP/0ksvmXu+B6jf85736HOf+5wxk+JZJu3heKHjV7/6FbP0BkCZzDIB3O6BSU77tqj9SAAAGMdJREFU+vXlb7od9ZgxY7rRtiOWwJUUfXDnzp16/PEnjMu4I0eO6pVXVmnChIkGKJOIZkz/cGXbIdMP6cPQkfblj3R5Rlr0Ja7Qi+f04/b0878nHvd+GtSXdNGwM6n63/Ic2pI2f366fJctkKZfjlQKL0dqU1a+IW9WKuTHvT+Okf3Rf+k7pJMt+N9ypQ9Sjvbj0/+OchOPfEiPshOfv8w+RXn9ODwnPerPPd/55fTT4B1x/MDz1jp79M8smx/Pv3agHAXzbclIDCLwx31mQf0EeAaRUJywjCMwoLjnOQT1iQIBfILu3r3bVIb4fhq8y5YHlXzXu95lZqVsjU0eeLnxjJnjJj9MN+68807B/bQnsl926kq897znVr366io9+OCDLYoIP05PrjQ2rsZY4mYugz//+c+bJSrAkS1AJ8QPuBxjuf7Tn/60hUbZ4mc+49uJEycJJRFcdfsADQBJxAIvvPCC4d6Jw5ZIAJH2o52fe+55s2SmvQHquXPnmWU/dqLk0T7QXqTNXnLMqFhOAaT+QGofv7/8Bligx8SJE9rIRMeMGW24wWeeeVYoA+AIkZEyJnbv2WNAkv2RiBygCX2OyYodVPwm0Obsj+c5tKWfkdf48RM0atRIMwZ4RqCvbN++Q3v37lEymdK4cWM1ZcoUI8MFkEkLkGZZiiwWesNt8w6OtaCg0IA5fjt9oDAJp8GNdmCsHTx4yIxJ2pAykAeTF+VAlvvmm6u1ffs2NTe3yvXpv3w/f/68Dn0KMKXsmH1hNlVbW2fSmzJlksaMGWv6hF9H+hJjH0zYsWOnDh06aH7Tv1hNYRoWi7XakrIs9/JGlBYxdWdbKnUnHWjOll7AkMkeP6XDhnnbVAE/aEadEQMxIWPMX1Y2TJMnTzKrSPqrXzZo1QEEscsrLx9hOjyJUSBcRuEVJdvgJUF2kPzud78zRKGgEIdrZoAQZMw7iHHrrbeaivKcNGjE9tyL/z3fzZ7NsjO7QwLSA8RImwCYIidkOxtpty+Ln65/pYNSHlxkoT3tTaA+dBzkTtCOMlEeuNG3v/3tZjB1lT5AyNL/17/+tQGmruLzHhrREcrKOgKg/z0DgOVsUVGrkgvgo7yUm8GwevUbfnRTVuRiAFxmp2mJkHEDjbFtvPbaa01/IU0/kHZ/C7mKRFthk8qVftXY2GSu1Oet9ev1l788oWQyYUQIaPCff/4FA0Zw08jOGaTPPPO0li9faQCCQUlgMANiyGmxaaXP0R7ER6P+7LPPmQGLnej48VvMpM7yFE4QcIO211xztZHV/eEPf9CBA4daOEEA4sYbrzciFvo7AZpjJwuYo2ADyAFZON6iokLNnDnDyHf5FkXZww8/3KIwoi0pN4wFMt8777zD1NcknP5HHJyiAJ7btm039SDvUaMqdOut7zFiIiYOArRD6fjQQw8bwETmSPnoU4x5xuk73vEOMyHxjLh//vPDOn68SkOHluqmm25s6YOUC+uVv/zlcaPoo29ii0rfJ02+xekLdrLUGfoS/Ha94orLW1ZK5kU2ECwoiGn69GlavvylFg4QIiITygaCEIMM6AD5BJAZToHZjELzPZwjsyhLL363DzxDy8kSJFsgTWZd0iPQGMwOgHm29NqnQXwMp7NxUO3j5vObzoZsyW8AOjEcFTNfNm6qfZrEZ6amTHASfjrt42X+pp5dARXx29OD8vh087XIfrrsYGEyydUufjz/Srx58+abQes/49o+z8x3p+s+SzczRYHWNTXe4KHc9A0YA2hE9+I95mObN28xkzgmT7QXExfc0IsvvmgUXOyu4Xt2FTER1tbWGM7k8cefNLuW2ABQWFiQTrd1mYicFi6Gvl5aOtS0P/0bjjQef9CAWE1NnZnsGOTkT3wABkYCzorA+ALYXnvtDcPRwjEi/yQ+Ex8ARp3Y+km/ofwAvt/f6Bdwivxla3/q+vTTz5g0qCNACtO0b99+3Xff/Roy5A4DtCzBd+3abZ4xaZCnL0Kh/Bj3Y4SPJ3aAHPkzcaAzy3HHQUzQqrDkHc+8954yk4mC38gyEWWQHsBLuakz6VBeuFAAmPZCZMR7QlshmWTYayIwU/kBN/os7yhArgAh8/mjQXGtRSFJj28oKPIy7nsSYItpWD+QDiw54JxPID6zFh2+LwKNlmk+QIfCyWq+YEB5KDucQz6g2Z0ye03Y2o6Z6TNA4H78APdC22TG8d9luxKPZXW+8bOlcaqeQQf6H32HvsgfdYf7wk6T39SjoqI8PQHTvz2NKKDGoCcNFGNokOFGmIjhDBlwmHotWbJYH/rQHbr99tsMJ0V6TDRwfTt37jADl/pifuT3DQYpY+H977/NABTMAe8YyAxi+vnNN79LH/zgB4ycnAENd8QS09d6s78dxmXNmnWGuwRMWYXArQI0tCnLXjjQjRs3GW6MNOH64RKhC3leeukluuOOD7Q4S/HbhvfQB5EAu5jgFC+99FIDbgDS/v37jJ0rzAA0ffnllcaZMuUEMK+//lqT7uWXX2ryo05r165p8dBE3u3//Lw9erV/701OTAbUB4xh/FxyycXGBOzWW9+tSZMmmiQwFcMnKDoEP3QY9XArbH9iVvG5K4T8v/71bwx3xfueghXEw5QC9/wUlEBacG243OosQJRcAfDK5OLIp7LyuOkcub7JfO43KrNJXwTKmsm1epyA530mn/QpDx3Gn5Xz+aancZi9/QC3jd0inYngl4Hy5xOI5y3h2sanPv0t0NZ79+4z2lA4MpaJcCasUuBcqDuiBbZUwg1l0oD25dntt7+vReZMeshT4WyIy/KV1RPgSNrjx4/T/v0HjAwWIGSZyRbDzNUV6SKjvPzyy8z30A25HzIwQIc+Dge5dOn5BqCxZ2Q8kW4i4SkHicd3q1evMYDpjedFBtCoD6Y/jOenn37WLI8R/5x77jlGpAVg+YwDMlNWdxjsA96ZTAblhGMDOFlOM4aRrSMHxUqEcPDgYVNmONItW7aZMjFO2V6JZQb5AMZskWV5CxcHiLPy6El3AXwpI5Ma5QGgscSYNm2qKQ8TDUpA0qbsTAJ+6ACCFJQGvOiiZca8g4EIcR577FGDrDRCJpfoJ9TVlY7BLoT777/fCP0pLMSlEzBDwY73NMDFjR49pmU2JW1mcwYk3FRXASCgM9E5+yIwOyNgpwOSNn/MunRQBgv17iwQDzksYNRXwJwrv8wJjc6B0NwPtD10vOyyy8yg95/nunoyxTdNPdvE6WQCaxPvFP2gOPRHVjdwLf6EBa354x2yU+w4zzlniWlHxoAfAAFkUHBsyLQIgB9KJr+9AAcAkD5A8PZYTzdyYrg6lo1wk5kgSDz6DhsCfDAaPnyYWaXQJxibABlx+GPXBmBMeQA+nCATj3Y4duy4KQvvaEe4MT9N3lFHQnW1J24hbY8j9VZjfOeXx9y0O4iJfuOXk7iUg/5D8MvCaghgrK4+YZ7xDjn5Cy+8aLTUrDyYeCgL3zD+PPp1f9IEtAE+gJWJg7TYow9NwACUIkww1BM6UF4/dABBKoeMDrOIJ554wjgeoJBUhh0EaKmwRaPxfEL5ieW6Akqg9N13/9YoUKg4AfDCjIWZwRei5koDIuUKdDRQ/ze/+bXpBOTHjI6NHssJKp2rrBAdorFEB6R7G8iH/HxtHmw35UEGg+kJHqczG6B9ftQT+qCppvNC+0ygah+/t7/pFH6g3efMmWuMyHnGwEewTl+AC2Hg5QrUEdBmqcdAzAz9zUQGzozgjXPuvb6FcxDqCQCiwECZxaBqH2hjaAHtaBvaiDr7QMkzwNGXOfE9E9/IkRXmG2iFNx4/fvv0/fLwHIDmW/JsnUv88vPMX0p7xz9QFsZanCM407I1nI7AbfljgD5P2b332U3CGG6dDDlT5NbyeCs6f3InXf8PkGV5Tt6UDXkdx/QSiMMz3iFq4J5nPQnkjQx92bILVV/PTqZKA7Zs9QMEWQ7D1aLvoI0z+33rCGiXMy7zOS3tC1/4gjEbYfn66quvGo8gX/7ylw13QCN3NUCpGOz373//P8Y1PYDjB4T/eBiBs+wqHb8B/W8zrwAy639mX9h7OhlaIrxZY7owc+asnN5vINiKFSt033339Yl5DOWiLjQIy3xmJDo7f9gsYueIpj1bfegAsOl4srnnnns6gElmnfvqvu1yuMTYzd11189a2nzVqlcMHT/96U+bsmfLl3Kz7OEgrVdeebmDGII+0J8C5WUQYPoBp9c6KVmC80KuSZ/yB3W2sucarD4w+NfMbzPT685Yz5VXZtqZ9wCjD/QAO+MCzrVt/p6ihyW1zyFmptFX9/64hh7ImGFKmFgy68Q94wE8oF0yOVKvHB7od1Ym8sF6hFUL6WBiA6fPFknEeqz0EFcgdkMuikWLD4Q5QRCAw16NZRwHLcG6Ay4sjwBG5B2YQ5AYnYiZ0a8w8hQ0aDU11WbTNQ4Qnn32WcPh8I7GGDGiQh/4wAfNdrneNgL5spzGjT/cKstgZju2oaGd+pu/+YyZ1ZmdqTiDkpkb1vyhhx7Sz3/+c8MN9uVgRXV/7bXXGQE1Ewjlwbbr61//ugAUOFefbnQCysOSCtX/T3/6EzNx8M3JDn6bkY8PDBwTypZCthPS5r/4xS/MFbtLQNwDiLBR/gDuu3fvEcDJREL8DiEbInSIdGofMOhYvuH2zOf2eAY96J/ZJqnMEravEn2YP4+D8rgxaOENao/LwaaONqW92YniL5Uz0+3tPeUHbAA/rz4h40JtyZIlRhudmT5lRR7augpr5cL4tisaZKaV/d4y6Xvg6y3ZkWfCHADSmTQkL+jhc9gsb3nmTRat5SIf6pj5Lc/AFcY9ogC4Z+qLghctPUojtPbbtu0wrvjI5+abb2qZ1HOCII3HjPh3f/c5g6QkQgaw2qAsqnxm/muueadZOsBxMTgIgItv+4SpDctMn/Wnkgz+j33sY0Zz43dA82En/zJnjvbRIBagjaYKrg7AhcPxQOUxU1YAG+0XcgPq8dZbG/Too4+YfbLZhPnt8+jubwD3fe97r+6//z7DQZMnoMIGfo4txS7xbW97m2kIGhDzARRGiCDgHrOCSXcLkUd82sMPdC6WDh/60J2mjZFLUg7aDyCkTfHZCIB75hvVevnll81EgkDcF3P46fnX/rcc9kvmAX9PwCiTk/MHMLSDhkymKCsAPThL3kMbjKJpa/pyRcXIFhlaa2l6f0deMASsrlA2ECgHWl80s7wnf8oIIFN3xnr7wHu8sdH+Hoi1BaL28bP9Ji/GG2IWVoBoiymLLyrwywJNoBvl4AqI0y95T/6YLDGeKTdXGBsUIZmBtLFrRARG2VHuLlt2kVHwIg+EEUHhhRnQjh3bjaadCZ3QsfYZKTOzoV353ve+p3//9383HCGNCfEANQbJf/7nj8yB7Hh2AdwoNFwN8SgYwlEKRaBSZHzHHR/SZz/7N91SsPBtZwGisebHqQFLYXZcQFzKsnHjBnPy3X/8x/8zDUB5fKcJ1IW/vg50HDgNONNPfOITRjNFHjQGRqw//OEPddddd5mJg/wBSa7QrzPA7+tyZi6HSRuu4Kqr3qHNmzeZskNLyoN8kp0m7AiB1nRs6Oi1s7c9LFe5/fbv67L3Pr3O+1Rn6Wf2R+5hAFheI4Oib23ZslWPP/G4zj3nHNMPcUqL4gRaMFYWL15kxktnefTkHWWBIUCeybY/+hWOfNl1AjAAesgL4d7ZdXHNNVeZ5SPgwzk5HuBhcpLUhg0bjcIRBU9mffMtF3I+QBD5OH2e/o1IDUBGr0B+KC5gSJCDXnHFFYbxYnfH0KFlxq4Spotv0K6DL8jY2d8M/mSWCbM06oAmHfrDANFPEQXQx7Hr9GWTHtfeOvl3CoJkAlFIiIOS2LWBCyZmNIw/ARn+CGwx8hULfqf3BwWZMrjYwsaSCpslKuQTPDtR2yJ99jitTykrMwm+D//lm9/U97/3vZaDkfxyAogQzy8XV76jA0+bNt2444LgEN6P05pD9rtc8fzyoGnHtRdgCIDQKSkPHYLGAURIIzMdOjH0wgs09l7IVLsK7dPoKn6u995MHDUae8rxX//1X4aThm4AtD/JUQ+/zFypLzM8jhuY9X3DWFOuXJmdhueZHFymAiKfonj1bRX6Z6YF3XC/hUYZT+ZMdiuWr9TGDZsM8EETaAeNiMOEzSDlGeVopWX7kjAO/Dz9d5ljw3/nLx293RHInZGFoRBBC0uZUJD4eQIU9L+ZM6cZxoQxii0rZjFMfHBa9D3MiK677lrNmjUzvdT38jbtmlGMVtr4CieP6WGypL6cRY45jGfQ/KReeeVVA1qUAcCCS8VDOWIy5JfIahEfMRbRpP/ud/9jAJx+SB0Ac2jsB8Y+O0/gBLEVxB7woQcf0pDSUjPeWO15Y73A4BBt5YdOQdCPxGAACHGiiNbsrrt+rr/85TEzgGlEBjTA5zckFvas6QE5CowV+y233KKPfOQjZrkFYToLCEZpFKzcSYP8SZtKdBXgvt5x5ZUaP26c/uM//sNoff0BTDn9dHyQgpjINTk/BTYZASqB53RsP3BPvSgLdeU3aXRWJt4B9myTAgx/8IP/ZxzE0rCZdCMP0qOu1Ju4n/rUp83s94//+I9meUy+mZOGl68361Mn3mN17wnF/VK3vfrlJQ9fdEG+fl0yYyMKwSCXsuDMgc5FpwPA/bYmPb6lA5L/0qUXGOe0P/3pf5mZnzpC+3AXJkGZ+Z7Me6+s/mZ8T2Pr0bHrXDPrCv1oCzgdP/Ae0c71119n/FOuWwf4II86ZKJAI/omg/vqq68ynLRPd9LCuDqZZHdKq0NhPvTpyzgiDf8b/533LfJ4j2Hx42MOQlloKxQELAN9A2G+YWcY5lDsCvID5QOwAE84f5R0TMAc08A2Oz9t0qQ8mfXnHX8sZbmSBzQhHt/efPPNxnEH3CnMCFwxwxlukL6DSRm4wDOvLy01IOjbOwJipEW/vOyyS41ROnuD/VMeoQ2rTACbcQ5419XXqyZticJ72geFL1vnMsVweYEgRPIIV2BYag4g/9jHPmrscJAFQWRmFm9W8wAEZEdLg/yIWQltqd+IPtFzXVkuLFiw0MwK7NOEK2IGzbfDQkQ4Eo4MRVmC+QtyTGSVdAbqQh6UCVdQ7FuE3b733vt07rnnmkYqKRli8vfzBBRnz55lBjWNyOyM7RcN3lUAcKDFt771r0YWyASCyy80V2inEeRSP5YdcLKUBy0awEM9mEQoMx3AD/zGoB0fibD5DEyWGAjccwXKyl5MOHLSojNDg2yTEvVmgKAkWbhwkZGdPv30U0b7zmzOkgrQhXvAXu6yyy43ZWcWRybr24ahIIJ2/SFAI+jJbiIGGzTOt2wMQGiFFUI8njR0bP+tP9DuvPNDZj8tOzxQKDIxlZWVtjgCoD/7/YYr5YDrZ/zQLkycfqCPXXDBhabfYcyO82D/W/KjPhhd015TplAfb+sp/QNu5xOf+LhpM5a+KAnot5iIsD+aPsk9cQnUh10uyBSRWxMfjStLaxgS2hIAQszFktYDLW8ioCz0A8pBfSdNwibPW3LS/+HSyBMRGgDFhEo9yAvAhsliDPh1o654PeJcnO3bd5qtc4A2ZaEd6buMZ8axjw3UgzEwbtx4w8x4MkCWzTJbaDGTmTqV7bltNf8WHvh9gud7pQBwBMzyLOdgZ7kHgQkQBMEsfzQoxKUT5RtYajFrMbhZ65MeDQC4+UTKJy3KA7vNrMZSnSUJv0mDjghQ0wjcUz7iYEgKSZiREXT7MwbAhxmIX0+ohnlBPuY9flmhG+kwYTCzQTc6A52GjgKA0OkpD3UmHuVB1EBggFBmAnWD9nAalNerU6EBbp/LMxEz/vEN5ace0IHykBfpcs0VaGvKSXmhEdvCeAaN6IAAIXIcv308zzSeLSidmTrx7nQHv/4MYgYGbU7f9EGgs/JBK2gGd+TLnwCBbN/644P47OQgLwABQCF+Zh+m7WgTANDrd5ysCFfv8SfkB+1Jk29JAxAAbKgP3CZXfmerD9+RNmWhzQjE8/880GrlaIlPeuTJlbLSn7j6/YA4/Kb+9FMCz7AI8fsqZQQoM1cmpAc9mEB9t15+OUgnky5+mmAAZQG8SZP4lJm8YJBgINBw89wP5ENZoZ23fRXb3bZ19uNy7REIZiYQ3AcUCCgQUGAgU6DrtdxArl1Q9oACAQUCCnRBgQAEuyBQ8DqgQECBwU2BAAQHd/sGtQsoEFCgCwoEINgFgYLXAQUCCgxuCgQgOLjbN6hdQIGAAl1QIADBLggUvA4oEFBgcFMgAMHB3b5B7QIKBBToggIBCHZBoOB1QIGAAoObAgEIDu72DWoXUCCgQBcUCECwCwIFrwMKBBQY3BQIQHBwt29Qu4ACAQW6oEAAgl0QKHgdUCCgwOCmQACCg7t9g9oFFAgo0AUFAhDsgkDB64ACAQUGNwUCEBzc7RvULqBAQIEuKBCAYBcECl4HFAgoMLgp8P8Bbz/TCQN9pxoAAAAASUVORK5CYII=;" parent="1" vertex="1">
          <mxGeometry x="898" y="306" width="161.61" height="73" as="geometry" />
        </mxCell>
        <mxCell id="jEmmwzNHHjKvHg6OHVln-1" value="大数据存储分析&lt;br&gt;Hadoop + HBase + Hive + Spark + Kylin" style="text;html=1;strokeColor=#b85450;fillColor=#f8cecc;align=center;verticalAlign=middle;whiteSpace=wrap;rounded=0;fontStyle=1;fontSize=20;shadow=1;" parent="1" vertex="1">
          <mxGeometry x="746" y="686.63" width="205" height="73" as="geometry" />
        </mxCell>
        <mxCell id="nWQtlcYZ32i_l5jBkG5F-1" value="IaaS层" style="rounded=0;whiteSpace=wrap;html=1;fontSize=21;fillColor=#ffe6cc;strokeColor=#d79b00;shadow=1;" vertex="1" parent="1">
          <mxGeometry x="48" y="1566" width="1074" height="187" as="geometry" />
        </mxCell>
        <mxCell id="nWQtlcYZ32i_l5jBkG5F-2" value="阿里云/腾讯云/华为云/亚马逊云" style="points=[[0,0],[0.25,0],[0.5,0],[0.75,0],[1,0],[1,0.25],[1,0.5],[1,0.75],[1,1],[0.75,1],[0.5,1],[0.25,1],[0,1],[0,0.75],[0,0.5],[0,0.25]];outlineConnect=0;html=1;whiteSpace=wrap;fontSize=19;fontStyle=1;shape=mxgraph.aws4.group;grIcon=mxgraph.aws4.group_aws_cloud;verticalAlign=top;align=left;spacingLeft=30;dashed=1;shadow=1;" vertex="1" parent="1">
          <mxGeometry x="238.5" y="1585" width="866.5" height="154" as="geometry" />
        </mxCell>
        <mxCell id="nWQtlcYZ32i_l5jBkG5F-3" style="edgeStyle=none;shape=link;rounded=0;orthogonalLoop=1;jettySize=auto;html=1;exitX=1;exitY=1;exitDx=0;exitDy=0;fontStyle=1;fontSize=18;" edge="1" parent="1" source="nWQtlcYZ32i_l5jBkG5F-2" target="nWQtlcYZ32i_l5jBkG5F-2">
          <mxGeometry relative="1" as="geometry" />
        </mxCell>
        <mxCell id="nWQtlcYZ32i_l5jBkG5F-4" value="&lt;font color=&quot;#000000&quot; style=&quot;font-size: 18px;&quot;&gt;云缓存&lt;br style=&quot;font-size: 18px;&quot;&gt;redis&lt;br style=&quot;font-size: 18px;&quot;&gt;&lt;/font&gt;" style="outlineConnect=0;dashed=0;verticalLabelPosition=bottom;verticalAlign=top;align=center;html=1;shape=mxgraph.aws3.redis;fillColor=#2E73B8;gradientColor=none;fontColor=#FFFFFF;fontStyle=1;fontSize=18;" vertex="1" parent="1">
          <mxGeometry x="621.9" y="1631.93" width="47.6" height="50.75" as="geometry" />
        </mxCell>
        <mxCell id="nWQtlcYZ32i_l5jBkG5F-5" value="支撑层" style="text;html=1;strokeColor=none;fillColor=none;align=center;verticalAlign=middle;whiteSpace=wrap;rounded=0;fontSize=30;fontStyle=1" vertex="1" parent="1">
          <mxGeometry x="75.5" y="1643.5" width="102" height="20" as="geometry" />
        </mxCell>
        <mxCell id="nWQtlcYZ32i_l5jBkG5F-6" value="PaaS层" style="rounded=0;whiteSpace=wrap;html=1;fontSize=21;fillColor=#d5e8d4;strokeColor=#82b366;shadow=1;" vertex="1" parent="1">
          <mxGeometry x="48" y="1024" width="1074" height="540" as="geometry" />
        </mxCell>
        <mxCell id="nWQtlcYZ32i_l5jBkG5F-7" value="云数据库&lt;br style=&quot;font-size: 18px;&quot;&gt;mongodb" style="dashed=0;outlineConnect=0;html=1;align=center;labelPosition=center;verticalLabelPosition=bottom;verticalAlign=top;shape=mxgraph.webicons.mongodb;gradientColor=#DFDEDE;fontSize=18;fontStyle=1" vertex="1" parent="1">
          <mxGeometry x="533" y="1631.93" width="55" height="55.13" as="geometry" />
        </mxCell>
        <mxCell id="nWQtlcYZ32i_l5jBkG5F-8" value="专有网络&lt;br style=&quot;font-size: 18px;&quot;&gt;VPC" style="outlineConnect=0;dashed=0;verticalLabelPosition=bottom;verticalAlign=top;align=center;html=1;shape=mxgraph.aws3.vpc;fillColor=#F58534;gradientColor=none;fontSize=18;fontStyle=1" vertex="1" parent="1">
          <mxGeometry x="442" y="1631.93" width="46.5" height="52.37" as="geometry" />
        </mxCell>
        <mxCell id="nWQtlcYZ32i_l5jBkG5F-9" value="负载均衡&lt;br&gt;clb" style="outlineConnect=0;dashed=0;verticalLabelPosition=bottom;verticalAlign=top;align=center;html=1;shape=mxgraph.aws3.classic_load_balancer;fillColor=#F58536;gradientColor=none;fontSize=18;fontStyle=1" vertex="1" parent="1">
          <mxGeometry x="271.38" y="1631.93" width="46.5" height="46.37" as="geometry" />
        </mxCell>
        <mxCell id="nWQtlcYZ32i_l5jBkG5F-10" value="对象存储&lt;br style=&quot;font-size: 18px;&quot;&gt;oss" style="shape=image;html=1;verticalAlign=top;verticalLabelPosition=bottom;labelBackgroundColor=#ffffff;imageAspect=0;aspect=fixed;image=https://cdn4.iconfinder.com/data/icons/small-n-flat/24/floppy-128.png;fontSize=18;fontStyle=1" vertex="1" parent="1">
          <mxGeometry x="703.12" y="1631.93" width="48.76" height="48.76" as="geometry" />
        </mxCell>
        <mxCell id="nWQtlcYZ32i_l5jBkG5F-11" value="云主机" style="aspect=fixed;perimeter=ellipsePerimeter;html=1;align=center;shadow=0;dashed=0;spacingTop=3;image;image=img/lib/active_directory/mainframe_host.svg;fontSize=18;fontStyle=1" vertex="1" parent="1">
          <mxGeometry x="356.5" y="1631.93" width="47.07" height="65.37" as="geometry" />
        </mxCell>
        <mxCell id="nWQtlcYZ32i_l5jBkG5F-12" value="核心层" style="text;html=1;strokeColor=none;fillColor=none;align=center;verticalAlign=middle;whiteSpace=wrap;rounded=0;fontSize=30;fontStyle=1;shadow=0;sketch=0;glass=0;" vertex="1" parent="1">
          <mxGeometry x="89" y="1204" width="106.5" height="20" as="geometry" />
        </mxCell>
        <mxCell id="nWQtlcYZ32i_l5jBkG5F-13" value="中间件" style="dashed=1;verticalAlign=top;fontStyle=1;fontColor=#147EBA;fontSize=21;strokeColor=none;shadow=1;" vertex="1" parent="1">
          <mxGeometry x="234" y="1321" width="658" height="108" as="geometry" />
        </mxCell>
        <mxCell id="nWQtlcYZ32i_l5jBkG5F-15" value="消息队列&lt;br&gt;rabbitmq" style="rounded=1;whiteSpace=wrap;html=1;fontSize=18;fontStyle=1;fillColor=#60a917;strokeColor=#2D7600;fontColor=#ffffff;shadow=1;" vertex="1" parent="1">
          <mxGeometry x="474" y="1361" width="82" height="60" as="geometry" />
        </mxCell>
        <mxCell id="nWQtlcYZ32i_l5jBkG5F-16" value="mqtt集群&lt;br&gt;emqx" style="rounded=1;whiteSpace=wrap;html=1;fontSize=18;fontStyle=1;fillColor=#60a917;strokeColor=#2D7600;fontColor=#ffffff;shadow=1;" vertex="1" parent="1">
          <mxGeometry x="247" y="1361" width="77.5" height="60" as="geometry" />
        </mxCell>
        <mxCell id="nWQtlcYZ32i_l5jBkG5F-18" value="反向代理&lt;br&gt;nginx" style="rounded=1;whiteSpace=wrap;html=1;fontSize=18;fontStyle=1;fillColor=#60a917;strokeColor=#2D7600;fontColor=#ffffff;shadow=1;" vertex="1" parent="1">
          <mxGeometry x="365" y="1361" width="78.43" height="60" as="geometry" />
        </mxCell>
        <mxCell id="nWQtlcYZ32i_l5jBkG5F-19" value="服务层" style="dashed=1;verticalAlign=top;fontStyle=1;fontColor=#147EBA;fontSize=21;strokeColor=none;shadow=1;" vertex="1" parent="1">
          <mxGeometry x="235.5" y="1153" width="654.5" height="157.5" as="geometry" />
        </mxCell>
        <mxCell id="nWQtlcYZ32i_l5jBkG5F-20" value="连接服务" style="rounded=1;whiteSpace=wrap;html=1;fontSize=18;fontStyle=1;fillColor=#1ba1e2;strokeColor=#006EAF;fontColor=#ffffff;shadow=1;" vertex="1" parent="1">
          <mxGeometry x="243.35" y="1198" width="116" height="44" as="geometry" />
        </mxCell>
        <mxCell id="nWQtlcYZ32i_l5jBkG5F-21" value="消息处理服务" style="rounded=1;whiteSpace=wrap;html=1;fontSize=18;fontStyle=1;fillColor=#1ba1e2;strokeColor=#006EAF;fontColor=#ffffff;shadow=1;" vertex="1" parent="1">
          <mxGeometry x="370.50000000000006" y="1196" width="116" height="44" as="geometry" />
        </mxCell>
        <mxCell id="nWQtlcYZ32i_l5jBkG5F-22" value="管理后台服务" style="rounded=1;whiteSpace=wrap;html=1;fontSize=18;fontStyle=1;fillColor=#1ba1e2;strokeColor=#006EAF;fontColor=#ffffff;shadow=1;" vertex="1" parent="1">
          <mxGeometry x="506.75" y="1196" width="116" height="44" as="geometry" />
        </mxCell>
        <mxCell id="nWQtlcYZ32i_l5jBkG5F-23" value="分析服务" style="rounded=1;whiteSpace=wrap;html=1;fontSize=18;fontStyle=1;fillColor=#1ba1e2;strokeColor=#006EAF;fontColor=#ffffff;shadow=1;" vertex="1" parent="1">
          <mxGeometry x="637" y="1196" width="116" height="44" as="geometry" />
        </mxCell>
        <mxCell id="nWQtlcYZ32i_l5jBkG5F-24" value="场景联动服务" style="rounded=1;whiteSpace=wrap;html=1;fontSize=18;fontStyle=1;fillColor=#1ba1e2;strokeColor=#006EAF;fontColor=#ffffff;shadow=1;" vertex="1" parent="1">
          <mxGeometry x="764" y="1196" width="116" height="44" as="geometry" />
        </mxCell>
        <mxCell id="nWQtlcYZ32i_l5jBkG5F-25" value="统一认证服务" style="rounded=1;whiteSpace=wrap;html=1;fontSize=18;fontStyle=1;fillColor=#1ba1e2;strokeColor=#006EAF;fontColor=#ffffff;shadow=1;" vertex="1" parent="1">
          <mxGeometry x="370.5" y="1249" width="116" height="44" as="geometry" />
        </mxCell>
        <mxCell id="nWQtlcYZ32i_l5jBkG5F-26" value="调度服务" style="rounded=1;whiteSpace=wrap;html=1;fontSize=18;fontStyle=1;fillColor=#1ba1e2;strokeColor=#006EAF;fontColor=#ffffff;shadow=1;" vertex="1" parent="1">
          <mxGeometry x="638.97" y="1252" width="116" height="44" as="geometry" />
        </mxCell>
        <mxCell id="nWQtlcYZ32i_l5jBkG5F-27" value="推送服务" style="rounded=1;whiteSpace=wrap;html=1;fontSize=18;fontStyle=1;fillColor=#1ba1e2;strokeColor=#006EAF;fontColor=#ffffff;shadow=1;" vertex="1" parent="1">
          <mxGeometry x="244.35" y="1252" width="116" height="44" as="geometry" />
        </mxCell>
        <mxCell id="nWQtlcYZ32i_l5jBkG5F-28" value="开放层" style="dashed=1;verticalAlign=top;fontStyle=1;fontColor=#147EBA;fontSize=21;strokeColor=none;shadow=1;" vertex="1" parent="1">
          <mxGeometry x="236.5" y="1039" width="655.5" height="103" as="geometry" />
        </mxCell>
        <mxCell id="nWQtlcYZ32i_l5jBkG5F-29" value="开放接口服务" style="rounded=1;whiteSpace=wrap;html=1;fontSize=18;fontStyle=1;fillColor=#1ba1e2;strokeColor=#006EAF;fontColor=#ffffff;shadow=1;" vertex="1" parent="1">
          <mxGeometry x="506.75" y="1252" width="116" height="44" as="geometry" />
        </mxCell>
        <mxCell id="nWQtlcYZ32i_l5jBkG5F-47" value="" style="rounded=0;whiteSpace=wrap;html=1;fontSize=21;fillColor=#f5f5f5;strokeColor=#666666;fontColor=#333333;sketch=0;shadow=1;" vertex="1" parent="1">
          <mxGeometry x="48" y="836" width="1074" height="188" as="geometry" />
        </mxCell>
        <mxCell id="nWQtlcYZ32i_l5jBkG5F-48" value="应用层" style="text;html=1;strokeColor=none;fillColor=none;align=center;verticalAlign=middle;whiteSpace=wrap;rounded=0;fontSize=30;fontStyle=1" vertex="1" parent="1">
          <mxGeometry x="86.5" y="924" width="115" height="20" as="geometry" />
        </mxCell>
        <mxCell id="nWQtlcYZ32i_l5jBkG5F-49" value="" style="dashed=1;verticalAlign=top;fontStyle=0;fontColor=#147EBA;fontSize=21;strokeColor=none;shadow=1;" vertex="1" parent="1">
          <mxGeometry x="236" y="862" width="836.5" height="148" as="geometry" />
        </mxCell>
        <mxCell id="nWQtlcYZ32i_l5jBkG5F-50" value="IOT交互" style="dashed=1;verticalAlign=top;fontStyle=1;fontColor=#147EBA;fontSize=21;shadow=1;" vertex="1" parent="1">
          <mxGeometry x="252.5" y="886" width="318" height="111" as="geometry" />
        </mxCell>
        <mxCell id="nWQtlcYZ32i_l5jBkG5F-51" value="智能网关" style="rounded=1;whiteSpace=wrap;html=1;fontSize=20;fontStyle=1;fillColor=#e51400;strokeColor=#B20000;fontColor=#ffffff;shadow=1;" vertex="1" parent="1">
          <mxGeometry x="271.38" y="933" width="91" height="52" as="geometry" />
        </mxCell>
        <mxCell id="nWQtlcYZ32i_l5jBkG5F-52" value="家电" style="rounded=1;whiteSpace=wrap;html=1;fontSize=20;fontStyle=1;fillColor=#e51400;strokeColor=#B20000;fontColor=#ffffff;shadow=1;" vertex="1" parent="1">
          <mxGeometry x="381.5" y="933" width="94.5" height="51" as="geometry" />
        </mxCell>
        <mxCell id="nWQtlcYZ32i_l5jBkG5F-53" value="..." style="text;html=1;strokeColor=#B20000;fillColor=#e51400;align=center;verticalAlign=middle;whiteSpace=wrap;rounded=0;fontSize=20;fontStyle=1;fontColor=#ffffff;shadow=1;" vertex="1" parent="1">
          <mxGeometry x="498.5" y="946" width="57" height="20" as="geometry" />
        </mxCell>
        <mxCell id="nWQtlcYZ32i_l5jBkG5F-54" value="前端交互" style="dashed=1;verticalAlign=top;fontStyle=1;fontColor=#147EBA;fontSize=21;shadow=1;" vertex="1" parent="1">
          <mxGeometry x="652" y="886" width="409.5" height="111" as="geometry" />
        </mxCell>
        <mxCell id="nWQtlcYZ32i_l5jBkG5F-55" value="APP" style="rounded=1;whiteSpace=wrap;html=1;fontSize=20;fontStyle=1;fillColor=#e51400;strokeColor=#B20000;fontColor=#ffffff;shadow=1;" vertex="1" parent="1">
          <mxGeometry x="671" y="934" width="93" height="52" as="geometry" />
        </mxCell>
        <mxCell id="nWQtlcYZ32i_l5jBkG5F-57" value="小程序" style="rounded=1;whiteSpace=wrap;html=1;fontSize=20;fontStyle=1;fillColor=#e51400;strokeColor=#B20000;fontColor=#ffffff;shadow=1;" vertex="1" parent="1">
          <mxGeometry x="794" y="933" width="97" height="51" as="geometry" />
        </mxCell>
        <mxCell id="nWQtlcYZ32i_l5jBkG5F-58" value="网页" style="rounded=1;whiteSpace=wrap;html=1;fontSize=20;fontStyle=1;fillColor=#e51400;strokeColor=#B20000;fontColor=#ffffff;shadow=1;" vertex="1" parent="1">
          <mxGeometry x="936.32" y="932" width="91.68" height="52" as="geometry" />
        </mxCell>
        <mxCell id="nWQtlcYZ32i_l5jBkG5F-60" value="安全防护" style="shape=image;html=1;verticalAlign=top;verticalLabelPosition=bottom;labelBackgroundColor=#ffffff;imageAspect=0;aspect=fixed;image=https://cdn1.iconfinder.com/data/icons/icons-for-a-site-1/64/advantage_protection-128.png;fontColor=#33001A;fontStyle=1;fontSize=18;sketch=0;" vertex="1" parent="1">
          <mxGeometry x="804.48" y="1631.93" width="58.95" height="58.95" as="geometry" />
        </mxCell>
        <mxCell id="nWQtlcYZ32i_l5jBkG5F-61" value="分布式日志系统&lt;br&gt;kafka" style="rounded=1;whiteSpace=wrap;html=1;fontSize=18;fontStyle=1;fillColor=#60a917;strokeColor=#2D7600;fontColor=#ffffff;shadow=1;" vertex="1" parent="1">
          <mxGeometry x="592" y="1361" width="131" height="60" as="geometry" />
        </mxCell>
        <mxCell id="nWQtlcYZ32i_l5jBkG5F-76" value="" style="rounded=0;whiteSpace=wrap;html=1;shadow=1;" vertex="1" parent="1">
          <mxGeometry x="903" y="1050" width="203.5" height="210" as="geometry" />
        </mxCell>
        <mxCell id="nWQtlcYZ32i_l5jBkG5F-63" value="配置中心&lt;br&gt;spring config" style="rounded=1;whiteSpace=wrap;html=1;fontSize=18;fontStyle=1;fillColor=#1ba1e2;strokeColor=#006EAF;fontColor=#ffffff;shadow=1;" vertex="1" parent="1">
          <mxGeometry x="921" y="1133.82" width="135" height="44" as="geometry" />
        </mxCell>
        <mxCell id="nWQtlcYZ32i_l5jBkG5F-77" value="服务网关&lt;br&gt;spring gateway" style="rounded=1;whiteSpace=wrap;html=1;fontSize=18;fontStyle=1;fillColor=#1ba1e2;strokeColor=#006EAF;fontColor=#ffffff;shadow=1;" vertex="1" parent="1">
          <mxGeometry x="921" y="1075" width="136" height="44" as="geometry" />
        </mxCell>
        <mxCell id="nWQtlcYZ32i_l5jBkG5F-82" value="注册中心&lt;br&gt;consul" style="rounded=1;whiteSpace=wrap;html=1;fontSize=18;fontStyle=1;fillColor=#1ba1e2;strokeColor=#006EAF;fontColor=#ffffff;shadow=1;" vertex="1" parent="1">
          <mxGeometry x="925.5" y="1194" width="135" height="44" as="geometry" />
        </mxCell>
        <mxCell id="nWQtlcYZ32i_l5jBkG5F-85" value="API网关" style="rounded=1;whiteSpace=wrap;html=1;fontSize=18;fontStyle=1;fillColor=#e3c800;strokeColor=#B09500;fontColor=#000000;shadow=1;" vertex="1" parent="1">
          <mxGeometry x="329.53" y="1080" width="127.47" height="51.5" as="geometry" />
        </mxCell>
        <mxCell id="nWQtlcYZ32i_l5jBkG5F-86" value="IOT网关" style="rounded=1;whiteSpace=wrap;html=1;fontSize=18;fontStyle=1;fillColor=#e3c800;strokeColor=#B09500;fontColor=#000000;shadow=1;" vertex="1" parent="1">
          <mxGeometry x="495" y="1080" width="141.5" height="51" as="geometry" />
        </mxCell>
        <mxCell id="nWQtlcYZ32i_l5jBkG5F-87" value="消息网关" style="rounded=1;whiteSpace=wrap;html=1;fontSize=18;fontStyle=1;fillColor=#e3c800;strokeColor=#B09500;fontColor=#000000;shadow=1;" vertex="1" parent="1">
          <mxGeometry x="674.58" y="1080" width="151.42" height="51" as="geometry" />
        </mxCell>
        <mxCell id="nWQtlcYZ32i_l5jBkG5F-90" style="edgeStyle=orthogonalEdgeStyle;rounded=0;orthogonalLoop=1;jettySize=auto;html=1;exitX=0.5;exitY=1;exitDx=0;exitDy=0;fontSize=18;" edge="1" parent="1" source="nWQtlcYZ32i_l5jBkG5F-10" target="nWQtlcYZ32i_l5jBkG5F-10">
          <mxGeometry relative="1" as="geometry" />
        </mxCell>
        <mxCell id="nWQtlcYZ32i_l5jBkG5F-92" value="镜像仓库&lt;br&gt;nexus" style="rounded=1;whiteSpace=wrap;html=1;fontSize=18;fontStyle=1;fillColor=#60a917;strokeColor=#2D7600;fontColor=#ffffff;shadow=1;" vertex="1" parent="1">
          <mxGeometry x="754.97" y="1361" width="108" height="60" as="geometry" />
        </mxCell>
        <mxCell id="nWQtlcYZ32i_l5jBkG5F-93" value="大数据" style="dashed=1;verticalAlign=top;fontStyle=1;fontColor=#147EBA;fontSize=21;strokeColor=none;shadow=1;" vertex="1" parent="1">
          <mxGeometry x="232.25" y="1438" width="658" height="113" as="geometry" />
        </mxCell>
        <mxCell id="nWQtlcYZ32i_l5jBkG5F-94" value="hadoop集群" style="rounded=1;whiteSpace=wrap;html=1;fontSize=18;fontStyle=1;fillColor=#b0e3e6;strokeColor=#0e8088;shadow=1;" vertex="1" parent="1">
          <mxGeometry x="279" y="1477" width="77.5" height="60" as="geometry" />
        </mxCell>
        <mxCell id="nWQtlcYZ32i_l5jBkG5F-95" value="数据仓库&lt;br&gt;hbase" style="rounded=1;whiteSpace=wrap;html=1;fontSize=18;fontStyle=1;fillColor=#b0e3e6;strokeColor=#0e8088;shadow=1;" vertex="1" parent="1">
          <mxGeometry x="395" y="1475" width="78.43" height="60" as="geometry" />
        </mxCell>
        <mxCell id="nWQtlcYZ32i_l5jBkG5F-96" value="计算引擎&lt;br&gt;spark" style="rounded=1;whiteSpace=wrap;html=1;fontSize=18;fontStyle=1;fillColor=#b0e3e6;strokeColor=#0e8088;shadow=1;" vertex="1" parent="1">
          <mxGeometry x="515.21" y="1475" width="74.7" height="60" as="geometry" />
        </mxCell>
        <mxCell id="nWQtlcYZ32i_l5jBkG5F-99" value="" style="rounded=0;whiteSpace=wrap;html=1;shadow=1;" vertex="1" parent="1">
          <mxGeometry x="906" y="1278" width="203.5" height="263" as="geometry" />
        </mxCell>
        <mxCell id="nWQtlcYZ32i_l5jBkG5F-97" value="数据分析kyligence" style="rounded=1;whiteSpace=wrap;html=1;fontSize=18;fontStyle=1;fillColor=#b0e3e6;strokeColor=#0e8088;shadow=1;" vertex="1" parent="1">
          <mxGeometry x="617.5" y="1475" width="102" height="60" as="geometry" />
        </mxCell>
        <mxCell id="nWQtlcYZ32i_l5jBkG5F-98" value="数据展现&lt;br&gt;tableau" style="rounded=1;whiteSpace=wrap;html=1;fontSize=18;fontStyle=1;fillColor=#b0e3e6;strokeColor=#0e8088;shadow=1;" vertex="1" parent="1">
          <mxGeometry x="739.25" y="1475" width="102.5" height="60" as="geometry" />
        </mxCell>
        <mxCell id="nWQtlcYZ32i_l5jBkG5F-78" value="统一监控平台&lt;br&gt;prometheus+grafana" style="rounded=1;whiteSpace=wrap;html=1;fontSize=18;fontStyle=1;fillColor=#1ba1e2;strokeColor=#006EAF;fontColor=#ffffff;shadow=1;" vertex="1" parent="1">
          <mxGeometry x="914.88" y="1469" width="185.75" height="44" as="geometry" />
        </mxCell>
        <mxCell id="nWQtlcYZ32i_l5jBkG5F-79" value="持续集成部署&lt;br&gt;jenkins" style="rounded=1;whiteSpace=wrap;html=1;fontSize=18;fontStyle=1;fillColor=#1ba1e2;strokeColor=#006EAF;fontColor=#ffffff;shadow=1;" vertex="1" parent="1">
          <mxGeometry x="931.25" y="1303" width="123.5" height="44" as="geometry" />
        </mxCell>
        <mxCell id="nWQtlcYZ32i_l5jBkG5F-80" value="日志收集分析平台&lt;br&gt;elk" style="rounded=1;whiteSpace=wrap;html=1;fontSize=18;fontStyle=1;fillColor=#1ba1e2;strokeColor=#006EAF;fontColor=#ffffff;shadow=1;" vertex="1" parent="1">
          <mxGeometry x="920" y="1358" width="150.5" height="44" as="geometry" />
        </mxCell>
        <mxCell id="nWQtlcYZ32i_l5jBkG5F-81" value="容器化服务编排&lt;br&gt;docker+swarm" style="rounded=1;whiteSpace=wrap;html=1;fontSize=18;fontStyle=1;fillColor=#1ba1e2;strokeColor=#006EAF;fontColor=#ffffff;shadow=1;" vertex="1" parent="1">
          <mxGeometry x="923" y="1414" width="140" height="44" as="geometry" />
        </mxCell>
      </root>
    </mxGraphModel>
  </diagram>
</mxfile>
